ISO-10303-21;
HEADER;
FILE_DESCRIPTION (( 'STEP AP214' ),
    '1' );
FILE_NAME ('A216 Трапецеидальный винт 8х290 мм, 4-х заходный, шаг 2 мм.STEP',
    '2019-09-11T10:01:52',
    ( 'Windows User' ),
    ( '' ),
    'SwSTEP 2.0',
    'SolidWorks 2018',
    '' );
FILE_SCHEMA (( 'AUTOMOTIVE_DESIGN' ));
ENDSEC;

DATA;
#1 = CARTESIAN_POINT ( 'NONE',  ( 290.0000000000000000, 4.898587196589412829E-16, -4.000000000000000000 ) ) ;
#2 = UNCERTAINTY_MEASURE_WITH_UNIT (LENGTH_MEASURE( 1.000000000000000082E-05 ), #124, 'distance_accuracy_value', 'NONE');
#3 = SURFACE_STYLE_FILL_AREA ( #79 ) ;
#4 = CIRCLE ( 'NONE', #107, 4.000000000000000000 ) ;
#5 = EDGE_CURVE ( 'NONE', #76, #12, #9, .T. ) ;
#6 = ORIENTED_EDGE ( 'NONE', *, *, #5, .F. ) ;
#7 =( LENGTH_UNIT ( ) NAMED_UNIT ( * ) SI_UNIT ( .MILLI., .METRE. ) );
#8 = CARTESIAN_POINT ( 'NONE',  ( 0.0000000000000000000, 0.0000000000000000000, 0.0000000000000000000 ) ) ;
#9 = LINE ( 'NONE', #29, #97 ) ;
#10 = MANIFOLD_SOLID_BREP ( 'Бобышка-Вытянуть1', #156 ) ;
#11 =( NAMED_UNIT ( * ) PLANE_ANGLE_UNIT ( ) SI_UNIT ( $, .RADIAN. ) );
#12 = VERTEX_POINT ( 'NONE', #158 ) ;
#13 = FACE_OUTER_BOUND ( 'NONE', #128, .T. ) ;
#14 = ORIENTED_EDGE ( 'NONE', *, *, #34, .F. ) ;
#15 = VECTOR ( 'NONE', #65, 1000.000000000000000 ) ;
#16 = EDGE_LOOP ( 'NONE', ( #19, #127, #163, #6 ) ) ;
#17 =( GEOMETRIC_REPRESENTATION_CONTEXT ( 3 ) GLOBAL_UNCERTAINTY_ASSIGNED_CONTEXT ( ( #64 ) ) GLOBAL_UNIT_ASSIGNED_CONTEXT ( ( #7, #68, #161 ) ) REPRESENTATION_CONTEXT ( 'NONE', 'WORKASPACE' ) );
#18 = PRESENTATION_STYLE_ASSIGNMENT (( #133 ) ) ;
#19 = ORIENTED_EDGE ( 'NONE', *, *, #43, .F. ) ;
#20 = PRODUCT_DEFINITION_FORMATION_WITH_SPECIFIED_SOURCE ( 'ANY', '', #103, .NOT_KNOWN. ) ;
#21 = FACE_OUTER_BOUND ( 'NONE', #16, .T. ) ;
#22 = FILL_AREA_STYLE ('',( #70 ) ) ;
#23 = DIRECTION ( 'NONE',  ( 1.000000000000000000, 0.0000000000000000000, 0.0000000000000000000 ) ) ;
#24 = PLANE ( 'NONE',  #105 ) ;
#25 = PRESENTATION_STYLE_ASSIGNMENT (( #62 ) ) ;
#26 = STYLED_ITEM ( 'NONE', ( #126 ), #153 ) ;
#27 = CIRCLE ( 'NONE', #109, 4.000000000000000000 ) ;
#28 = EDGE_LOOP ( 'NONE', ( #14, #75, #37, #67 ) ) ;
#29 = CARTESIAN_POINT ( 'NONE',  ( 290.0000000000000000, 0.0000000000000000000, 4.000000000000000000 ) ) ;
#30 = FILL_AREA_STYLE_COLOUR ( '', #55 ) ;
#31 = SURFACE_STYLE_FILL_AREA ( #48 ) ;
#32 = CARTESIAN_POINT ( 'NONE',  ( 0.0000000000000000000, 0.0000000000000000000, 0.0000000000000000000 ) ) ;
#33 =( GEOMETRIC_REPRESENTATION_CONTEXT ( 3 ) GLOBAL_UNCERTAINTY_ASSIGNED_CONTEXT ( ( #2 ) ) GLOBAL_UNIT_ASSIGNED_CONTEXT ( ( #124, #74, #138 ) ) REPRESENTATION_CONTEXT ( 'NONE', 'WORKASPACE' ) );
#34 = EDGE_CURVE ( 'NONE', #94, #157, #52, .T. ) ;
#35 = STYLED_ITEM ( 'NONE', ( #18 ), #89 ) ;
#36 = UNCERTAINTY_MEASURE_WITH_UNIT (LENGTH_MEASURE( 1.000000000000000082E-05 ), #115, 'distance_accuracy_value', 'NONE');
#37 = ORIENTED_EDGE ( 'NONE', *, *, #5, .T. ) ;
#38 =( LENGTH_UNIT ( ) NAMED_UNIT ( * ) SI_UNIT ( .MILLI., .METRE. ) );
#39 = FACE_OUTER_BOUND ( 'NONE', #129, .T. ) ;
#40 = CARTESIAN_POINT ( 'NONE',  ( 0.0000000000000000000, 4.898587196589412829E-16, -4.000000000000000000 ) ) ;
#41 = DIRECTION ( 'NONE',  ( -1.000000000000000000, -0.0000000000000000000, -0.0000000000000000000 ) ) ;
#42 = DIRECTION ( 'NONE',  ( 0.0000000000000000000, 0.0000000000000000000, -1.000000000000000000 ) ) ;
#43 = EDGE_CURVE ( 'NONE', #94, #76, #168, .T. ) ;
#44 = FILL_AREA_STYLE_COLOUR ( '', #132 ) ;
#45 =( LENGTH_UNIT ( ) NAMED_UNIT ( * ) SI_UNIT ( .MILLI., .METRE. ) );
#46 = STYLED_ITEM ( 'NONE', ( #136 ), #10 ) ;
#47 = DIRECTION ( 'NONE',  ( 1.000000000000000000, 0.0000000000000000000, 0.0000000000000000000 ) ) ;
#48 = FILL_AREA_STYLE ('',( #30 ) ) ;
#49 = APPLICATION_CONTEXT ( 'automotive_design' ) ;
#50 = APPLICATION_CONTEXT ( 'automotive_design' ) ;
#51 = PRODUCT_DEFINITION_CONTEXT ( 'detailed design', #50, 'design' ) ;
#52 = LINE ( 'NONE', #1, #15 ) ;
#53 = EDGE_CURVE ( 'NONE', #12, #157, #147, .T. ) ;
#54 =( NAMED_UNIT ( * ) PLANE_ANGLE_UNIT ( ) SI_UNIT ( $, .RADIAN. ) );
#55 = COLOUR_RGB ( '',0.7960784313725489669, 0.8235294117647058432, 0.9372549019607843146 ) ;
#56 = ORIENTED_EDGE ( 'NONE', *, *, #53, .F. ) ;
#57 = CARTESIAN_POINT ( 'NONE',  ( 0.0000000000000000000, 0.0000000000000000000, 0.0000000000000000000 ) ) ;
#58 = SURFACE_SIDE_STYLE ('',( #88 ) ) ;
#59 = CARTESIAN_POINT ( 'NONE',  ( 290.0000000000000000, 0.0000000000000000000, 0.0000000000000000000 ) ) ;
#60 = CARTESIAN_POINT ( 'NONE',  ( 290.0000000000000000, 0.0000000000000000000, 0.0000000000000000000 ) ) ;
#61 = STYLED_ITEM ( 'NONE', ( #25 ), #116 ) ;
#62 = SURFACE_STYLE_USAGE ( .BOTH. , #170 ) ;
#63 = AXIS2_PLACEMENT_3D ( 'NONE', #149, #165, #86 ) ;
#64 = UNCERTAINTY_MEASURE_WITH_UNIT (LENGTH_MEASURE( 1.000000000000000082E-05 ), #7, 'distance_accuracy_value', 'NONE');
#65 = DIRECTION ( 'NONE',  ( -1.000000000000000000, -0.0000000000000000000, -0.0000000000000000000 ) ) ;
#66 = FILL_AREA_STYLE_COLOUR ( '', #101 ) ;
#67 = ORIENTED_EDGE ( 'NONE', *, *, #53, .T. ) ;
#68 =( NAMED_UNIT ( * ) PLANE_ANGLE_UNIT ( ) SI_UNIT ( $, .RADIAN. ) );
#69 = DIRECTION ( 'NONE',  ( 0.0000000000000000000, 0.0000000000000000000, -1.000000000000000000 ) ) ;
#70 = FILL_AREA_STYLE_COLOUR ( '', #119 ) ;
#71 =( GEOMETRIC_REPRESENTATION_CONTEXT ( 3 ) GLOBAL_UNCERTAINTY_ASSIGNED_CONTEXT ( ( #144 ) ) GLOBAL_UNIT_ASSIGNED_CONTEXT ( ( #38, #54, #145 ) ) REPRESENTATION_CONTEXT ( 'NONE', 'WORKASPACE' ) );
#72 = MECHANICAL_DESIGN_GEOMETRIC_PRESENTATION_REPRESENTATION (  '', ( #46 ), #71 ) ;
#73 = AXIS2_PLACEMENT_3D ( 'NONE', #57, #169, #47 ) ;
#74 =( NAMED_UNIT ( * ) PLANE_ANGLE_UNIT ( ) SI_UNIT ( $, .RADIAN. ) );
#75 = ORIENTED_EDGE ( 'NONE', *, *, #167, .F. ) ;
#76 = VERTEX_POINT ( 'NONE', #95 ) ;
#77 = PRESENTATION_LAYER_ASSIGNMENT (  '', '', ( #61 ) ) ;
#78 = AXIS2_PLACEMENT_3D ( 'NONE', #59, #83, #69 ) ;
#79 = FILL_AREA_STYLE ('',( #66 ) ) ;
#80 = AXIS2_PLACEMENT_3D ( 'NONE', #164, #23, #84 ) ;
#81 = PRODUCT_DEFINITION ( 'UNKNOWN', '', #20, #51 ) ;
#82 = EDGE_CURVE ( 'NONE', #157, #12, #27, .T. ) ;
#83 = DIRECTION ( 'NONE',  ( 1.000000000000000000, 0.0000000000000000000, 0.0000000000000000000 ) ) ;
#84 = DIRECTION ( 'NONE',  ( 0.0000000000000000000, 0.0000000000000000000, -1.000000000000000000 ) ) ;
#85 = DIRECTION ( 'NONE',  ( 0.0000000000000000000, 0.0000000000000000000, -1.000000000000000000 ) ) ;
#86 = DIRECTION ( 'NONE',  ( 0.0000000000000000000, 0.0000000000000000000, 1.000000000000000000 ) ) ;
#87 = PRODUCT_RELATED_PRODUCT_CATEGORY ( 'part', '', ( #103 ) ) ;
#88 = SURFACE_STYLE_FILL_AREA ( #22 ) ;
#89 = ADVANCED_FACE ( 'NONE', ( #21 ), #162, .T. ) ;
#90 = FACE_OUTER_BOUND ( 'NONE', #28, .T. ) ;
#91 = UNCERTAINTY_MEASURE_WITH_UNIT (LENGTH_MEASURE( 1.000000000000000082E-05 ), #45, 'distance_accuracy_value', 'NONE');
#92 = SURFACE_STYLE_USAGE ( .BOTH. , #159 ) ;
#93 = SHAPE_DEFINITION_REPRESENTATION ( #135, #116 ) ;
#94 = VERTEX_POINT ( 'NONE', #111 ) ;
#95 = CARTESIAN_POINT ( 'NONE',  ( 290.0000000000000000, 0.0000000000000000000, 4.000000000000000000 ) ) ;
#96 = DIRECTION ( 'NONE',  ( 0.0000000000000000000, 0.0000000000000000000, 1.000000000000000000 ) ) ;
#97 = VECTOR ( 'NONE', #146, 1000.000000000000000 ) ;
#98 = DIRECTION ( 'NONE',  ( 1.000000000000000000, 0.0000000000000000000, 0.0000000000000000000 ) ) ;
#99 =( NAMED_UNIT ( * ) SI_UNIT ( $, .STERADIAN. ) SOLID_ANGLE_UNIT ( ) );
#100 = PRESENTATION_LAYER_ASSIGNMENT (  '', '', ( #35 ) ) ;
#101 = COLOUR_RGB ( '',0.7960784313725489669, 0.8235294117647058432, 0.9372549019607843146 ) ;
#102 = PRESENTATION_LAYER_ASSIGNMENT (  '', '', ( #46 ) ) ;
#103 = PRODUCT ( 'A216 Трапецеидальный винт 8х290 мм, 4-х заходный, шаг 2 мм', 'A216 Трапецеидальный винт 8х290 мм, 4-х заходный, шаг 2 мм', '', ( #122 ) ) ;
#104 = ADVANCED_FACE ( 'NONE', ( #39 ), #24, .F. ) ;
#105 = AXIS2_PLACEMENT_3D ( 'NONE', #8, #98, #42 ) ;
#106 = MECHANICAL_DESIGN_GEOMETRIC_PRESENTATION_REPRESENTATION (  '', ( #35 ), #17 ) ;
#107 = AXIS2_PLACEMENT_3D ( 'NONE', #152, #154, #114 ) ;
#108 = ORIENTED_EDGE ( 'NONE', *, *, #82, .F. ) ;
#109 = AXIS2_PLACEMENT_3D ( 'NONE', #32, #148, #118 ) ;
#110 = SURFACE_SIDE_STYLE ('',( #112 ) ) ;
#111 = CARTESIAN_POINT ( 'NONE',  ( 290.0000000000000000, 4.898587196589412829E-16, -4.000000000000000000 ) ) ;
#112 = SURFACE_STYLE_FILL_AREA ( #113 ) ;
#113 = FILL_AREA_STYLE ('',( #44 ) ) ;
#114 = DIRECTION ( 'NONE',  ( 0.0000000000000000000, 0.0000000000000000000, -1.000000000000000000 ) ) ;
#115 =( LENGTH_UNIT ( ) NAMED_UNIT ( * ) SI_UNIT ( .MILLI., .METRE. ) );
#116 = ADVANCED_BREP_SHAPE_REPRESENTATION ( 'A216 TЁряхЎхшфры№эvщ тшэЄ 8ї290 ьь, 4-ї чрїюфэvщ, °ру 2 ьь', ( #10, #73 ), #33 ) ;
#117 = ORIENTED_EDGE ( 'NONE', *, *, #43, .T. ) ;
#118 = DIRECTION ( 'NONE',  ( 0.0000000000000000000, 0.0000000000000000000, -1.000000000000000000 ) ) ;
#119 = COLOUR_RGB ( '',0.7960784313725489669, 0.8235294117647058432, 0.9372549019607843146 ) ;
#120 = DIRECTION ( 'NONE',  ( 1.000000000000000000, 0.0000000000000000000, 0.0000000000000000000 ) ) ;
#121 = SURFACE_STYLE_USAGE ( .BOTH. , #110 ) ;
#122 = PRODUCT_CONTEXT ( 'NONE', #49, 'mechanical' ) ;
#123 = AXIS2_PLACEMENT_3D ( 'NONE', #60, #41, #96 ) ;
#124 =( LENGTH_UNIT ( ) NAMED_UNIT ( * ) SI_UNIT ( .MILLI., .METRE. ) );
#125 = APPLICATION_PROTOCOL_DEFINITION ( 'draft international standard', 'automotive_design', 1998, #49 ) ;
#126 = PRESENTATION_STYLE_ASSIGNMENT (( #121 ) ) ;
#127 = ORIENTED_EDGE ( 'NONE', *, *, #34, .T. ) ;
#128 = EDGE_LOOP ( 'NONE', ( #143, #117 ) ) ;
#129 = EDGE_LOOP ( 'NONE', ( #56, #108 ) ) ;
#130 = AXIS2_PLACEMENT_3D ( 'NONE', #134, #120, #85 ) ;
#131 =( GEOMETRIC_REPRESENTATION_CONTEXT ( 3 ) GLOBAL_UNCERTAINTY_ASSIGNED_CONTEXT ( ( #36 ) ) GLOBAL_UNIT_ASSIGNED_CONTEXT ( ( #115, #11, #99 ) ) REPRESENTATION_CONTEXT ( 'NONE', 'WORKASPACE' ) );
#132 = COLOUR_RGB ( '',0.7960784313725489669, 0.8235294117647058432, 0.9372549019607843146 ) ;
#133 = SURFACE_STYLE_USAGE ( .BOTH. , #58 ) ;
#134 = CARTESIAN_POINT ( 'NONE',  ( 290.0000000000000000, 0.0000000000000000000, 0.0000000000000000000 ) ) ;
#135 = PRODUCT_DEFINITION_SHAPE ( 'NONE', 'NONE',  #81 ) ;
#136 = PRESENTATION_STYLE_ASSIGNMENT (( #92 ) ) ;
#137 =( NAMED_UNIT ( * ) PLANE_ANGLE_UNIT ( ) SI_UNIT ( $, .RADIAN. ) );
#138 =( NAMED_UNIT ( * ) SI_UNIT ( $, .STERADIAN. ) SOLID_ANGLE_UNIT ( ) );
#139 = APPLICATION_PROTOCOL_DEFINITION ( 'draft international standard', 'automotive_design', 1998, #50 ) ;
#140 = ADVANCED_FACE ( 'NONE', ( #13 ), #166, .T. ) ;
#141 = PRESENTATION_LAYER_ASSIGNMENT (  '', '', ( #26 ) ) ;
#142 = MECHANICAL_DESIGN_GEOMETRIC_PRESENTATION_REPRESENTATION (  '', ( #61 ), #131 ) ;
#143 = ORIENTED_EDGE ( 'NONE', *, *, #167, .T. ) ;
#144 = UNCERTAINTY_MEASURE_WITH_UNIT (LENGTH_MEASURE( 1.000000000000000082E-05 ), #38, 'distance_accuracy_value', 'NONE');
#145 =( NAMED_UNIT ( * ) SI_UNIT ( $, .STERADIAN. ) SOLID_ANGLE_UNIT ( ) );
#146 = DIRECTION ( 'NONE',  ( -1.000000000000000000, -0.0000000000000000000, -0.0000000000000000000 ) ) ;
#147 = CIRCLE ( 'NONE', #80, 4.000000000000000000 ) ;
#148 = DIRECTION ( 'NONE',  ( 1.000000000000000000, 0.0000000000000000000, 0.0000000000000000000 ) ) ;
#149 = CARTESIAN_POINT ( 'NONE',  ( 290.0000000000000000, 0.0000000000000000000, 0.0000000000000000000 ) ) ;
#150 =( NAMED_UNIT ( * ) SI_UNIT ( $, .STERADIAN. ) SOLID_ANGLE_UNIT ( ) );
#151 = MECHANICAL_DESIGN_GEOMETRIC_PRESENTATION_REPRESENTATION (  '', ( #26 ), #160 ) ;
#152 = CARTESIAN_POINT ( 'NONE',  ( 290.0000000000000000, 0.0000000000000000000, 0.0000000000000000000 ) ) ;
#153 = ADVANCED_FACE ( 'NONE', ( #90 ), #155, .T. ) ;
#154 = DIRECTION ( 'NONE',  ( 1.000000000000000000, 0.0000000000000000000, 0.0000000000000000000 ) ) ;
#155 = CYLINDRICAL_SURFACE ( 'NONE', #63, 4.000000000000000000 ) ;
#156 = CLOSED_SHELL ( 'NONE', ( #89, #153, #140, #104 ) ) ;
#157 = VERTEX_POINT ( 'NONE', #40 ) ;
#158 = CARTESIAN_POINT ( 'NONE',  ( 0.0000000000000000000, 0.0000000000000000000, 4.000000000000000000 ) ) ;
#159 = SURFACE_SIDE_STYLE ('',( #3 ) ) ;
#160 =( GEOMETRIC_REPRESENTATION_CONTEXT ( 3 ) GLOBAL_UNCERTAINTY_ASSIGNED_CONTEXT ( ( #91 ) ) GLOBAL_UNIT_ASSIGNED_CONTEXT ( ( #45, #137, #150 ) ) REPRESENTATION_CONTEXT ( 'NONE', 'WORKASPACE' ) );
#161 =( NAMED_UNIT ( * ) SI_UNIT ( $, .STERADIAN. ) SOLID_ANGLE_UNIT ( ) );
#162 = CYLINDRICAL_SURFACE ( 'NONE', #123, 4.000000000000000000 ) ;
#163 = ORIENTED_EDGE ( 'NONE', *, *, #82, .T. ) ;
#164 = CARTESIAN_POINT ( 'NONE',  ( 0.0000000000000000000, 0.0000000000000000000, 0.0000000000000000000 ) ) ;
#165 = DIRECTION ( 'NONE',  ( -1.000000000000000000, -0.0000000000000000000, -0.0000000000000000000 ) ) ;
#166 = PLANE ( 'NONE',  #130 ) ;
#167 = EDGE_CURVE ( 'NONE', #76, #94, #4, .T. ) ;
#168 = CIRCLE ( 'NONE', #78, 4.000000000000000000 ) ;
#169 = DIRECTION ( 'NONE',  ( 0.0000000000000000000, 0.0000000000000000000, 1.000000000000000000 ) ) ;
#170 = SURFACE_SIDE_STYLE ('',( #31 ) ) ;
ENDSEC;
END-ISO-10303-21;
