ISO-10303-21;
HEADER;
FILE_DESCRIPTION (( 'STEP AP214' ),
    '1' );
FILE_NAME ('A782 SNSS.30.047 Крепление для стола, 30 серия.STEP',
    '2023-06-28T09:50:01',
    ( '' ),
    ( '' ),
    'SwSTEP 2.0',
    'SolidWorks 2022',
    '' );
FILE_SCHEMA (( 'AUTOMOTIVE_DESIGN' ));
ENDSEC;

DATA;
#1 = CARTESIAN_POINT ( 'NONE',  ( 6.599999999999999645, -16.50000000000000000, -3.000000000000000000 ) ) ;
#2 = CARTESIAN_POINT ( 'NONE',  ( -7.500000000000000000, 21.50000000000006395, -22.50000000000000711 ) ) ;
#3 = VECTOR ( 'NONE', #261, 1000.000000000000000 ) ;
#4 = CARTESIAN_POINT ( 'NONE',  ( -6.599999999999999645, -16.50000000000000000, -3.000000000000000000 ) ) ;
#5 = EDGE_CURVE ( 'NONE', #599, #846, #724, .T. ) ;
#6 = CARTESIAN_POINT ( 'NONE',  ( 3.100000000000000089, -3.500000000001312284, -3.000000000000000000 ) ) ;
#7 = DIRECTION ( 'NONE',  ( 0.000000000000000000, -1.000000000000000000, -3.469446951953612611E-15 ) ) ;
#8 = ORIENTED_EDGE ( 'NONE', *, *, #130, .T. ) ;
#9 = CARTESIAN_POINT ( 'NONE',  ( 6.599999999999999645, -14.00000000000000000, 0.000000000000000000 ) ) ;
#10 = VECTOR ( 'NONE', #355, 1000.000000000000000 ) ;
#11 = EDGE_CURVE ( 'NONE', #370, #785, #131, .T. ) ;
#12 =( NAMED_UNIT ( * ) SI_UNIT ( $, .STERADIAN. ) SOLID_ANGLE_UNIT ( ) );
#13 = EDGE_LOOP ( 'NONE', ( #164, #589, #664, #112, #453, #329, #637, #107, #513, #523 ) ) ;
#14 = LINE ( 'NONE', #72, #494 ) ;
#15 = FACE_OUTER_BOUND ( 'NONE', #172, .T. ) ;
#16 = EDGE_CURVE ( 'NONE', #358, #100, #789, .T. ) ;
#17 = VECTOR ( 'NONE', #404, 1000.000000000000000 ) ;
#18 = AXIS2_PLACEMENT_3D ( 'NONE', #27, #729, #602 ) ;
#19 = DIRECTION ( 'NONE',  ( -1.000000000000000000, 0.000000000000000000, 0.000000000000000000 ) ) ;
#20 = DIRECTION ( 'NONE',  ( 0.000000000000000000, -4.003208021484936961E-15, 1.000000000000000000 ) ) ;
#21 = CARTESIAN_POINT ( 'NONE',  ( 0.000000000000000000, 18.50000000000003553, -15.00000000000000355 ) ) ;
#22 = PRODUCT_RELATED_PRODUCT_CATEGORY ( 'part', '', ( #40 ) ) ;
#23 = EDGE_LOOP ( 'NONE', ( #692, #400, #759, #319 ) ) ;
#24 = PRODUCT_DEFINITION_SHAPE ( 'NONE', 'NONE',  #79 ) ;
#25 = DIRECTION ( 'NONE',  ( -1.000000000000000000, 0.000000000000000000, -0.000000000000000000 ) ) ;
#26 = LINE ( 'NONE', #162, #301 ) ;
#27 = CARTESIAN_POINT ( 'NONE',  ( 6.999999999999999112, 18.50000000000000355, -5.499999999999992895 ) ) ;
#28 = ORIENTED_EDGE ( 'NONE', *, *, #86, .T. ) ;
#29 = DIRECTION ( 'NONE',  ( 0.000000000000000000, 0.000000000000000000, -1.000000000000000000 ) ) ;
#30 = ORIENTED_EDGE ( 'NONE', *, *, #772, .F. ) ;
#31 = VECTOR ( 'NONE', #806, 1000.000000000000000 ) ;
#32 = EDGE_CURVE ( 'Кромка15', #533, #599, #461, .T. ) ;
#33 = PRESENTATION_LAYER_ASSIGNMENT (  '', '', ( #50 ) ) ;
#34 = CARTESIAN_POINT ( 'NONE',  ( -7.500000000000000000, 18.50000000000000355, -4.999999999999992006 ) ) ;
#35 = ORIENTED_EDGE ( 'NONE', *, *, #110, .F. ) ;
#36 = ORIENTED_EDGE ( 'NONE', *, *, #636, .T. ) ;
#37 = CARTESIAN_POINT ( 'NONE',  ( -4.999999999999999112, 21.50000000000007105, -25.00000000000000000 ) ) ;
#38 = DIRECTION ( 'NONE',  ( -0.000000000000000000, 0.000000000000000000, 1.000000000000000000 ) ) ;
#39 = ADVANCED_FACE ( 'Грань13', ( #15 ), #737, .F. ) ;
#40 = PRODUCT ( 'A782 SNSS.30.047 \X2\041a04400435043f043b0435043d04380435\X0\ \X2\0434043b044f\X0\ \X2\04410442043e043b0430\X0\, 30 \X2\0441043504400438044f\X0\', 'A782 SNSS.30.047 \X2\041a04400435043f043b0435043d04380435\X0\ \X2\0434043b044f\X0\ \X2\04410442043e043b0430\X0\, 30 \X2\0441043504400438044f\X0\', '', ( #256 ) ) ;
#41 = VECTOR ( 'NONE', #109, 1000.000000000000000 ) ;
#42 = ORIENTED_EDGE ( 'NONE', *, *, #5, .T. ) ;
#43 = CYLINDRICAL_SURFACE ( 'NONE', #219, 2.499999999999998668 ) ;
#44 = DIRECTION ( 'NONE',  ( 0.000000000000000000, 0.000000000000000000, 1.000000000000000000 ) ) ;
#45 = EDGE_LOOP ( 'NONE', ( #498, #716, #751, #712, #378, #563, #709, #651, #224, #255 ) ) ;
#46 = PRESENTATION_STYLE_ASSIGNMENT (( #706 ) ) ;
#47 = EDGE_CURVE ( 'NONE', #707, #427, #612, .T. ) ;
#48 = PLANE ( 'NONE',  #632 ) ;
#49 = AXIS2_PLACEMENT_3D ( 'NONE', #827, #697, #505 ) ;
#50 = STYLED_ITEM ( 'NONE', ( #795 ), #836 ) ;
#51 = ORIENTED_EDGE ( 'NONE', *, *, #787, .T. ) ;
#52 = SURFACE_STYLE_FILL_AREA ( #760 ) ;
#53 = ADVANCED_FACE ( 'NONE', ( #288 ), #298, .F. ) ;
#54 = PLANE ( 'NONE',  #479 ) ;
#55 = DIRECTION ( 'NONE',  ( 0.000000000000000000, 0.000000000000000000, -1.000000000000000000 ) ) ;
#56 = VERTEX_POINT ( 'NONE', #87 ) ;
#57 = AXIS2_PLACEMENT_3D ( 'NONE', #94, #223, #483 ) ;
#58 = FACE_OUTER_BOUND ( 'NONE', #619, .T. ) ;
#59 = ORIENTED_EDGE ( 'NONE', *, *, #447, .F. ) ;
#60 = LINE ( 'NONE', #198, #512 ) ;
#61 = DIRECTION ( 'NONE',  ( -1.000000000000000000, -0.000000000000000000, -0.000000000000000000 ) ) ;
#62 = DIRECTION ( 'NONE',  ( 0.000000000000000000, -4.003208021484936961E-15, 1.000000000000000000 ) ) ;
#63 = ORIENTED_EDGE ( 'NONE', *, *, #573, .T. ) ;
#64 = CIRCLE ( 'NONE', #281, 0.5000000000000004441 ) ;
#65 = AXIS2_PLACEMENT_3D ( 'NONE', #458, #126, #531 ) ;
#66 = DIRECTION ( 'NONE',  ( 0.000000000000000000, 0.000000000000000000, 1.000000000000000000 ) ) ;
#67 = DIRECTION ( 'NONE',  ( 0.000000000000000000, 0.000000000000000000, -1.000000000000000000 ) ) ;
#68 = EDGE_CURVE ( 'NONE', #238, #290, #350, .T. ) ;
#69 = CARTESIAN_POINT ( 'NONE',  ( 3.100000000000000089, -3.500000000001312284, -3.000000000000000000 ) ) ;
#70 = CIRCLE ( 'NONE', #182, 2.500000000000000444 ) ;
#71 = PLANE ( 'NONE',  #455 ) ;
#72 = CARTESIAN_POINT ( 'NONE',  ( -4.999999999999999112, 21.50000000000006750, -25.00000000000000000 ) ) ;
#73 = CARTESIAN_POINT ( 'NONE',  ( 0.000000000000000000, 18.50000000000003553, -15.00000000000000355 ) ) ;
#74 = ADVANCED_FACE ( 'NONE', ( #673, #733 ), #543, .T. ) ;
#75 = CARTESIAN_POINT ( 'NONE',  ( 6.599999999999999645, -16.50000000000000000, 0.000000000000000000 ) ) ;
#76 = CARTESIAN_POINT ( 'NONE',  ( -4.099999999999999645, -14.00000000000000000, 0.000000000000000000 ) ) ;
#77 = VECTOR ( 'NONE', #752, 1000.000000000000000 ) ;
#78 = DIRECTION ( 'NONE',  ( 0.000000000000000000, -1.000000000000000000, -3.491481338843133355E-15 ) ) ;
#79 = PRODUCT_DEFINITION ( 'UNKNOWN', '', #841, #289 ) ;
#80 = LINE ( 'NONE', #287, #527 ) ;
#81 = SURFACE_STYLE_FILL_AREA ( #800 ) ;
#82 = UNCERTAINTY_MEASURE_WITH_UNIT (LENGTH_MEASURE( 1.000000000000000082E-05 ), #212, 'distance_accuracy_value', 'NONE');
#83 = VERTEX_POINT ( 'NONE', #810 ) ;
#84 = CYLINDRICAL_SURFACE ( 'NONE', #408, 2.499999999999998668 ) ;
#85 = STYLED_ITEM ( 'NONE', ( #555 ), #39 ) ;
#86 = EDGE_CURVE ( 'NONE', #83, #389, #226, .T. ) ;
#87 = CARTESIAN_POINT ( 'NONE',  ( 7.500000000000000000, 18.50000000000006040, -22.50000000000001421 ) ) ;
#88 = ORIENTED_EDGE ( 'NONE', *, *, #416, .T. ) ;
#89 = FACE_BOUND ( 'NONE', #111, .T. ) ;
#90 = DIRECTION ( 'NONE',  ( 0.000000000000000000, -4.003208021484936961E-15, 1.000000000000000000 ) ) ;
#91 = EDGE_CURVE ( 'NONE', #362, #358, #621, .T. ) ;
#92 =( NAMED_UNIT ( * ) PLANE_ANGLE_UNIT ( ) SI_UNIT ( $, .RADIAN. ) );
#93 = CARTESIAN_POINT ( 'NONE',  ( 0.000000000000000000, 18.50000000000002842, -12.40000000000000213 ) ) ;
#94 = CARTESIAN_POINT ( 'NONE',  ( -6.599999999999999645, -16.50000000000000000, -3.000000000000000000 ) ) ;
#95 = EDGE_LOOP ( 'NONE', ( #496, #821 ) ) ;
#96 = CARTESIAN_POINT ( 'NONE',  ( 7.500000000000000000, 21.49999999999998579, 6.772031872376397107E-14 ) ) ;
#97 = AXIS2_PLACEMENT_3D ( 'NONE', #741, #420, #540 ) ;
#98 = VERTEX_POINT ( 'NONE', #684 ) ;
#99 =( LENGTH_UNIT ( ) NAMED_UNIT ( * ) SI_UNIT ( .MILLI., .METRE. ) );
#100 = VERTEX_POINT ( 'NONE', #292 ) ;
#101 = CARTESIAN_POINT ( 'NONE',  ( -6.599999999999999645, 16.50000000000000000, -4.999999999999999112 ) ) ;
#102 = ORIENTED_EDGE ( 'NONE', *, *, #787, .F. ) ;
#103 = DIRECTION ( 'NONE',  ( 1.000000000000000000, 0.000000000000000000, 0.000000000000000000 ) ) ;
#104 = ADVANCED_FACE ( 'NONE', ( #551 ), #155, .T. ) ;
#105 = DIRECTION ( 'NONE',  ( -0.000000000000000000, 0.000000000000000000, 1.000000000000000000 ) ) ;
#106 = CARTESIAN_POINT ( 'NONE',  ( -7.500000000000000000, 18.50000000000000355, -4.999999999999992006 ) ) ;
#107 = ORIENTED_EDGE ( 'NONE', *, *, #110, .T. ) ;
#108 = CARTESIAN_POINT ( 'NONE',  ( 0.000000000000000000, 0.000000000000000000, -3.000000000000000000 ) ) ;
#109 = DIRECTION ( 'NONE',  ( 1.000000000000000000, 0.000000000000000000, 0.000000000000000000 ) ) ;
#110 = EDGE_CURVE ( 'NONE', #348, #633, #210, .T. ) ;
#111 = EDGE_LOOP ( 'NONE', ( #169, #30 ) ) ;
#112 = ORIENTED_EDGE ( 'NONE', *, *, #137, .T. ) ;
#113 = CARTESIAN_POINT ( 'NONE',  ( -6.999999999999999112, 21.50000000000000000, -5.499999999999982236 ) ) ;
#114 = EDGE_CURVE ( 'Кромка13', #633, #556, #794, .T. ) ;
#115 = ORIENTED_EDGE ( 'NONE', *, *, #5, .F. ) ;
#116 =( NAMED_UNIT ( * ) PLANE_ANGLE_UNIT ( ) SI_UNIT ( $, .RADIAN. ) );
#117 = DIRECTION ( 'NONE',  ( 0.000000000000000000, 0.000000000000000000, -1.000000000000000000 ) ) ;
#118 = CIRCLE ( 'NONE', #576, 2.499999999999998668 ) ;
#119 = EDGE_LOOP ( 'NONE', ( #414, #215 ) ) ;
#120 = LINE ( 'NONE', #451, #714 ) ;
#121 = CARTESIAN_POINT ( 'NONE',  ( -4.099999999999999645, -16.50000000000000000, -3.000000000000000000 ) ) ;
#122 = EDGE_LOOP ( 'NONE', ( #201, #477 ) ) ;
#123 = CIRCLE ( 'NONE', #676, 5.000000000000002665 ) ;
#124 = VECTOR ( 'NONE', #849, 1000.000000000000000 ) ;
#125 = EDGE_CURVE ( 'NONE', #260, #369, #70, .T. ) ;
#126 = DIRECTION ( 'NONE',  ( 1.000000000000000000, 0.000000000000000000, 0.000000000000000000 ) ) ;
#127 =( GEOMETRIC_REPRESENTATION_CONTEXT ( 3 ) GLOBAL_UNCERTAINTY_ASSIGNED_CONTEXT ( ( #351 ) ) GLOBAL_UNIT_ASSIGNED_CONTEXT ( ( #398, #92, #207 ) ) REPRESENTATION_CONTEXT ( 'NONE', 'WORKASPACE' ) );
#128 = DIRECTION ( 'NONE',  ( 0.000000000000000000, 1.000000000000000000, 3.469446951953611033E-15 ) ) ;
#129 = ORIENTED_EDGE ( 'NONE', *, *, #696, .F. ) ;
#130 = EDGE_CURVE ( 'NONE', #392, #250, #364, .T. ) ;
#131 = LINE ( 'NONE', #69, #211 ) ;
#132 = VECTOR ( 'NONE', #482, 1000.000000000000000 ) ;
#133 = CARTESIAN_POINT ( 'NONE',  ( 0.000000000000000000, -3.500000000001312284, -3.000000000000000000 ) ) ;
#134 = LINE ( 'NONE', #557, #449 ) ;
#135 = DIRECTION ( 'NONE',  ( 0.000000000000000000, -1.000000000000000000, -3.491481338843133355E-15 ) ) ;
#136 = ORIENTED_EDGE ( 'NONE', *, *, #91, .F. ) ;
#137 = EDGE_CURVE ( 'NONE', #389, #365, #26, .T. ) ;
#138 = DIRECTION ( 'NONE',  ( 0.000000000000000000, 0.000000000000000000, 1.000000000000000000 ) ) ;
#139 = AXIS2_PLACEMENT_3D ( 'NONE', #693, #510, #38 ) ;
#140 = DIRECTION ( 'NONE',  ( 0.000000000000000000, 0.000000000000000000, -1.000000000000000000 ) ) ;
#141 = CARTESIAN_POINT ( 'NONE',  ( 4.099999999999999645, -14.00000000000000000, -3.000000000000000000 ) ) ;
#142 = CARTESIAN_POINT ( 'NONE',  ( 0.000000000000000000, 21.50000000000007105, -25.00000000000000000 ) ) ;
#143 = EDGE_CURVE ( 'Кромка6', #645, #701, #831, .T. ) ;
#144 = CARTESIAN_POINT ( 'NONE',  ( 7.500000000000000000, 21.50000000000006750, -25.00000000000000000 ) ) ;
#145 = CARTESIAN_POINT ( 'NONE',  ( -6.599999999999999645, -16.50000000000000000, -3.000000000000000000 ) ) ;
#146 = AXIS2_PLACEMENT_3D ( 'NONE', #744, #305, #818 ) ;
#147 = ORIENTED_EDGE ( 'NONE', *, *, #472, .F. ) ;
#148 = LINE ( 'NONE', #222, #132 ) ;
#149 = DIRECTION ( 'NONE',  ( 0.000000000000000000, -1.000000000000000000, -3.491481338843133355E-15 ) ) ;
#150 = ORIENTED_EDGE ( 'NONE', *, *, #47, .F. ) ;
#151 = COLOUR_RGB ( '',0.4078431372549019551, 0.4196078431372549100, 0.4313725490196078649 ) ;
#152 = CARTESIAN_POINT ( 'NONE',  ( 0.000000000000000000, 21.50000000000002487, -12.39999999999999147 ) ) ;
#153 = VERTEX_POINT ( 'NONE', #436 ) ;
#154 = DIRECTION ( 'NONE',  ( 0.000000000000000000, 0.000000000000000000, -1.000000000000000000 ) ) ;
#155 = PLANE ( 'NONE',  #57 ) ;
#156 = ORIENTED_EDGE ( 'NONE', *, *, #86, .F. ) ;
#157 = SURFACE_STYLE_FILL_AREA ( #541 ) ;
#158 = ORIENTED_EDGE ( 'NONE', *, *, #573, .F. ) ;
#159 = VECTOR ( 'NONE', #161, 1000.000000000000000 ) ;
#160 = MECHANICAL_DESIGN_GEOMETRIC_PRESENTATION_REPRESENTATION (  '', ( #50 ), #488 ) ;
#161 = DIRECTION ( 'NONE',  ( 0.000000000000000000, 0.000000000000000000, 1.000000000000000000 ) ) ;
#162 = CARTESIAN_POINT ( 'NONE',  ( 6.599999999999999645, 21.50000000000000000, -4.999999999999982236 ) ) ;
#163 = ORIENTED_EDGE ( 'NONE', *, *, #181, .T. ) ;
#164 = ORIENTED_EDGE ( 'NONE', *, *, #739, .T. ) ;
#165 = LINE ( 'NONE', #354, #454 ) ;
#166 =( GEOMETRIC_REPRESENTATION_CONTEXT ( 3 ) GLOBAL_UNCERTAINTY_ASSIGNED_CONTEXT ( ( #552 ) ) GLOBAL_UNIT_ASSIGNED_CONTEXT ( ( #506, #704, #758 ) ) REPRESENTATION_CONTEXT ( 'NONE', 'WORKASPACE' ) );
#167 = ORIENTED_EDGE ( 'NONE', *, *, #371, .F. ) ;
#168 = ADVANCED_FACE ( 'NONE', ( #234 ), #441, .T. ) ;
#169 = ORIENTED_EDGE ( 'NONE', *, *, #592, .F. ) ;
#170 = CARTESIAN_POINT ( 'NONE',  ( 6.599999999999999645, -16.50000000000000000, -3.000000000000000000 ) ) ;
#171 = SURFACE_SIDE_STYLE ('',( #426 ) ) ;
#172 = EDGE_LOOP ( 'NONE', ( #115, #660, #838, #518 ) ) ;
#173 = ORIENTED_EDGE ( 'NONE', *, *, #192, .F. ) ;
#174 = EDGE_CURVE ( 'NONE', #153, #642, #248, .T. ) ;
#175 = VECTOR ( 'NONE', #380, 1000.000000000000000 ) ;
#176 = LINE ( 'NONE', #809, #748 ) ;
#177 = AXIS2_PLACEMENT_3D ( 'NONE', #784, #467, #473 ) ;
#178 = ORIENTED_EDGE ( 'NONE', *, *, #772, .T. ) ;
#179 = ORIENTED_EDGE ( 'NONE', *, *, #47, .T. ) ;
#180 = DIRECTION ( 'NONE',  ( 1.000000000000000000, 0.000000000000000000, 0.000000000000000000 ) ) ;
#181 = EDGE_CURVE ( 'NONE', #389, #629, #698, .T. ) ;
#182 = AXIS2_PLACEMENT_3D ( 'NONE', #76, #284, #798 ) ;
#183 = ORIENTED_EDGE ( 'NONE', *, *, #130, .F. ) ;
#184 = DIRECTION ( 'NONE',  ( -0.000000000000000000, -3.469446951953612611E-15, 1.000000000000000000 ) ) ;
#185 = CARTESIAN_POINT ( 'NONE',  ( 4.099999999999999645, -16.50000000000000000, -3.000000000000000000 ) ) ;
#186 = EDGE_LOOP ( 'NONE', ( #835, #42, #178, #249 ) ) ;
#187 = ORIENTED_EDGE ( 'NONE', *, *, #68, .F. ) ;
#188 = DIRECTION ( 'NONE',  ( 0.000000000000000000, -3.391901413832836801E-15, 1.000000000000000000 ) ) ;
#189 = AXIS2_PLACEMENT_3D ( 'NONE', #227, #604, #407 ) ;
#190 = ORIENTED_EDGE ( 'NONE', *, *, #801, .F. ) ;
#191 = ADVANCED_BREP_SHAPE_REPRESENTATION ( 'A782 SNSS.30.047 \X2\041a04400435043f043b0435043d04380435\X0\ \X2\0434043b044f\X0\ \X2\04410442043e043b0430\X0\, 30 \X2\0441043504400438044f\X0\', ( #216, #770 ), #127 ) ;
#192 = EDGE_CURVE ( 'NONE', #645, #389, #824, .T. ) ;
#193 = DIRECTION ( 'NONE',  ( -0.000000000000000000, -1.000000000000000000, -3.469446951953612611E-15 ) ) ;
#194 = DIRECTION ( 'NONE',  ( -1.000000000000000000, -0.000000000000000000, -0.000000000000000000 ) ) ;
#195 = CARTESIAN_POINT ( 'NONE',  ( -4.999999999999999112, 21.50000000000006395, -22.50000000000000711 ) ) ;
#196 = CARTESIAN_POINT ( 'NONE',  ( 3.184081677783119670E-16, 18.50000000000004619, -17.60000000000000497 ) ) ;
#197 = AXIS2_PLACEMENT_3D ( 'NONE', #535, #388, #522 ) ;
#198 = CARTESIAN_POINT ( 'NONE',  ( 4.999999999999999112, 21.50000000000006750, -25.00000000000000000 ) ) ;
#199 = ADVANCED_FACE ( 'Грань5', ( #571 ), #828, .F. ) ;
#200 = FACE_OUTER_BOUND ( 'NONE', #465, .T. ) ;
#201 = ORIENTED_EDGE ( 'NONE', *, *, #321, .F. ) ;
#202 = DIRECTION ( 'NONE',  ( 0.000000000000000000, 1.000000000000000000, 3.469446951953612611E-15 ) ) ;
#203 = DIRECTION ( 'NONE',  ( 0.000000000000000000, -1.000000000000000000, -3.391901413832836801E-15 ) ) ;
#204 = DIRECTION ( 'NONE',  ( 0.000000000000000000, -0.000000000000000000, -1.000000000000000000 ) ) ;
#205 = CIRCLE ( 'NONE', #617, 2.000000000000001776 ) ;
#206 = AXIS2_PLACEMENT_3D ( 'NONE', #444, #194, #769 ) ;
#207 =( NAMED_UNIT ( * ) SI_UNIT ( $, .STERADIAN. ) SOLID_ANGLE_UNIT ( ) );
#208 = LINE ( 'NONE', #75, #17 ) ;
#209 = EDGE_CURVE ( 'NONE', #701, #807, #302, .T. ) ;
#210 = CIRCLE ( 'NONE', #97, 2.499999999999998668 ) ;
#211 = VECTOR ( 'NONE', #336, 1000.000000000000000 ) ;
#212 =( LENGTH_UNIT ( ) NAMED_UNIT ( * ) SI_UNIT ( .MILLI., .METRE. ) );
#213 = CARTESIAN_POINT ( 'NONE',  ( -6.599999999999999645, -14.00000000000000000, -3.000000000000000000 ) ) ;
#214 = SURFACE_STYLE_USAGE ( .BOTH. , #218 ) ;
#215 = ORIENTED_EDGE ( 'NONE', *, *, #356, .T. ) ;
#216 = MANIFOLD_SOLID_BREP ( 'Грань13', #582 ) ;
#217 = CARTESIAN_POINT ( 'NONE',  ( 6.599999999999999645, 16.50000000000000000, -4.999999999999999112 ) ) ;
#218 = SURFACE_SIDE_STYLE ('',( #81 ) ) ;
#219 = AXIS2_PLACEMENT_3D ( 'NONE', #830, #779, #654 ) ;
#220 = ADVANCED_FACE ( 'NONE', ( #446 ), #749, .T. ) ;
#221 = ORIENTED_EDGE ( 'NONE', *, *, #125, .T. ) ;
#222 = CARTESIAN_POINT ( 'NONE',  ( -6.599999999999999645, -16.50000000000000000, 0.000000000000000000 ) ) ;
#223 = DIRECTION ( 'NONE',  ( 0.000000000000000000, -1.000000000000000000, 0.000000000000000000 ) ) ;
#224 = ORIENTED_EDGE ( 'NONE', *, *, #209, .F. ) ;
#225 = ADVANCED_FACE ( 'NONE', ( #432 ), #372, .T. ) ;
#226 = CIRCLE ( 'NONE', #811, 5.000000000000002665 ) ;
#227 = CARTESIAN_POINT ( 'NONE',  ( 0.000000000000000000, -3.500000000001312284, -3.000000000000000000 ) ) ;
#228 = DIRECTION ( 'NONE',  ( 0.000000000000000000, 1.000000000000000000, 3.469446951953611033E-15 ) ) ;
#229 = DIRECTION ( 'NONE',  ( -0.000000000000000000, -0.000000000000000000, 1.000000000000000000 ) ) ;
#230 = COLOUR_RGB ( '',0.4078431372549019551, 0.4196078431372549100, 0.4313725490196078649 ) ;
#231 = EDGE_LOOP ( 'NONE', ( #572, #694, #136, #843 ) ) ;
#232 = FACE_OUTER_BOUND ( 'NONE', #686, .T. ) ;
#233 = EDGE_CURVE ( 'NONE', #365, #480, #123, .T. ) ;
#234 = FACE_OUTER_BOUND ( 'NONE', #23, .T. ) ;
#235 = CIRCLE ( 'NONE', #763, 2.500000000000000000 ) ;
#236 = ORIENTED_EDGE ( 'NONE', *, *, #411, .F. ) ;
#237 = DIRECTION ( 'NONE',  ( -0.000000000000000000, -1.000000000000000000, -3.391901413832836801E-15 ) ) ;
#238 = VERTEX_POINT ( 'NONE', #121 ) ;
#239 = ORIENTED_EDGE ( 'NONE', *, *, #560, .F. ) ;
#240 = LINE ( 'NONE', #625, #550 ) ;
#241 = PRESENTATION_LAYER_ASSIGNMENT (  '', '', ( #299 ) ) ;
#242 = CARTESIAN_POINT ( 'NONE',  ( -4.099999999999999645, -14.00000000000000000, -3.000000000000000000 ) ) ;
#243 = AXIS2_PLACEMENT_3D ( 'NONE', #413, #609, #149 ) ;
#244 = EDGE_LOOP ( 'NONE', ( #424, #781, #735, #502 ) ) ;
#245 = EDGE_CURVE ( 'Кромка11', #427, #785, #742, .T. ) ;
#246 = EDGE_LOOP ( 'NONE', ( #270, #852, #536, #768 ) ) ;
#247 = LINE ( 'NONE', #96, #647 ) ;
#248 = LINE ( 'NONE', #254, #688 ) ;
#249 = ORIENTED_EDGE ( 'NONE', *, *, #840, .F. ) ;
#250 = VERTEX_POINT ( 'NONE', #771 ) ;
#251 = ADVANCED_FACE ( 'NONE', ( #727 ), #587, .T. ) ;
#252 = CIRCLE ( 'NONE', #468, 2.499999999999998668 ) ;
#253 = FACE_OUTER_BOUND ( 'NONE', #558, .T. ) ;
#254 = CARTESIAN_POINT ( 'NONE',  ( -7.500000000000000000, 21.50000000000000000, -5.499999999999982236 ) ) ;
#255 = ORIENTED_EDGE ( 'NONE', *, *, #143, .F. ) ;
#256 = PRODUCT_CONTEXT ( 'NONE', #544, 'mechanical' ) ;
#257 = ORIENTED_EDGE ( 'NONE', *, *, #416, .F. ) ;
#258 = DIRECTION ( 'NONE',  ( 0.000000000000000000, 1.000000000000000000, 3.391901413832836801E-15 ) ) ;
#259 = ORIENTED_EDGE ( 'NONE', *, *, #481, .T. ) ;
#260 = VERTEX_POINT ( 'NONE', #656 ) ;
#261 = DIRECTION ( 'NONE',  ( -0.000000000000000000, 0.000000000000000000, 1.000000000000000000 ) ) ;
#262 = DIRECTION ( 'NONE',  ( 0.000000000000000000, 1.000000000000000000, 3.469446951953612611E-15 ) ) ;
#263 = EDGE_CURVE ( 'NONE', #754, #645, #720, .T. ) ;
#264 = ORIENTED_EDGE ( 'NONE', *, *, #825, .F. ) ;
#265 = FACE_OUTER_BOUND ( 'NONE', #484, .T. ) ;
#266 = VECTOR ( 'NONE', #78, 1000.000000000000000 ) ;
#267 = DIRECTION ( 'NONE',  ( 1.000000000000000000, 0.000000000000000000, 0.000000000000000000 ) ) ;
#268 = ORIENTED_EDGE ( 'NONE', *, *, #661, .F. ) ;
#269 = DIRECTION ( 'NONE',  ( -1.000000000000000000, 0.000000000000000000, -0.000000000000000000 ) ) ;
#270 = ORIENTED_EDGE ( 'NONE', *, *, #434, .F. ) ;
#271 = VECTOR ( 'NONE', #237, 1000.000000000000000 ) ;
#272 = EDGE_CURVE ( 'NONE', #250, #56, #525, .T. ) ;
#273 = DIRECTION ( 'NONE',  ( -1.000000000000000000, 0.000000000000000000, 0.000000000000000000 ) ) ;
#274 = CARTESIAN_POINT ( 'NONE',  ( 6.999999999999999112, 18.50000000000000355, -5.499999999999992895 ) ) ;
#275 = ORIENTED_EDGE ( 'NONE', *, *, #346, .T. ) ;
#276 = LINE ( 'NONE', #530, #266 ) ;
#277 = EDGE_CURVE ( 'NONE', #556, #428, #252, .T. ) ;
#278 = FACE_OUTER_BOUND ( 'NONE', #186, .T. ) ;
#279 = LINE ( 'NONE', #740, #817 ) ;
#280 = CARTESIAN_POINT ( 'NONE',  ( 0.000000000000000000, 18.50000000000003553, -15.00000000000000355 ) ) ;
#281 = AXIS2_PLACEMENT_3D ( 'NONE', #711, #650, #55 ) ;
#282 = DIRECTION ( 'NONE',  ( 0.000000000000000000, 1.000000000000000000, 0.000000000000000000 ) ) ;
#283 = DIRECTION ( 'NONE',  ( 0.000000000000000000, 0.000000000000000000, -1.000000000000000000 ) ) ;
#284 = DIRECTION ( 'NONE',  ( -0.000000000000000000, -0.000000000000000000, 1.000000000000000000 ) ) ;
#285 = AXIS2_PLACEMENT_3D ( 'NONE', #106, #626, #500 ) ;
#286 = ORIENTED_EDGE ( 'NONE', *, *, #233, .F. ) ;
#287 = CARTESIAN_POINT ( 'NONE',  ( -6.599999999999999645, -16.50000000000000000, -3.000000000000000000 ) ) ;
#288 = FACE_OUTER_BOUND ( 'NONE', #526, .T. ) ;
#289 = PRODUCT_DEFINITION_CONTEXT ( 'detailed design', #600, 'design' ) ;
#290 = VERTEX_POINT ( 'NONE', #185 ) ;
#291 = PLANE ( 'NONE',  #538 ) ;
#292 = CARTESIAN_POINT ( 'NONE',  ( 6.599999999999999645, -14.00000000000000000, -3.000000000000000000 ) ) ;
#293 = EDGE_CURVE ( 'Кромка15', #599, #533, #344, .T. ) ;
#294 = AXIS2_PLACEMENT_3D ( 'NONE', #842, #332, #591 ) ;
#295 = VECTOR ( 'NONE', #184, 1000.000000000000000 ) ;
#296 = CARTESIAN_POINT ( 'NONE',  ( 4.999999999999999112, 21.50000000000005684, -22.50000000000000355 ) ) ;
#297 = LINE ( 'NONE', #425, #159 ) ;
#298 = PLANE ( 'NONE',  #243 ) ;
#299 = STYLED_ITEM ( 'NONE', ( #368 ), #216 ) ;
#300 = EDGE_CURVE ( 'NONE', #754, #153, #64, .T. ) ;
#301 = VECTOR ( 'NONE', #574, 1000.000000000000000 ) ;
#302 = LINE ( 'NONE', #34, #796 ) ;
#303 = PRESENTATION_LAYER_ASSIGNMENT (  '', '', ( #585 ) ) ;
#304 =( NAMED_UNIT ( * ) PLANE_ANGLE_UNIT ( ) SI_UNIT ( $, .RADIAN. ) );
#305 = DIRECTION ( 'NONE',  ( 1.000000000000000000, 0.000000000000000000, 0.000000000000000000 ) ) ;
#306 = CARTESIAN_POINT ( 'NONE',  ( 7.500000000000000000, 18.50000000000000355, -5.499999999999992895 ) ) ;
#307 = VERTEX_POINT ( 'NONE', #323 ) ;
#308 = AXIS2_PLACEMENT_3D ( 'NONE', #101, #509, #105 ) ;
#309 = CARTESIAN_POINT ( 'NONE',  ( -4.999999999999999112, 18.50000000000006750, -25.00000000000001066 ) ) ;
#310 = DIRECTION ( 'NONE',  ( -0.000000000000000000, 0.000000000000000000, 1.000000000000000000 ) ) ;
#311 = VERTEX_POINT ( 'NONE', #583 ) ;
#312 = ORIENTED_EDGE ( 'NONE', *, *, #233, .T. ) ;
#313 = EDGE_LOOP ( 'NONE', ( #607, #286, #443, #156 ) ) ;
#314 = CARTESIAN_POINT ( 'NONE',  ( -6.999999999999999112, 21.50000000000000000, -4.999999999999982236 ) ) ;
#315 = FILL_AREA_STYLE_COLOUR ( '', #151 ) ;
#316 = ORIENTED_EDGE ( 'NONE', *, *, #143, .T. ) ;
#317 = VECTOR ( 'NONE', #611, 1000.000000000000000 ) ;
#318 = CARTESIAN_POINT ( 'NONE',  ( -7.500000000000000000, 18.50000000000000355, -4.999999999999992006 ) ) ;
#319 = ORIENTED_EDGE ( 'NONE', *, *, #394, .F. ) ;
#320 = EDGE_LOOP ( 'NONE', ( #163, #51, #653, #491 ) ) ;
#321 = EDGE_CURVE ( 'Кромка11', #785, #427, #438, .T. ) ;
#322 = CARTESIAN_POINT ( 'NONE',  ( 6.999999999999999112, 21.50000000000000355, -4.999999999999982236 ) ) ;
#323 = CARTESIAN_POINT ( 'NONE',  ( -6.599999999999999645, 16.50000000000000000, -2.999999999999997335 ) ) ;
#324 = VECTOR ( 'NONE', #640, 1000.000000000000000 ) ;
#325 = AXIS2_PLACEMENT_3D ( 'NONE', #73, #340, #386 ) ;
#326 = ORIENTED_EDGE ( 'NONE', *, *, #521, .F. ) ;
#327 = CYLINDRICAL_SURFACE ( 'NONE', #605, 3.100000000000000089 ) ;
#328 = ADVANCED_FACE ( 'Грань3', ( #89, #343 ), #291, .F. ) ;
#329 = ORIENTED_EDGE ( 'NONE', *, *, #391, .T. ) ;
#330 = CARTESIAN_POINT ( 'NONE',  ( -4.099999999999999645, -14.00000000000000000, -3.000000000000000000 ) ) ;
#331 = AXIS2_PLACEMENT_3D ( 'NONE', #113, #708, #715 ) ;
#332 = DIRECTION ( 'NONE',  ( 0.000000000000000000, 0.000000000000000000, 1.000000000000000000 ) ) ;
#333 = VERTEX_POINT ( 'NONE', #339 ) ;
#334 = ADVANCED_FACE ( 'NONE', ( #470 ), #84, .T. ) ;
#335 = FACE_OUTER_BOUND ( 'NONE', #674, .T. ) ;
#336 = DIRECTION ( 'NONE',  ( -0.000000000000000000, -0.000000000000000000, 1.000000000000000000 ) ) ;
#337 = LINE ( 'NONE', #667, #764 ) ;
#338 = MECHANICAL_DESIGN_GEOMETRIC_PRESENTATION_REPRESENTATION (  '', ( #585 ), #474 ) ;
#339 = CARTESIAN_POINT ( 'NONE',  ( 4.999999999999999112, 18.50000000000006750, -25.00000000000001066 ) ) ;
#340 = DIRECTION ( 'NONE',  ( 0.000000000000000000, 1.000000000000000000, 3.469446951953611033E-15 ) ) ;
#341 = DIRECTION ( 'NONE',  ( -0.000000000000000000, -0.000000000000000000, 1.000000000000000000 ) ) ;
#342 = FILL_AREA_STYLE_COLOUR ( '', #791 ) ;
#343 = FACE_OUTER_BOUND ( 'NONE', #13, .T. ) ;
#344 = CIRCLE ( 'NONE', #658, 2.600000000000001421 ) ;
#345 = VECTOR ( 'NONE', #282, 1000.000000000000000 ) ;
#346 = EDGE_CURVE ( 'NONE', #503, #556, #14, .T. ) ;
#347 = DIRECTION ( 'NONE',  ( 0.000000000000000000, 0.000000000000000000, -1.000000000000000000 ) ) ;
#348 = VERTEX_POINT ( 'NONE', #608 ) ;
#349 = CARTESIAN_POINT ( 'NONE',  ( -6.599999999999999645, 21.50000000000000000, -4.999999999999982236 ) ) ;
#350 = LINE ( 'NONE', #145, #402 ) ;
#351 = UNCERTAINTY_MEASURE_WITH_UNIT (LENGTH_MEASURE( 1.000000000000000082E-05 ), #398, 'distance_accuracy_value', 'NONE');
#352 = ORIENTED_EDGE ( 'NONE', *, *, #515, .T. ) ;
#353 = CARTESIAN_POINT ( 'NONE',  ( 6.999999999999999112, 21.50000000000000355, -5.499999999999982236 ) ) ;
#354 = CARTESIAN_POINT ( 'NONE',  ( 6.599999999999999645, 16.50000000000000000, -3.000000000000000000 ) ) ;
#355 = DIRECTION ( 'NONE',  ( -0.000000000000000000, -0.000000000000000000, 1.000000000000000000 ) ) ;
#356 = EDGE_CURVE ( 'Кромка12', #707, #370, #495, .T. ) ;
#357 = VECTOR ( 'NONE', #475, 1000.000000000000000 ) ;
#358 = VERTEX_POINT ( 'NONE', #9 ) ;
#359 = FACE_OUTER_BOUND ( 'NONE', #567, .T. ) ;
#360 =( LENGTH_UNIT ( ) NAMED_UNIT ( * ) SI_UNIT ( .MILLI., .METRE. ) );
#361 = DIRECTION ( 'NONE',  ( -0.000000000000000000, 1.000000000000000000, 3.469446951953611033E-15 ) ) ;
#362 = VERTEX_POINT ( 'NONE', #542 ) ;
#363 = PLANE ( 'NONE',  #308 ) ;
#364 = LINE ( 'NONE', #306, #271 ) ;
#365 = VERTEX_POINT ( 'NONE', #615 ) ;
#366 = SHAPE_DEFINITION_REPRESENTATION ( #24, #191 ) ;
#367 = DIRECTION ( 'NONE',  ( 0.000000000000000000, 0.000000000000000000, 1.000000000000000000 ) ) ;
#368 = PRESENTATION_STYLE_ASSIGNMENT (( #753 ) ) ;
#369 = VERTEX_POINT ( 'NONE', #730 ) ;
#370 = VERTEX_POINT ( 'NONE', #6 ) ;
#371 = EDGE_CURVE ( 'NONE', #701, #98, #205, .T. ) ;
#372 = CYLINDRICAL_SURFACE ( 'NONE', #569, 2.500000000000000444 ) ;
#373 = EDGE_LOOP ( 'NONE', ( #167, #462, #312, #326 ) ) ;
#374 = LINE ( 'NONE', #516, #603 ) ;
#375 = AXIS2_PLACEMENT_3D ( 'NONE', #274, #203, #385 ) ;
#376 = DIRECTION ( 'NONE',  ( 0.000000000000000000, 1.000000000000000000, 3.391901413832836801E-15 ) ) ;
#377 = EDGE_CURVE ( 'NONE', #100, #290, #235, .T. ) ;
#378 = ORIENTED_EDGE ( 'NONE', *, *, #636, .F. ) ;
#379 = DIRECTION ( 'NONE',  ( 0.000000000000000000, 0.000000000000000000, -1.000000000000000000 ) ) ;
#380 = DIRECTION ( 'NONE',  ( -0.000000000000000000, 3.469446951953612611E-15, -1.000000000000000000 ) ) ;
#381 = ORIENTED_EDGE ( 'NONE', *, *, #411, .T. ) ;
#382 = ORIENTED_EDGE ( 'NONE', *, *, #696, .T. ) ;
#383 = AXIS2_PLACEMENT_3D ( 'NONE', #616, #228, #20 ) ;
#384 = LINE ( 'NONE', #649, #805 ) ;
#385 = DIRECTION ( 'NONE',  ( 0.000000000000000000, 0.000000000000000000, -1.000000000000000000 ) ) ;
#386 = DIRECTION ( 'NONE',  ( 0.000000000000000000, -4.003208021484936961E-15, 1.000000000000000000 ) ) ;
#387 = DIRECTION ( 'NONE',  ( 0.000000000000000000, 1.000000000000000000, 3.469446951953611033E-15 ) ) ;
#388 = DIRECTION ( 'NONE',  ( 0.000000000000000000, 0.000000000000000000, 1.000000000000000000 ) ) ;
#389 = VERTEX_POINT ( 'NONE', #349 ) ;
#390 = CARTESIAN_POINT ( 'NONE',  ( 4.999999999999999112, 21.50000000000007105, -25.00000000000000000 ) ) ;
#391 = EDGE_CURVE ( 'NONE', #311, #392, #713, .T. ) ;
#392 = VERTEX_POINT ( 'NONE', #399 ) ;
#393 = AXIS2_PLACEMENT_3D ( 'NONE', #144, #19, #554 ) ;
#394 = EDGE_CURVE ( 'NONE', #580, #260, #598, .T. ) ;
#395 = CIRCLE ( 'NONE', #18, 0.5000000000000004441 ) ;
#396 = EDGE_LOOP ( 'NONE', ( #728, #614, #575, #743 ) ) ;
#397 = DIRECTION ( 'NONE',  ( 1.000000000000000000, 0.000000000000000000, 0.000000000000000000 ) ) ;
#398 =( LENGTH_UNIT ( ) NAMED_UNIT ( * ) SI_UNIT ( .MILLI., .METRE. ) );
#399 = CARTESIAN_POINT ( 'NONE',  ( 7.500000000000000000, 21.50000000000000355, -5.499999999999982236 ) ) ;
#400 = ORIENTED_EDGE ( 'NONE', *, *, #577, .F. ) ;
#401 = AXIS2_PLACEMENT_3D ( 'NONE', #618, #7, #546 ) ;
#402 = VECTOR ( 'NONE', #606, 1000.000000000000000 ) ;
#403 = CYLINDRICAL_SURFACE ( 'NONE', #422, 3.100000000000000089 ) ;
#404 = DIRECTION ( 'NONE',  ( 0.000000000000000000, 1.000000000000000000, 0.000000000000000000 ) ) ;
#405 = DIRECTION ( 'NONE',  ( -1.000000000000000000, 0.000000000000000000, 0.000000000000000000 ) ) ;
#406 = ADVANCED_FACE ( 'Грань6', ( #732 ), #793, .F. ) ;
#407 = DIRECTION ( 'NONE',  ( 1.000000000000000000, 0.000000000000000000, 0.000000000000000000 ) ) ;
#408 = AXIS2_PLACEMENT_3D ( 'NONE', #296, #135, #663 ) ;
#409 = DIRECTION ( 'NONE',  ( -1.000000000000000000, -0.000000000000000000, -0.000000000000000000 ) ) ;
#410 = EDGE_LOOP ( 'NONE', ( #756, #183, #774, #268 ) ) ;
#411 = EDGE_CURVE ( 'Кромка9', #83, #260, #279, .T. ) ;
#412 = LINE ( 'NONE', #545, #31 ) ;
#413 = CARTESIAN_POINT ( 'NONE',  ( -7.500000000000000000, 21.50000000000006750, -25.00000000000000000 ) ) ;
#414 = ORIENTED_EDGE ( 'NONE', *, *, #485, .T. ) ;
#415 = DIRECTION ( 'NONE',  ( 0.000000000000000000, 0.000000000000000000, -1.000000000000000000 ) ) ;
#416 = EDGE_CURVE ( 'NONE', #307, #580, #80, .T. ) ;
#417 = DIRECTION ( 'NONE',  ( -1.000000000000000000, 6.938893903907228378E-16, 0.000000000000000000 ) ) ;
#418 = ORIENTED_EDGE ( 'NONE', *, *, #421, .T. ) ;
#419 = DIRECTION ( 'NONE',  ( 0.000000000000000000, 0.000000000000000000, -1.000000000000000000 ) ) ;
#420 = DIRECTION ( 'NONE',  ( 0.000000000000000000, 1.000000000000000000, 3.469446951953612611E-15 ) ) ;
#421 = EDGE_CURVE ( 'NONE', #311, #365, #412, .T. ) ;
#422 = AXIS2_PLACEMENT_3D ( 'NONE', #666, #341, #601 ) ;
#423 =( NAMED_UNIT ( * ) SI_UNIT ( $, .STERADIAN. ) SOLID_ANGLE_UNIT ( ) );
#424 = ORIENTED_EDGE ( 'NONE', *, *, #723, .T. ) ;
#425 = CARTESIAN_POINT ( 'NONE',  ( -6.599999999999999645, 16.50000000000000000, -3.000000000000000000 ) ) ;
#426 = SURFACE_STYLE_FILL_AREA ( #517 ) ;
#427 = VERTEX_POINT ( 'NONE', #478 ) ;
#428 = VERTEX_POINT ( 'NONE', #2 ) ;
#429 = MECHANICAL_DESIGN_GEOMETRIC_PRESENTATION_REPRESENTATION (  '', ( #299 ), #166 ) ;
#430 =( GEOMETRIC_REPRESENTATION_CONTEXT ( 3 ) GLOBAL_UNCERTAINTY_ASSIGNED_CONTEXT ( ( #802 ) ) GLOBAL_UNIT_ASSIGNED_CONTEXT ( ( #360, #681, #12 ) ) REPRESENTATION_CONTEXT ( 'NONE', 'WORKASPACE' ) );
#431 = DIRECTION ( 'NONE',  ( 0.000000000000000000, 3.469446951953612611E-15, -1.000000000000000000 ) ) ;
#432 = FACE_OUTER_BOUND ( 'NONE', #231, .T. ) ;
#433 = ORIENTED_EDGE ( 'NONE', *, *, #209, .T. ) ;
#434 = EDGE_CURVE ( 'Кромка10', #358, #480, #208, .T. ) ;
#435 = PLANE ( 'NONE',  #847 ) ;
#436 = CARTESIAN_POINT ( 'NONE',  ( -7.500000000000000000, 18.50000000000000000, -5.499999999999992895 ) ) ;
#437 = ORIENTED_EDGE ( 'NONE', *, *, #68, .T. ) ;
#438 = CIRCLE ( 'NONE', #294, 3.100000000000000089 ) ;
#439 = EDGE_CURVE ( 'Кромка8', #480, #83, #668, .T. ) ;
#440 = CARTESIAN_POINT ( 'NONE',  ( -7.500000000000000000, 21.49999999999999289, -2.999999999999987121 ) ) ;
#441 = CYLINDRICAL_SURFACE ( 'NONE', #519, 2.500000000000000000 ) ;
#442 = ORIENTED_EDGE ( 'NONE', *, *, #685, .T. ) ;
#443 = ORIENTED_EDGE ( 'NONE', *, *, #137, .F. ) ;
#444 = CARTESIAN_POINT ( 'NONE',  ( -6.599999999999999645, 16.50000000000000000, -4.999999999999999112 ) ) ;
#445 = AXIS2_PLACEMENT_3D ( 'NONE', #731, #229, #417 ) ;
#446 = FACE_OUTER_BOUND ( 'NONE', #773, .T. ) ;
#447 = EDGE_CURVE ( 'NONE', #369, #362, #148, .T. ) ;
#448 = EDGE_LOOP ( 'NONE', ( #239, #8, #834, #738 ) ) ;
#449 = VECTOR ( 'NONE', #792, 1000.000000000000000 ) ;
#450 = VERTEX_POINT ( 'NONE', #152 ) ;
#451 = CARTESIAN_POINT ( 'NONE',  ( -7.500000000000000000, 21.49999999999998579, 6.772031872376397107E-14 ) ) ;
#452 = CARTESIAN_POINT ( 'NONE',  ( 0.000000000000000000, 18.50000000000003553, -15.00000000000000355 ) ) ;
#453 = ORIENTED_EDGE ( 'NONE', *, *, #421, .F. ) ;
#454 = VECTOR ( 'NONE', #367, 1000.000000000000000 ) ;
#455 = AXIS2_PLACEMENT_3D ( 'NONE', #4, #273, #66 ) ;
#456 = FACE_OUTER_BOUND ( 'NONE', #396, .T. ) ;
#457 = VERTEX_POINT ( 'NONE', #670 ) ;
#458 = CARTESIAN_POINT ( 'NONE',  ( 6.599999999999999645, 16.50000000000000000, -4.999999999999999112 ) ) ;
#459 = DIRECTION ( 'NONE',  ( 1.000000000000000000, 0.000000000000000000, 0.000000000000000000 ) ) ;
#460 = VECTOR ( 'NONE', #565, 1000.000000000000000 ) ;
#461 = CIRCLE ( 'NONE', #325, 2.600000000000001421 ) ;
#462 = ORIENTED_EDGE ( 'NONE', *, *, #745, .T. ) ;
#463 = EDGE_CURVE ( 'Кромка19', #428, #457, #276, .T. ) ;
#464 = CARTESIAN_POINT ( 'NONE',  ( -6.599999999999999645, 18.50000000000000355, -4.999999999999992006 ) ) ;
#465 = EDGE_LOOP ( 'NONE', ( #190, #529, #187, #442, #257, #158 ) ) ;
#466 = DIRECTION ( 'NONE',  ( 0.000000000000000000, -1.000000000000000000, -3.491481338843133355E-15 ) ) ;
#467 = DIRECTION ( 'NONE',  ( 0.000000000000000000, 1.000000000000000000, 3.469446951953611033E-15 ) ) ;
#468 = AXIS2_PLACEMENT_3D ( 'NONE', #195, #262, #644 ) ;
#469 = ORIENTED_EDGE ( 'NONE', *, *, #481, .F. ) ;
#470 = FACE_OUTER_BOUND ( 'NONE', #803, .T. ) ;
#471 = DIRECTION ( 'NONE',  ( -0.000000000000000000, 1.000000000000000000, 3.469446951953611033E-15 ) ) ;
#472 = EDGE_CURVE ( 'NONE', #333, #56, #118, .T. ) ;
#473 = DIRECTION ( 'NONE',  ( 0.000000000000000000, -4.003208021484936961E-15, 1.000000000000000000 ) ) ;
#474 =( GEOMETRIC_REPRESENTATION_CONTEXT ( 3 ) GLOBAL_UNCERTAINTY_ASSIGNED_CONTEXT ( ( #734 ) ) GLOBAL_UNIT_ASSIGNED_CONTEXT ( ( #99, #116, #695 ) ) REPRESENTATION_CONTEXT ( 'NONE', 'WORKASPACE' ) );
#475 = DIRECTION ( 'NONE',  ( 0.000000000000000000, 0.000000000000000000, 1.000000000000000000 ) ) ;
#476 = FILL_AREA_STYLE_COLOUR ( '', #755 ) ;
#477 = ORIENTED_EDGE ( 'NONE', *, *, #245, .F. ) ;
#478 = CARTESIAN_POINT ( 'NONE',  ( -3.100000000000000089, -3.500000000001311840, 0.000000000000000000 ) ) ;
#479 = AXIS2_PLACEMENT_3D ( 'NONE', #318, #188, #767 ) ;
#480 = VERTEX_POINT ( 'NONE', #717 ) ;
#481 = EDGE_CURVE ( 'Кромка17', #633, #333, #60, .T. ) ;
#482 = DIRECTION ( 'NONE',  ( 1.000000000000000000, 0.000000000000000000, 0.000000000000000000 ) ) ;
#483 = DIRECTION ( 'NONE',  ( 0.000000000000000000, -0.000000000000000000, -1.000000000000000000 ) ) ;
#484 = EDGE_LOOP ( 'NONE', ( #63, #382, #316, #678 ) ) ;
#485 = EDGE_CURVE ( 'Кромка12', #370, #707, #725, .T. ) ;
#486 = DIRECTION ( 'NONE',  ( 0.000000000000000000, -1.000000000000000000, -3.469446951953612611E-15 ) ) ;
#487 = FACE_OUTER_BOUND ( 'NONE', #313, .T. ) ;
#488 =( GEOMETRIC_REPRESENTATION_CONTEXT ( 3 ) GLOBAL_UNCERTAINTY_ASSIGNED_CONTEXT ( ( #82 ) ) GLOBAL_UNIT_ASSIGNED_CONTEXT ( ( #212, #304, #423 ) ) REPRESENTATION_CONTEXT ( 'NONE', 'WORKASPACE' ) );
#489 = CARTESIAN_POINT ( 'NONE',  ( -3.100000000000000089, -3.500000000001311840, -3.000000000000000000 ) ) ;
#490 = CARTESIAN_POINT ( 'NONE',  ( 3.100000000000000089, -3.500000000001312284, 0.000000000000000000 ) ) ;
#491 = ORIENTED_EDGE ( 'NONE', *, *, #192, .T. ) ;
#492 = PLANE ( 'NONE',  #562 ) ;
#493 = DIRECTION ( 'NONE',  ( 1.000000000000000000, 0.000000000000000000, 0.000000000000000000 ) ) ;
#494 = VECTOR ( 'NONE', #539, 1000.000000000000000 ) ;
#495 = CIRCLE ( 'NONE', #189, 3.100000000000000089 ) ;
#496 = ORIENTED_EDGE ( 'NONE', *, *, #32, .T. ) ;
#497 = FILL_AREA_STYLE_COLOUR ( '', #230 ) ;
#498 = ORIENTED_EDGE ( 'NONE', *, *, #263, .F. ) ;
#499 = CARTESIAN_POINT ( 'NONE',  ( 3.184081677783127065E-16, 18.50000000000004619, -17.60000000000000497 ) ) ;
#500 = DIRECTION ( 'NONE',  ( 0.000000000000000000, -1.000000000000000000, -3.391901413832836801E-15 ) ) ;
#501 = ADVANCED_FACE ( 'Грань11', ( #662 ), #403, .F. ) ;
#502 = ORIENTED_EDGE ( 'NONE', *, *, #463, .T. ) ;
#503 = VERTEX_POINT ( 'NONE', #309 ) ;
#504 = PRESENTATION_LAYER_ASSIGNMENT (  '', '', ( #85 ) ) ;
#505 = DIRECTION ( 'NONE',  ( 0.000000000000000000, 2.775557561562892929E-15, -1.000000000000000000 ) ) ;
#506 =( LENGTH_UNIT ( ) NAMED_UNIT ( * ) SI_UNIT ( .MILLI., .METRE. ) );
#507 = ORIENTED_EDGE ( 'NONE', *, *, #321, .T. ) ;
#508 = EDGE_CURVE ( 'NONE', #457, #503, #683, .T. ) ;
#509 = DIRECTION ( 'NONE',  ( -1.000000000000000000, 0.000000000000000000, -0.000000000000000000 ) ) ;
#510 = DIRECTION ( 'NONE',  ( -1.000000000000000000, 0.000000000000000000, -0.000000000000000000 ) ) ;
#511 = ORIENTED_EDGE ( 'NONE', *, *, #577, .T. ) ;
#512 = VECTOR ( 'NONE', #466, 1000.000000000000000 ) ;
#513 = ORIENTED_EDGE ( 'NONE', *, *, #114, .T. ) ;
#514 = CIRCLE ( 'NONE', #819, 0.5000000000000004441 ) ;
#515 = EDGE_CURVE ( 'Кромка18', #307, #83, #297, .T. ) ;
#516 = CARTESIAN_POINT ( 'NONE',  ( -7.500000000000000000, 18.50000000000006750, -25.00000000000001066 ) ) ;
#517 = FILL_AREA_STYLE ('',( #315 ) ) ;
#518 = ORIENTED_EDGE ( 'NONE', *, *, #592, .T. ) ;
#519 = AXIS2_PLACEMENT_3D ( 'NONE', #242, #44, #493 ) ;
#520 = CARTESIAN_POINT ( 'NONE',  ( 6.599999999999999645, 18.50000000000000355, -4.999999999999992006 ) ) ;
#521 = EDGE_CURVE ( 'Кромка20', #98, #480, #165, .T. ) ;
#522 = DIRECTION ( 'NONE',  ( 1.000000000000000000, 0.000000000000000000, 0.000000000000000000 ) ) ;
#523 = ORIENTED_EDGE ( 'NONE', *, *, #277, .T. ) ;
#524 = CYLINDRICAL_SURFACE ( 'NONE', #331, 0.5000000000000004441 ) ;
#525 = LINE ( 'NONE', #780, #175 ) ;
#526 = EDGE_LOOP ( 'NONE', ( #648, #259, #36, #275 ) ) ;
#527 = VECTOR ( 'NONE', #808, 1000.000000000000000 ) ;
#528 = CYLINDRICAL_SURFACE ( 'NONE', #65, 2.000000000000001776 ) ;
#529 = ORIENTED_EDGE ( 'NONE', *, *, #377, .T. ) ;
#530 = CARTESIAN_POINT ( 'NONE',  ( -7.500000000000000000, 21.50000000000006040, -22.50000000000000711 ) ) ;
#531 = DIRECTION ( 'NONE',  ( 0.000000000000000000, 1.000000000000000000, 3.469446951953611033E-15 ) ) ;
#532 = CARTESIAN_POINT ( 'NONE',  ( 6.599999999999999645, 16.50000000000000000, -4.999999999999999112 ) ) ;
#533 = VERTEX_POINT ( 'NONE', #93 ) ;
#534 = EDGE_CURVE ( 'NONE', #56, #348, #747, .T. ) ;
#535 = CARTESIAN_POINT ( 'NONE',  ( 0.000000000000000000, -3.500000000001312284, 0.000000000000000000 ) ) ;
#536 = ORIENTED_EDGE ( 'NONE', *, *, #801, .T. ) ;
#537 = CYLINDRICAL_SURFACE ( 'NONE', #786, 2.600000000000001421 ) ;
#538 = AXIS2_PLACEMENT_3D ( 'NONE', #799, #486, #675 ) ;
#539 = DIRECTION ( 'NONE',  ( -0.000000000000000000, 1.000000000000000000, 3.491481338843133355E-15 ) ) ;
#540 = DIRECTION ( 'NONE',  ( 0.000000000000000000, 2.775557561562892929E-15, -1.000000000000000000 ) ) ;
#541 = FILL_AREA_STYLE ('',( #342 ) ) ;
#542 = CARTESIAN_POINT ( 'NONE',  ( 4.099999999999999645, -16.50000000000000000, 0.000000000000000000 ) ) ;
#543 = PLANE ( 'NONE',  #401 ) ;
#544 = APPLICATION_CONTEXT ( 'automotive_design' ) ;
#545 = CARTESIAN_POINT ( 'NONE',  ( -7.500000000000000000, 21.50000000000000000, -4.999999999999982236 ) ) ;
#546 = DIRECTION ( 'NONE',  ( 0.000000000000000000, 3.469446951953612611E-15, -1.000000000000000000 ) ) ;
#547 = ADVANCED_FACE ( 'Грань12', ( #630 ), #564, .T. ) ;
#548 = EDGE_LOOP ( 'NONE', ( #437, #584, #59, #511 ) ) ;
#549 = DIRECTION ( 'NONE',  ( 0.000000000000000000, 1.000000000000000000, 3.469446951953612611E-15 ) ) ;
#550 = VECTOR ( 'NONE', #620, 1000.000000000000000 ) ;
#551 = FACE_OUTER_BOUND ( 'NONE', #548, .T. ) ;
#552 = UNCERTAINTY_MEASURE_WITH_UNIT (LENGTH_MEASURE( 1.000000000000000082E-05 ), #506, 'distance_accuracy_value', 'NONE');
#553 = ADVANCED_FACE ( 'Грань1', ( #815, #232 ), #492, .F. ) ;
#554 = DIRECTION ( 'NONE',  ( 0.000000000000000000, 0.000000000000000000, 1.000000000000000000 ) ) ;
#555 = PRESENTATION_STYLE_ASSIGNMENT (( #214 ) ) ;
#556 = VERTEX_POINT ( 'NONE', #37 ) ;
#557 = CARTESIAN_POINT ( 'NONE',  ( 0.000000000000000000, 18.50000000000002842, -12.40000000000000213 ) ) ;
#558 = EDGE_LOOP ( 'NONE', ( #750, #179, #623, #829 ) ) ;
#559 = CYLINDRICAL_SURFACE ( 'NONE', #146, 5.000000000000000888 ) ;
#560 = EDGE_CURVE ( 'NONE', #392, #348, #247, .T. ) ;
#561 = CARTESIAN_POINT ( 'NONE',  ( -7.500000000000000000, 21.50000000000000000, -4.999999999999982236 ) ) ;
#562 = AXIS2_PLACEMENT_3D ( 'NONE', #687, #419, #25 ) ;
#563 = ORIENTED_EDGE ( 'NONE', *, *, #472, .T. ) ;
#564 = PLANE ( 'NONE',  #671 ) ;
#565 = DIRECTION ( 'NONE',  ( -1.000000000000000000, -0.000000000000000000, -0.000000000000000000 ) ) ;
#566 = ADVANCED_FACE ( 'Грань9', ( #359 ), #363, .T. ) ;
#567 = EDGE_LOOP ( 'NONE', ( #173, #129, #352, #28 ) ) ;
#568 = DIRECTION ( 'NONE',  ( 0.000000000000000000, 0.000000000000000000, 1.000000000000000000 ) ) ;
#569 = AXIS2_PLACEMENT_3D ( 'NONE', #631, #310, #579 ) ;
#570 = DIRECTION ( 'NONE',  ( 1.000000000000000000, 0.000000000000000000, 0.000000000000000000 ) ) ;
#571 = FACE_OUTER_BOUND ( 'NONE', #373, .T. ) ;
#572 = ORIENTED_EDGE ( 'NONE', *, *, #377, .F. ) ;
#573 = EDGE_CURVE ( 'Кромка7', #98, #307, #240, .T. ) ;
#574 = DIRECTION ( 'NONE',  ( 1.000000000000000000, 0.000000000000000000, 0.000000000000000000 ) ) ;
#575 = ORIENTED_EDGE ( 'NONE', *, *, #508, .F. ) ;
#576 = AXIS2_PLACEMENT_3D ( 'NONE', #778, #193, #850 ) ;
#577 = EDGE_CURVE ( 'NONE', #369, #238, #176, .T. ) ;
#578 = FACE_BOUND ( 'NONE', #119, .T. ) ;
#579 = DIRECTION ( 'NONE',  ( 1.000000000000000000, 0.000000000000000000, 0.000000000000000000 ) ) ;
#580 = VERTEX_POINT ( 'NONE', #757 ) ;
#581 = DIRECTION ( 'NONE',  ( -1.000000000000000000, 0.000000000000000000, 0.000000000000000000 ) ) ;
#582 = CLOSED_SHELL ( 'NONE', ( #836, #680, #547, #104, #782, #613, #553, #566, #199, #596, #761, #220, #406, #588, #328, #74, #53, #655, #225, #168, #334, #665, #501, #39, #641, #251 ) ) ;
#583 = CARTESIAN_POINT ( 'NONE',  ( 6.999999999999999112, 21.50000000000000000, -4.999999999999982236 ) ) ;
#584 = ORIENTED_EDGE ( 'NONE', *, *, #624, .T. ) ;
#585 = STYLED_ITEM ( 'NONE', ( #46 ), #191 ) ;
#586 = CARTESIAN_POINT ( 'NONE',  ( -3.100000000000000089, -3.500000000001311840, -3.000000000000000000 ) ) ;
#587 = CYLINDRICAL_SURFACE ( 'NONE', #375, 0.5000000000000004441 ) ;
#588 = ADVANCED_FACE ( 'Грань7', ( #682 ), #435, .F. ) ;
#589 = ORIENTED_EDGE ( 'NONE', *, *, #825, .T. ) ;
#590 = LINE ( 'NONE', #848, #295 ) ;
#591 = DIRECTION ( 'NONE',  ( 1.000000000000000000, 0.000000000000000000, 0.000000000000000000 ) ) ;
#592 = EDGE_CURVE ( 'Кромка14', #450, #846, #777, .T. ) ;
#593 = ORIENTED_EDGE ( 'NONE', *, *, #534, .F. ) ;
#594 = CARTESIAN_POINT ( 'NONE',  ( 6.999999999999999112, 18.50000000000000355, -4.999999999999992006 ) ) ;
#595 = CARTESIAN_POINT ( 'NONE',  ( 6.599999999999999645, -14.00000000000000000, -3.000000000000000000 ) ) ;
#596 = ADVANCED_FACE ( 'Грань4', ( #487 ), #559, .T. ) ;
#597 = DIRECTION ( 'NONE',  ( -0.000000000000000000, -1.000000000000000000, -3.391901413832836801E-15 ) ) ;
#598 = LINE ( 'NONE', #213, #357 ) ;
#599 = VERTEX_POINT ( 'NONE', #499 ) ;
#600 = APPLICATION_CONTEXT ( 'automotive_design' ) ;
#601 = DIRECTION ( 'NONE',  ( 1.000000000000000000, 0.000000000000000000, 0.000000000000000000 ) ) ;
#602 = DIRECTION ( 'NONE',  ( 0.000000000000000000, 0.000000000000000000, -1.000000000000000000 ) ) ;
#603 = VECTOR ( 'NONE', #61, 1000.000000000000000 ) ;
#604 = DIRECTION ( 'NONE',  ( 0.000000000000000000, 0.000000000000000000, 1.000000000000000000 ) ) ;
#605 = AXIS2_PLACEMENT_3D ( 'NONE', #839, #844, #180 ) ;
#606 = DIRECTION ( 'NONE',  ( 1.000000000000000000, 0.000000000000000000, 0.000000000000000000 ) ) ;
#607 = ORIENTED_EDGE ( 'NONE', *, *, #439, .F. ) ;
#608 = CARTESIAN_POINT ( 'NONE',  ( 7.500000000000000000, 21.50000000000006395, -22.50000000000000355 ) ) ;
#609 = DIRECTION ( 'NONE',  ( 0.000000000000000000, -3.491481338843133355E-15, 1.000000000000000000 ) ) ;
#610 = VECTOR ( 'NONE', #405, 1000.000000000000000 ) ;
#611 = DIRECTION ( 'NONE',  ( -1.000000000000000000, -0.000000000000000000, -0.000000000000000000 ) ) ;
#612 = LINE ( 'NONE', #489, #10 ) ;
#613 = ADVANCED_FACE ( 'Грань2', ( #578, #200 ), #48, .T. ) ;
#614 = ORIENTED_EDGE ( 'NONE', *, *, #346, .F. ) ;
#615 = CARTESIAN_POINT ( 'NONE',  ( 6.599999999999999645, 21.50000000000000000, -4.999999999999982236 ) ) ;
#616 = CARTESIAN_POINT ( 'NONE',  ( 0.000000000000000000, 21.50000000000003553, -14.99999999999999289 ) ) ;
#617 = AXIS2_PLACEMENT_3D ( 'NONE', #217, #679, #347 ) ;
#618 = CARTESIAN_POINT ( 'NONE',  ( 0.000000000000000000, 18.49999999999998224, 5.724587470723457101E-14 ) ) ;
#619 = EDGE_LOOP ( 'NONE', ( #638, #102, #264, #721 ) ) ;
#620 = DIRECTION ( 'NONE',  ( -1.000000000000000000, -0.000000000000000000, -0.000000000000000000 ) ) ;
#621 = CIRCLE ( 'NONE', #445, 2.500000000000000000 ) ;
#622 = LINE ( 'NONE', #1, #345 ) ;
#623 = ORIENTED_EDGE ( 'NONE', *, *, #245, .T. ) ;
#624 = EDGE_CURVE ( 'NONE', #290, #362, #718, .T. ) ;
#625 = CARTESIAN_POINT ( 'NONE',  ( -6.599999999999999645, 16.50000000000000000, -3.000000000000000000 ) ) ;
#626 = DIRECTION ( 'NONE',  ( 0.000000000000000000, -3.391901413832836801E-15, 1.000000000000000000 ) ) ;
#627 = ORIENTED_EDGE ( 'NONE', *, *, #434, .T. ) ;
#628 = APPLICATION_PROTOCOL_DEFINITION ( 'draft international standard', 'automotive_design', 1998, #544 ) ;
#629 = VERTEX_POINT ( 'NONE', #314 ) ;
#630 = FACE_OUTER_BOUND ( 'NONE', #246, .T. ) ;
#631 = CARTESIAN_POINT ( 'NONE',  ( 4.099999999999999645, -14.00000000000000000, -3.000000000000000000 ) ) ;
#632 = AXIS2_PLACEMENT_3D ( 'NONE', #108, #117, #269 ) ;
#633 = VERTEX_POINT ( 'NONE', #390 ) ;
#634 = CARTESIAN_POINT ( 'NONE',  ( 7.500000000000000000, 21.50000000000005684, -22.50000000000000355 ) ) ;
#635 = CARTESIAN_POINT ( 'NONE',  ( 6.599999999999999645, 18.50000000000000355, -4.999999999999992006 ) ) ;
#636 = EDGE_CURVE ( 'NONE', #333, #503, #374, .T. ) ;
#637 = ORIENTED_EDGE ( 'NONE', *, *, #560, .T. ) ;
#638 = ORIENTED_EDGE ( 'NONE', *, *, #300, .F. ) ;
#639 = FACE_OUTER_BOUND ( 'NONE', #320, .T. ) ;
#640 = DIRECTION ( 'NONE',  ( 0.000000000000000000, 1.000000000000000000, 3.469446951953611033E-15 ) ) ;
#641 = ADVANCED_FACE ( 'NONE', ( #58 ), #524, .T. ) ;
#642 = VERTEX_POINT ( 'NONE', #643 ) ;
#643 = CARTESIAN_POINT ( 'NONE',  ( -7.500000000000000000, 21.50000000000000355, -5.499999999999982236 ) ) ;
#644 = DIRECTION ( 'NONE',  ( 0.000000000000000000, 2.775557561562892929E-15, -1.000000000000000000 ) ) ;
#645 = VERTEX_POINT ( 'NONE', #464 ) ;
#646 = CARTESIAN_POINT ( 'NONE',  ( 0.000000000000000000, 0.000000000000000000, 0.000000000000000000 ) ) ;
#647 = VECTOR ( 'NONE', #431, 1000.000000000000000 ) ;
#648 = ORIENTED_EDGE ( 'NONE', *, *, #114, .F. ) ;
#649 = CARTESIAN_POINT ( 'NONE',  ( 6.599999999999999645, 18.50000000000000355, -4.999999999999992006 ) ) ;
#650 = DIRECTION ( 'NONE',  ( -0.000000000000000000, -1.000000000000000000, -3.469446951953612611E-15 ) ) ;
#651 = ORIENTED_EDGE ( 'NONE', *, *, #814, .T. ) ;
#652 = CARTESIAN_POINT ( 'NONE',  ( -6.999999999999999112, 18.50000000000000355, -4.999999999999992006 ) ) ;
#653 = ORIENTED_EDGE ( 'NONE', *, *, #263, .T. ) ;
#654 = DIRECTION ( 'NONE',  ( 0.000000000000000000, 4.163336342344339393E-15, -1.000000000000000000 ) ) ;
#655 = ADVANCED_FACE ( 'NONE', ( #639 ), #54, .T. ) ;
#656 = CARTESIAN_POINT ( 'NONE',  ( -6.599999999999999645, -14.00000000000000000, 0.000000000000000000 ) ) ;
#657 = ORIENTED_EDGE ( 'NONE', *, *, #11, .T. ) ;
#658 = AXIS2_PLACEMENT_3D ( 'NONE', #452, #128, #62 ) ;
#659 = CIRCLE ( 'NONE', #177, 2.600000000000001421 ) ;
#660 = ORIENTED_EDGE ( 'NONE', *, *, #32, .F. ) ;
#661 = EDGE_CURVE ( 'NONE', #807, #311, #837, .T. ) ;
#662 = FACE_OUTER_BOUND ( 'NONE', #689, .T. ) ;
#663 = DIRECTION ( 'NONE',  ( 0.000000000000000000, 4.163336342344339393E-15, -1.000000000000000000 ) ) ;
#664 = ORIENTED_EDGE ( 'NONE', *, *, #181, .F. ) ;
#665 = ADVANCED_FACE ( 'NONE', ( #456 ), #43, .T. ) ;
#666 = CARTESIAN_POINT ( 'NONE',  ( 0.000000000000000000, -3.500000000001312284, -3.000000000000000000 ) ) ;
#667 = CARTESIAN_POINT ( 'NONE',  ( -6.999999999999999112, 18.50000000000000355, -4.999999999999992006 ) ) ;
#668 = LINE ( 'NONE', #736, #317 ) ;
#669 = CARTESIAN_POINT ( 'NONE',  ( -6.599999999999999645, 16.50000000000000000, -4.999999999999999112 ) ) ;
#670 = CARTESIAN_POINT ( 'NONE',  ( -7.500000000000000000, 18.50000000000006040, -22.50000000000001421 ) ) ;
#671 = AXIS2_PLACEMENT_3D ( 'NONE', #170, #570, #154 ) ;
#672 = DIRECTION ( 'NONE',  ( -0.000000000000000000, -1.000000000000000000, -0.000000000000000000 ) ) ;
#673 = FACE_BOUND ( 'NONE', #95, .T. ) ;
#674 = EDGE_LOOP ( 'NONE', ( #88, #816, #236, #776 ) ) ;
#675 = DIRECTION ( 'NONE',  ( 0.000000000000000000, 3.469446951953612611E-15, -1.000000000000000000 ) ) ;
#676 = AXIS2_PLACEMENT_3D ( 'NONE', #532, #459, #67 ) ;
#677 = AXIS2_PLACEMENT_3D ( 'NONE', #280, #471, #90 ) ;
#678 = ORIENTED_EDGE ( 'NONE', *, *, #371, .T. ) ;
#679 = DIRECTION ( 'NONE',  ( 1.000000000000000000, 0.000000000000000000, 0.000000000000000000 ) ) ;
#680 = ADVANCED_FACE ( 'Грань11', ( #253 ), #327, .F. ) ;
#681 =( NAMED_UNIT ( * ) PLANE_ANGLE_UNIT ( ) SI_UNIT ( $, .RADIAN. ) );
#682 = FACE_OUTER_BOUND ( 'NONE', #244, .T. ) ;
#683 = CIRCLE ( 'NONE', #49, 2.499999999999998668 ) ;
#684 = CARTESIAN_POINT ( 'NONE',  ( 6.599999999999999645, 16.50000000000000000, -2.999999999999997335 ) ) ;
#685 = EDGE_CURVE ( 'NONE', #238, #580, #699, .T. ) ;
#686 = EDGE_LOOP ( 'NONE', ( #822, #813, #627, #826, #381, #221 ) ) ;
#687 = CARTESIAN_POINT ( 'NONE',  ( 0.000000000000000000, 0.000000000000000000, 0.000000000000000000 ) ) ;
#688 = VECTOR ( 'NONE', #376, 1000.000000000000000 ) ;
#689 = EDGE_LOOP ( 'NONE', ( #150, #766, #657, #507 ) ) ;
#690 = SURFACE_SIDE_STYLE ('',( #52 ) ) ;
#691 = VECTOR ( 'NONE', #204, 1000.000000000000000 ) ;
#692 = ORIENTED_EDGE ( 'NONE', *, *, #685, .F. ) ;
#693 = CARTESIAN_POINT ( 'NONE',  ( 6.599999999999999645, 16.50000000000000000, -4.999999999999999112 ) ) ;
#694 = ORIENTED_EDGE ( 'NONE', *, *, #16, .F. ) ;
#695 =( NAMED_UNIT ( * ) SI_UNIT ( $, .STERADIAN. ) SOLID_ANGLE_UNIT ( ) );
#696 = EDGE_CURVE ( 'Кромка4', #307, #645, #700, .T. ) ;
#697 = DIRECTION ( 'NONE',  ( -0.000000000000000000, -1.000000000000000000, -3.469446951953612611E-15 ) ) ;
#698 = LINE ( 'NONE', #561, #460 ) ;
#699 = CIRCLE ( 'NONE', #833, 2.500000000000000444 ) ;
#700 = CIRCLE ( 'NONE', #206, 2.000000000000001776 ) ;
#701 = VERTEX_POINT ( 'NONE', #520 ) ;
#702 = APPLICATION_PROTOCOL_DEFINITION ( 'draft international standard', 'automotive_design', 1998, #600 ) ;
#703 = DIRECTION ( 'NONE',  ( 1.000000000000000000, -0.000000000000000000, 0.000000000000000000 ) ) ;
#704 =( NAMED_UNIT ( * ) PLANE_ANGLE_UNIT ( ) SI_UNIT ( $, .RADIAN. ) );
#705 = ORIENTED_EDGE ( 'NONE', *, *, #745, .F. ) ;
#706 = SURFACE_STYLE_USAGE ( .BOTH. , #690 ) ;
#707 = VERTEX_POINT ( 'NONE', #586 ) ;
#708 = DIRECTION ( 'NONE',  ( 0.000000000000000000, -1.000000000000000000, -3.391901413832836801E-15 ) ) ;
#709 = ORIENTED_EDGE ( 'NONE', *, *, #272, .F. ) ;
#710 = DIRECTION ( 'NONE',  ( 0.000000000000000000, -3.469446951953612611E-15, 1.000000000000000000 ) ) ;
#711 = CARTESIAN_POINT ( 'NONE',  ( -6.999999999999999112, 18.50000000000000355, -5.499999999999992895 ) ) ;
#712 = ORIENTED_EDGE ( 'NONE', *, *, #508, .T. ) ;
#713 = CIRCLE ( 'NONE', #832, 0.5000000000000004441 ) ;
#714 = VECTOR ( 'NONE', #710, 1000.000000000000000 ) ;
#715 = DIRECTION ( 'NONE',  ( 0.000000000000000000, 0.000000000000000000, -1.000000000000000000 ) ) ;
#716 = ORIENTED_EDGE ( 'NONE', *, *, #300, .T. ) ;
#717 = CARTESIAN_POINT ( 'NONE',  ( 6.599999999999999645, 16.50000000000000000, 2.602085213965210642E-15 ) ) ;
#718 = LINE ( 'NONE', #775, #3 ) ;
#719 = MECHANICAL_DESIGN_GEOMETRIC_PRESENTATION_REPRESENTATION (  '', ( #85 ), #430 ) ;
#720 = LINE ( 'NONE', #845, #783 ) ;
#721 = ORIENTED_EDGE ( 'NONE', *, *, #174, .F. ) ;
#722 = CARTESIAN_POINT ( 'NONE',  ( 3.184081677783119177E-16, 21.50000000000004619, -17.59999999999999432 ) ) ;
#723 = EDGE_CURVE ( 'NONE', #457, #153, #590, .T. ) ;
#724 = LINE ( 'NONE', #196, #124 ) ;
#725 = CIRCLE ( 'NONE', #790, 3.100000000000000089 ) ;
#726 = SURFACE_SIDE_STYLE ('',( #157 ) ) ;
#727 = FACE_OUTER_BOUND ( 'NONE', #410, .T. ) ;
#728 = ORIENTED_EDGE ( 'NONE', *, *, #277, .F. ) ;
#729 = DIRECTION ( 'NONE',  ( -0.000000000000000000, -1.000000000000000000, -3.469446951953612611E-15 ) ) ;
#730 = CARTESIAN_POINT ( 'NONE',  ( -4.099999999999999645, -16.50000000000000000, 0.000000000000000000 ) ) ;
#731 = CARTESIAN_POINT ( 'NONE',  ( 4.099999999999999645, -14.00000000000000000, 0.000000000000000000 ) ) ;
#732 = FACE_OUTER_BOUND ( 'NONE', #448, .T. ) ;
#733 = FACE_OUTER_BOUND ( 'NONE', #45, .T. ) ;
#734 = UNCERTAINTY_MEASURE_WITH_UNIT (LENGTH_MEASURE( 1.000000000000000082E-05 ), #99, 'distance_accuracy_value', 'NONE');
#735 = ORIENTED_EDGE ( 'NONE', *, *, #739, .F. ) ;
#736 = CARTESIAN_POINT ( 'NONE',  ( -6.599999999999999645, 16.50000000000000000, 0.000000000000000000 ) ) ;
#737 = CYLINDRICAL_SURFACE ( 'NONE', #677, 2.600000000000001421 ) ;
#738 = ORIENTED_EDGE ( 'NONE', *, *, #534, .T. ) ;
#739 = EDGE_CURVE ( 'NONE', #428, #642, #120, .T. ) ;
#740 = CARTESIAN_POINT ( 'NONE',  ( -6.599999999999999645, -16.50000000000000000, 0.000000000000000000 ) ) ;
#741 = CARTESIAN_POINT ( 'NONE',  ( 4.999999999999999112, 21.50000000000006395, -22.50000000000000355 ) ) ;
#742 = CIRCLE ( 'NONE', #197, 3.100000000000000089 ) ;
#743 = ORIENTED_EDGE ( 'NONE', *, *, #463, .F. ) ;
#744 = CARTESIAN_POINT ( 'NONE',  ( 6.599999999999999645, 16.50000000000000000, -4.999999999999999112 ) ) ;
#745 = EDGE_CURVE ( 'NONE', #701, #365, #384, .T. ) ;
#746 = DIRECTION ( 'NONE',  ( 0.000000000000000000, 0.000000000000000000, -1.000000000000000000 ) ) ;
#747 = LINE ( 'NONE', #634, #77 ) ;
#748 = VECTOR ( 'NONE', #823, 1000.000000000000000 ) ;
#749 = PLANE ( 'NONE',  #285 ) ;
#750 = ORIENTED_EDGE ( 'NONE', *, *, #356, .F. ) ;
#751 = ORIENTED_EDGE ( 'NONE', *, *, #723, .F. ) ;
#752 = DIRECTION ( 'NONE',  ( -0.000000000000000000, 1.000000000000000000, 3.491481338843133355E-15 ) ) ;
#753 = SURFACE_STYLE_USAGE ( .BOTH. , #171 ) ;
#754 = VERTEX_POINT ( 'NONE', #652 ) ;
#755 = COLOUR_RGB ( '',0.4078431372549019551, 0.4196078431372549100, 0.4313725490196078649 ) ;
#756 = ORIENTED_EDGE ( 'NONE', *, *, #814, .F. ) ;
#757 = CARTESIAN_POINT ( 'NONE',  ( -6.599999999999999645, -14.00000000000000000, -3.000000000000000000 ) ) ;
#758 =( NAMED_UNIT ( * ) SI_UNIT ( $, .STERADIAN. ) SOLID_ANGLE_UNIT ( ) );
#759 = ORIENTED_EDGE ( 'NONE', *, *, #125, .F. ) ;
#760 = FILL_AREA_STYLE ('',( #497 ) ) ;
#761 = ADVANCED_FACE ( 'NONE', ( #265 ), #528, .F. ) ;
#762 = DIRECTION ( 'NONE',  ( 1.000000000000000000, 0.000000000000000000, 0.000000000000000000 ) ) ;
#763 = AXIS2_PLACEMENT_3D ( 'NONE', #141, #283, #797 ) ;
#764 = VECTOR ( 'NONE', #597, 1000.000000000000000 ) ;
#765 = ORIENTED_EDGE ( 'NONE', *, *, #661, .T. ) ;
#766 = ORIENTED_EDGE ( 'NONE', *, *, #485, .F. ) ;
#767 = DIRECTION ( 'NONE',  ( 0.000000000000000000, -1.000000000000000000, -3.391901413832836801E-15 ) ) ;
#768 = ORIENTED_EDGE ( 'NONE', *, *, #521, .T. ) ;
#769 = DIRECTION ( 'NONE',  ( 0.000000000000000000, 0.000000000000000000, -1.000000000000000000 ) ) ;
#770 = AXIS2_PLACEMENT_3D ( 'NONE', #646, #568, #103 ) ;
#771 = CARTESIAN_POINT ( 'NONE',  ( 7.500000000000000000, 18.50000000000000000, -5.499999999999994671 ) ) ;
#772 = EDGE_CURVE ( 'Кромка14', #846, #450, #659, .T. ) ;
#773 = EDGE_LOOP ( 'NONE', ( #433, #765, #418, #705 ) ) ;
#774 = ORIENTED_EDGE ( 'NONE', *, *, #391, .F. ) ;
#775 = CARTESIAN_POINT ( 'NONE',  ( 4.099999999999999645, -16.50000000000000000, -3.000000000000000000 ) ) ;
#776 = ORIENTED_EDGE ( 'NONE', *, *, #515, .F. ) ;
#777 = CIRCLE ( 'NONE', #383, 2.600000000000001421 ) ;
#778 = CARTESIAN_POINT ( 'NONE',  ( 4.999999999999999112, 18.50000000000005684, -22.50000000000001421 ) ) ;
#779 = DIRECTION ( 'NONE',  ( 0.000000000000000000, -1.000000000000000000, -3.491481338843133355E-15 ) ) ;
#780 = CARTESIAN_POINT ( 'NONE',  ( 7.500000000000000000, 18.50000000000006750, -25.00000000000001066 ) ) ;
#781 = ORIENTED_EDGE ( 'NONE', *, *, #174, .T. ) ;
#782 = ADVANCED_FACE ( 'Грань14', ( #335 ), #71, .T. ) ;
#783 = VECTOR ( 'NONE', #267, 1000.000000000000000 ) ;
#784 = CARTESIAN_POINT ( 'NONE',  ( 0.000000000000000000, 21.50000000000003553, -14.99999999999999289 ) ) ;
#785 = VERTEX_POINT ( 'NONE', #490 ) ;
#786 = AXIS2_PLACEMENT_3D ( 'NONE', #21, #361, #788 ) ;
#787 = EDGE_CURVE ( 'NONE', #629, #754, #337, .T. ) ;
#788 = DIRECTION ( 'NONE',  ( 0.000000000000000000, -4.003208021484936961E-15, 1.000000000000000000 ) ) ;
#789 = LINE ( 'NONE', #595, #691 ) ;
#790 = AXIS2_PLACEMENT_3D ( 'NONE', #133, #138, #397 ) ;
#791 = COLOUR_RGB ( '',0.4078431372549019551, 0.4196078431372549100, 0.4313725490196078649 ) ;
#792 = DIRECTION ( 'NONE',  ( -0.000000000000000000, 1.000000000000000000, 3.469446951953611033E-15 ) ) ;
#793 = PLANE ( 'NONE',  #393 ) ;
#794 = LINE ( 'NONE', #142, #610 ) ;
#795 = PRESENTATION_STYLE_ASSIGNMENT (( #851 ) ) ;
#796 = VECTOR ( 'NONE', #762, 1000.000000000000000 ) ;
#797 = DIRECTION ( 'NONE',  ( -1.000000000000000000, 0.000000000000000000, 0.000000000000000000 ) ) ;
#798 = DIRECTION ( 'NONE',  ( -1.000000000000000000, 0.000000000000000000, 0.000000000000000000 ) ) ;
#799 = CARTESIAN_POINT ( 'NONE',  ( 0.000000000000000000, 21.49999999999998579, 6.772031872376397107E-14 ) ) ;
#800 = FILL_AREA_STYLE ('',( #476 ) ) ;
#801 = EDGE_CURVE ( 'NONE', #100, #98, #622, .T. ) ;
#802 = UNCERTAINTY_MEASURE_WITH_UNIT (LENGTH_MEASURE( 1.000000000000000082E-05 ), #360, 'distance_accuracy_value', 'NONE');
#803 = EDGE_LOOP ( 'NONE', ( #35, #593, #147, #469 ) ) ;
#804 = VECTOR ( 'NONE', #258, 1000.000000000000000 ) ;
#805 = VECTOR ( 'NONE', #387, 1000.000000000000000 ) ;
#806 = DIRECTION ( 'NONE',  ( -1.000000000000000000, -0.000000000000000000, -0.000000000000000000 ) ) ;
#807 = VERTEX_POINT ( 'NONE', #594 ) ;
#808 = DIRECTION ( 'NONE',  ( -0.000000000000000000, -1.000000000000000000, -0.000000000000000000 ) ) ;
#809 = CARTESIAN_POINT ( 'NONE',  ( -4.099999999999999645, -16.50000000000000000, -3.000000000000000000 ) ) ;
#810 = CARTESIAN_POINT ( 'NONE',  ( -6.599999999999999645, 16.50000000000000000, 0.000000000000000000 ) ) ;
#811 = AXIS2_PLACEMENT_3D ( 'NONE', #669, #409, #746 ) ;
#812 = CARTESIAN_POINT ( 'NONE',  ( -6.999999999999999112, 21.50000000000000355, -5.499999999999982236 ) ) ;
#813 = ORIENTED_EDGE ( 'NONE', *, *, #91, .T. ) ;
#814 = EDGE_CURVE ( 'NONE', #250, #807, #395, .T. ) ;
#815 = FACE_BOUND ( 'NONE', #122, .T. ) ;
#816 = ORIENTED_EDGE ( 'NONE', *, *, #394, .T. ) ;
#817 = VECTOR ( 'NONE', #672, 1000.000000000000000 ) ;
#818 = DIRECTION ( 'NONE',  ( 0.000000000000000000, 1.000000000000000000, 3.469446951953613400E-15 ) ) ;
#819 = AXIS2_PLACEMENT_3D ( 'NONE', #812, #202, #140 ) ;
#820 = CARTESIAN_POINT ( 'NONE',  ( -6.599999999999999645, 18.50000000000000355, -4.999999999999992006 ) ) ;
#821 = ORIENTED_EDGE ( 'NONE', *, *, #293, .T. ) ;
#822 = ORIENTED_EDGE ( 'NONE', *, *, #447, .T. ) ;
#823 = DIRECTION ( 'NONE',  ( -0.000000000000000000, -0.000000000000000000, -1.000000000000000000 ) ) ;
#824 = LINE ( 'NONE', #820, #324 ) ;
#825 = EDGE_CURVE ( 'NONE', #642, #629, #514, .T. ) ;
#826 = ORIENTED_EDGE ( 'NONE', *, *, #439, .T. ) ;
#827 = CARTESIAN_POINT ( 'NONE',  ( -4.999999999999999112, 18.50000000000005684, -22.50000000000001776 ) ) ;
#828 = PLANE ( 'NONE',  #139 ) ;
#829 = ORIENTED_EDGE ( 'NONE', *, *, #11, .F. ) ;
#830 = CARTESIAN_POINT ( 'NONE',  ( -4.999999999999999112, 21.50000000000006040, -22.50000000000000711 ) ) ;
#831 = LINE ( 'NONE', #635, #41 ) ;
#832 = AXIS2_PLACEMENT_3D ( 'NONE', #353, #549, #415 ) ;
#833 = AXIS2_PLACEMENT_3D ( 'NONE', #330, #379, #581 ) ;
#834 = ORIENTED_EDGE ( 'NONE', *, *, #272, .T. ) ;
#835 = ORIENTED_EDGE ( 'NONE', *, *, #293, .F. ) ;
#836 = ADVANCED_FACE ( 'Грань13', ( #278 ), #537, .F. ) ;
#837 = LINE ( 'NONE', #322, #804 ) ;
#838 = ORIENTED_EDGE ( 'NONE', *, *, #840, .T. ) ;
#839 = CARTESIAN_POINT ( 'NONE',  ( 0.000000000000000000, -3.500000000001312284, -3.000000000000000000 ) ) ;
#840 = EDGE_CURVE ( 'NONE', #533, #450, #134, .T. ) ;
#841 = PRODUCT_DEFINITION_FORMATION_WITH_SPECIFIED_SOURCE ( 'ANY', '', #40, .NOT_KNOWN. ) ;
#842 = CARTESIAN_POINT ( 'NONE',  ( 0.000000000000000000, -3.500000000001312284, 0.000000000000000000 ) ) ;
#843 = ORIENTED_EDGE ( 'NONE', *, *, #624, .F. ) ;
#844 = DIRECTION ( 'NONE',  ( -0.000000000000000000, -0.000000000000000000, 1.000000000000000000 ) ) ;
#845 = CARTESIAN_POINT ( 'NONE',  ( -7.500000000000000000, 18.50000000000000355, -4.999999999999992006 ) ) ;
#846 = VERTEX_POINT ( 'NONE', #722 ) ;
#847 = AXIS2_PLACEMENT_3D ( 'NONE', #440, #703, #29 ) ;
#848 = CARTESIAN_POINT ( 'NONE',  ( -7.500000000000000000, 18.49999999999999289, -2.999999999999997335 ) ) ;
#849 = DIRECTION ( 'NONE',  ( -0.000000000000000000, 1.000000000000000000, 3.469446951953611033E-15 ) ) ;
#850 = DIRECTION ( 'NONE',  ( 0.000000000000000000, 2.775557561562892929E-15, -1.000000000000000000 ) ) ;
#851 = SURFACE_STYLE_USAGE ( .BOTH. , #726 ) ;
#852 = ORIENTED_EDGE ( 'NONE', *, *, #16, .T. ) ;
ENDSEC;
END-ISO-10303-21;
