ISO-10303-21;
HEADER;
FILE_DESCRIPTION (( 'STEP AP214' ),
    '1' );
FILE_NAME ('B432 Втулка шариковая для валов O 10 мм.STEP',
    '2025-06-30T14:33:52',
    ( '' ),
    ( '' ),
    'SwSTEP 2.0',
    'SolidWorks 2025',
    '' );
FILE_SCHEMA (( 'AUTOMOTIVE_DESIGN' ));
ENDSEC;

DATA;
#1 = CARTESIAN_POINT ( 'NONE',  ( 0.000000000000000000, 24.30444406250000355, 0.000000000000000000 ) ) ;
#2 = CARTESIAN_POINT ( 'NONE',  ( 0.000000000000000000, 4.504444062500001067, -8.900000000000000355 ) ) ;
#3 = FACE_OUTER_BOUND ( 'NONE', #499, .T. ) ;
#4 = ORIENTED_EDGE ( 'NONE', *, *, #21, .F. ) ;
#5 = ADVANCED_FACE ( 'NONE', ( #121 ), #486, .T. ) ;
#6 = CARTESIAN_POINT ( 'NONE',  ( 0.000000000000000000, -15.81250000000000355, 0.000000000000000000 ) ) ;
#7 = ORIENTED_EDGE ( 'NONE', *, *, #419, .F. ) ;
#8 = ORIENTED_EDGE ( 'NONE', *, *, #372, .T. ) ;
#9 = EDGE_LOOP ( 'NONE', ( #360, #270, #517, #445 ) ) ;
#10 = ADVANCED_FACE ( 'NONE', ( #177 ), #239, .T. ) ;
#11 = ORIENTED_EDGE ( 'NONE', *, *, #41, .T. ) ;
#12 = AXIS2_PLACEMENT_3D ( 'NONE', #241, #94, #289 ) ;
#13 = CIRCLE ( 'NONE', #260, 5.000000000000000888 ) ;
#14 = DIRECTION ( 'NONE',  ( 0.000000000000000000, 0.000000000000000000, -1.000000000000000000 ) ) ;
#15 = CARTESIAN_POINT ( 'NONE',  ( 0.000000000000000000, -15.81250000000000355, 0.000000000000000000 ) ) ;
#16 = ORIENTED_EDGE ( 'NONE', *, *, #103, .T. ) ;
#17 = SHAPE_DEFINITION_REPRESENTATION ( #573, #432 ) ;
#18 = CARTESIAN_POINT ( 'NONE',  ( 0.000000000000000000, 25.30444406250005329, 0.000000000000000000 ) ) ;
#19 = CARTESIAN_POINT ( 'NONE',  ( 0.000000000000000000, 3.504444062499952217, 0.000000000000000000 ) ) ;
#20 = ORIENTED_EDGE ( 'NONE', *, *, #32, .T. ) ;
#21 = EDGE_CURVE ( 'NONE', #170, #496, #199, .T. ) ;
#22 = CARTESIAN_POINT ( 'NONE',  ( 0.000000000000000000, 25.30444406250005329, -9.499999999999996447 ) ) ;
#23 = SURFACE_SIDE_STYLE ('',( #305 ) ) ;
#24 = ORIENTED_EDGE ( 'NONE', *, *, #70, .F. ) ;
#25 = AXIS2_PLACEMENT_3D ( 'NONE', #246, #207, #434 ) ;
#26 = DIRECTION ( 'NONE',  ( 0.000000000000000000, 0.000000000000000000, -1.000000000000000000 ) ) ;
#27 = DIRECTION ( 'NONE',  ( -0.000000000000000000, -1.000000000000000000, -0.000000000000000000 ) ) ;
#28 = DIRECTION ( 'NONE',  ( -0.000000000000000000, -1.000000000000000000, -0.000000000000000000 ) ) ;
#29 = CARTESIAN_POINT ( 'NONE',  ( 0.000000000000000000, 28.40444406250000853, 0.000000000000000000 ) ) ;
#30 = PLANE ( 'NONE',  #46 ) ;
#31 = DIRECTION ( 'NONE',  ( -0.000000000000000000, -1.000000000000000000, -0.000000000000000000 ) ) ;
#32 = EDGE_CURVE ( 'NONE', #74, #326, #357, .T. ) ;
#33 = ORIENTED_EDGE ( 'NONE', *, *, #196, .F. ) ;
#34 = AXIS2_PLACEMENT_3D ( 'NONE', #183, #504, #141 ) ;
#35 = CARTESIAN_POINT ( 'NONE',  ( 0.000000000000000000, -15.81250000000000355, -8.899999999999998579 ) ) ;
#36 = AXIS2_PLACEMENT_3D ( 'NONE', #142, #558, #331 ) ;
#37 = DIRECTION ( 'NONE',  ( 0.000000000000000000, 0.000000000000000000, -1.000000000000000000 ) ) ;
#38 = CARTESIAN_POINT ( 'NONE',  ( 9.500000000000000000, 28.90444406250000142, 0.000000000000000000 ) ) ;
#39 = CYLINDRICAL_SURFACE ( 'NONE', #323, 8.899999999999998579 ) ;
#40 = VERTEX_POINT ( 'NONE', #362 ) ;
#41 = EDGE_CURVE ( 'NONE', #617, #109, #567, .T. ) ;
#42 = DIRECTION ( 'NONE',  ( 0.000000000000000000, 1.000000000000000000, 0.000000000000000000 ) ) ;
#43 = PLANE ( 'NONE',  #551 ) ;
#44 = ADVANCED_FACE ( 'NONE', ( #497 ), #320, .T. ) ;
#45 = DIRECTION ( 'NONE',  ( -0.000000000000000000, -1.000000000000000000, -0.000000000000000000 ) ) ;
#46 = AXIS2_PLACEMENT_3D ( 'NONE', #38, #42, #235 ) ;
#47 = PLANE ( 'NONE',  #568 ) ;
#48 = CYLINDRICAL_SURFACE ( 'NONE', #310, 8.899999999999998579 ) ;
#49 = DIRECTION ( 'NONE',  ( -0.000000000000000000, -1.000000000000000000, -0.000000000000000000 ) ) ;
#50 = EDGE_CURVE ( 'NONE', #277, #396, #549, .T. ) ;
#51 = DIRECTION ( 'NONE',  ( -0.000000000000000000, -1.000000000000000000, -0.000000000000000000 ) ) ;
#52 = ORIENTED_EDGE ( 'NONE', *, *, #327, .T. ) ;
#53 = AXIS2_PLACEMENT_3D ( 'NONE', #268, #164, #363 ) ;
#54 = CIRCLE ( 'NONE', #271, 8.999999999999987566 ) ;
#55 =( LENGTH_UNIT ( ) NAMED_UNIT ( * ) SI_UNIT ( .MILLI., .METRE. ) );
#56 = ORIENTED_EDGE ( 'NONE', *, *, #500, .F. ) ;
#57 = ORIENTED_EDGE ( 'NONE', *, *, #459, .T. ) ;
#58 = ADVANCED_FACE ( 'NONE', ( #61 ), #116, .T. ) ;
#59 = ORIENTED_EDGE ( 'NONE', *, *, #50, .F. ) ;
#60 = EDGE_CURVE ( 'NONE', #571, #244, #63, .T. ) ;
#61 = FACE_OUTER_BOUND ( 'NONE', #588, .T. ) ;
#62 = SURFACE_STYLE_USAGE ( .BOTH. , #23 ) ;
#63 = CIRCLE ( 'NONE', #118, 8.900000000000000355 ) ;
#64 = ORIENTED_EDGE ( 'NONE', *, *, #179, .T. ) ;
#65 = AXIS2_PLACEMENT_3D ( 'NONE', #563, #374, #336 ) ;
#66 = DIRECTION ( 'NONE',  ( -0.000000000000000000, -1.000000000000000000, -0.000000000000000000 ) ) ;
#67 = DIRECTION ( 'NONE',  ( 8.659560562355082002E-17, -0.7071067811865352493, 0.7071067811865597852 ) ) ;
#68 = DIRECTION ( 'NONE',  ( 0.000000000000000000, 0.000000000000000000, -1.000000000000000000 ) ) ;
#69 = DIRECTION ( 'NONE',  ( -0.000000000000000000, -1.000000000000000000, -0.000000000000000000 ) ) ;
#70 = EDGE_CURVE ( 'NONE', #244, #503, #501, .T. ) ;
#71 = EDGE_LOOP ( 'NONE', ( #33, #546, #596, #59 ) ) ;
#72 = CARTESIAN_POINT ( 'NONE',  ( 0.000000000000000000, -15.81250000000000355, -5.000000000000000888 ) ) ;
#73 = CARTESIAN_POINT ( 'NONE',  ( 0.000000000000000000, 0.4044440625000055300, 0.000000000000000000 ) ) ;
#74 = VERTEX_POINT ( 'NONE', #22 ) ;
#75 = AXIS2_PLACEMENT_3D ( 'NONE', #462, #324, #506 ) ;
#76 = DIRECTION ( 'NONE',  ( -0.000000000000000000, -1.000000000000000000, -0.000000000000000000 ) ) ;
#77 = DIRECTION ( 'NONE',  ( 0.000000000000000000, 0.000000000000000000, -1.000000000000000000 ) ) ;
#78 = ORIENTED_EDGE ( 'NONE', *, *, #122, .F. ) ;
#79 = ADVANCED_FACE ( 'NONE', ( #217 ), #401, .F. ) ;
#80 = DIRECTION ( 'NONE',  ( -0.000000000000000000, -1.000000000000000000, -0.000000000000000000 ) ) ;
#81 = LINE ( 'NONE', #373, #380 ) ;
#82 = ORIENTED_EDGE ( 'NONE', *, *, #593, .F. ) ;
#83 = CARTESIAN_POINT ( 'NONE',  ( 0.000000000000000000, 3.504444062499952217, 0.000000000000000000 ) ) ;
#84 = DIRECTION ( 'NONE',  ( -0.000000000000000000, -1.000000000000000000, -0.000000000000000000 ) ) ;
#85 = ORIENTED_EDGE ( 'NONE', *, *, #176, .T. ) ;
#86 = CARTESIAN_POINT ( 'NONE',  ( 0.000000000000000000, 0.4044440625000055300, -9.500000000000000000 ) ) ;
#87 = PRESENTATION_LAYER_ASSIGNMENT (  '', '', ( #513 ) ) ;
#88 = LINE ( 'NONE', #92, #606 ) ;
#89 = EDGE_CURVE ( 'NONE', #40, #256, #509, .T. ) ;
#90 = DIRECTION ( 'NONE',  ( 0.000000000000000000, 1.000000000000000000, 0.000000000000000000 ) ) ;
#92 = CARTESIAN_POINT ( 'NONE',  ( 1.163414459189985485E-15, -15.81250000000000355, 9.500000000000000000 ) ) ;
#91 = APPLICATION_CONTEXT ( 'automotive_design' ) ;
#93 = PRODUCT_RELATED_PRODUCT_CATEGORY ( 'part', '', ( #581 ) ) ;
#94 = DIRECTION ( 'NONE',  ( -0.000000000000000000, -1.000000000000000000, -0.000000000000000000 ) ) ;
#95 = CARTESIAN_POINT ( 'NONE',  ( 8.900000000000000355, 24.30444406250000355, 0.000000000000000000 ) ) ;
#96 = ORIENTED_EDGE ( 'NONE', *, *, #258, .T. ) ;
#97 = DIRECTION ( 'NONE',  ( 0.000000000000000000, -1.000000000000000000, -0.000000000000000000 ) ) ;
#98 = CLOSED_SHELL ( 'NONE', ( #562, #298, #435, #554, #304, #5, #338, #518, #608, #481, #79, #226, #58, #378, #528, #416, #234, #279, #44, #342, #242, #10 ) ) ;
#99 = CARTESIAN_POINT ( 'NONE',  ( 0.000000000000000000, -15.81250000000000355, 0.000000000000000000 ) ) ;
#100 = CIRCLE ( 'NONE', #119, 5.000000000000000888 ) ;
#101 = AXIS2_PLACEMENT_3D ( 'NONE', #266, #492, #313 ) ;
#102 = VECTOR ( 'NONE', #49, 1000.000000000000000 ) ;
#103 = EDGE_CURVE ( 'NONE', #496, #452, #262, .T. ) ;
#104 = DIRECTION ( 'NONE',  ( 0.000000000000000000, 1.000000000000000000, 0.000000000000000000 ) ) ;
#105 = ORIENTED_EDGE ( 'NONE', *, *, #89, .T. ) ;
#106 = FACE_OUTER_BOUND ( 'NONE', #264, .T. ) ;
#107 = CIRCLE ( 'NONE', #476, 5.000000000000000888 ) ;
#108 = EDGE_CURVE ( 'NONE', #396, #120, #107, .T. ) ;
#109 = VERTEX_POINT ( 'NONE', #404 ) ;
#110 =( NAMED_UNIT ( * ) SI_UNIT ( $, .STERADIAN. ) SOLID_ANGLE_UNIT ( ) );
#111 = ORIENTED_EDGE ( 'NONE', *, *, #166, .T. ) ;
#112 = ORIENTED_EDGE ( 'NONE', *, *, #32, .F. ) ;
#113 = VERTEX_POINT ( 'NONE', #540 ) ;
#114 = FILL_AREA_STYLE_COLOUR ( '', #341 ) ;
#115 = EDGE_LOOP ( 'NONE', ( #533, #160, #112, #162 ) ) ;
#116 = CYLINDRICAL_SURFACE ( 'NONE', #152, 9.499999999999998224 ) ;
#117 = DIRECTION ( 'NONE',  ( 0.000000000000000000, 0.000000000000000000, -1.000000000000000000 ) ) ;
#118 = AXIS2_PLACEMENT_3D ( 'NONE', #306, #265, #447 ) ;
#119 = AXIS2_PLACEMENT_3D ( 'NONE', #191, #382, #187 ) ;
#120 = VERTEX_POINT ( 'NONE', #411 ) ;
#121 = FACE_OUTER_BOUND ( 'NONE', #115, .T. ) ;
#122 = EDGE_CURVE ( 'NONE', #109, #552, #589, .T. ) ;
#123 = PLANE ( 'NONE',  #582 ) ;
#124 = ORIENTED_EDGE ( 'NONE', *, *, #419, .T. ) ;
#125 = PRODUCT_CONTEXT ( 'NONE', #91, 'mechanical' ) ;
#126 = CARTESIAN_POINT ( 'NONE',  ( 0.000000000000000000, -15.81250000000000355, 0.000000000000000000 ) ) ;
#127 = FACE_BOUND ( 'NONE', #488, .T. ) ;
#128 = ORIENTED_EDGE ( 'NONE', *, *, #314, .T. ) ;
#129 = DIRECTION ( 'NONE',  ( 0.000000000000000000, 0.000000000000000000, -1.000000000000000000 ) ) ;
#130 = PRESENTATION_STYLE_ASSIGNMENT (( #62 ) ) ;
#131 = EDGE_CURVE ( 'NONE', #470, #120, #358, .T. ) ;
#132 = VECTOR ( 'NONE', #135, 1000.000000000000000 ) ;
#133 = AXIS2_PLACEMENT_3D ( 'NONE', #425, #232, #611 ) ;
#134 = VECTOR ( 'NONE', #67, 1000.000000000000000 ) ;
#135 = DIRECTION ( 'NONE',  ( -0.000000000000000000, -1.000000000000000000, -0.000000000000000000 ) ) ;
#136 = CARTESIAN_POINT ( 'NONE',  ( 0.000000000000000000, -0.09555593749999841124, 0.000000000000000000 ) ) ;
#137 = EDGE_CURVE ( 'NONE', #224, #452, #446, .T. ) ;
#138 = DIRECTION ( 'NONE',  ( 0.000000000000000000, 0.000000000000000000, -1.000000000000000000 ) ) ;
#139 = DIRECTION ( 'NONE',  ( -0.000000000000000000, -1.000000000000000000, -0.000000000000000000 ) ) ;
#140 = ORIENTED_EDGE ( 'NONE', *, *, #221, .T. ) ;
#141 = DIRECTION ( 'NONE',  ( 0.000000000000000000, 0.000000000000000000, -1.000000000000000000 ) ) ;
#142 = CARTESIAN_POINT ( 'NONE',  ( 0.000000000000000000, -0.09555593749999841124, 0.000000000000000000 ) ) ;
#143 = AXIS2_PLACEMENT_3D ( 'NONE', #498, #69, #321 ) ;
#144 = CARTESIAN_POINT ( 'NONE',  ( 0.000000000000000000, 25.30444406250005329, 0.000000000000000000 ) ) ;
#145 = CIRCLE ( 'NONE', #309, 9.500000000000000000 ) ;
#146 = DIRECTION ( 'NONE',  ( 0.000000000000000000, 0.000000000000000000, -1.000000000000000000 ) ) ;
#147 = DIRECTION ( 'NONE',  ( -0.000000000000000000, -1.000000000000000000, -0.000000000000000000 ) ) ;
#148 =( NAMED_UNIT ( * ) SI_UNIT ( $, .STERADIAN. ) SOLID_ANGLE_UNIT ( ) );
#149 = FACE_OUTER_BOUND ( 'NONE', #557, .T. ) ;
#150 = CARTESIAN_POINT ( 'NONE',  ( 1.132798289211300712E-15, 28.90444406250000142, 8.999999999999987566 ) ) ;
#151 = ORIENTED_EDGE ( 'NONE', *, *, #534, .F. ) ;
#152 = AXIS2_PLACEMENT_3D ( 'NONE', #267, #28, #257 ) ;
#153 = AXIS2_PLACEMENT_3D ( 'NONE', #453, #490, #68 ) ;
#154 = DIRECTION ( 'NONE',  ( -0.000000000000000000, -1.000000000000000000, -0.000000000000000000 ) ) ;
#155 = DIRECTION ( 'NONE',  ( 8.659560562354918067E-17, 0.7071067811865487940, -0.7071067811865463515 ) ) ;
#156 = EDGE_LOOP ( 'NONE', ( #440, #543 ) ) ;
#157 = EDGE_CURVE ( 'NONE', #326, #74, #218, .T. ) ;
#158 = ORIENTED_EDGE ( 'NONE', *, *, #478, .F. ) ;
#159 = AXIS2_PLACEMENT_3D ( 'NONE', #547, #222, #129 ) ;
#160 = ORIENTED_EDGE ( 'NONE', *, *, #593, .T. ) ;
#161 = VERTEX_POINT ( 'NONE', #555 ) ;
#162 = ORIENTED_EDGE ( 'NONE', *, *, #491, .F. ) ;
#163 = CARTESIAN_POINT ( 'NONE',  ( 0.000000000000000000, -15.81250000000000355, 0.000000000000000000 ) ) ;
#164 = DIRECTION ( 'NONE',  ( -0.000000000000000000, -1.000000000000000000, -0.000000000000000000 ) ) ;
#165 = ORIENTED_EDGE ( 'NONE', *, *, #523, .T. ) ;
#166 = EDGE_CURVE ( 'NONE', #113, #552, #502, .T. ) ;
#167 = DIRECTION ( 'NONE',  ( -0.000000000000000000, -1.000000000000000000, -0.000000000000000000 ) ) ;
#168 = FACE_OUTER_BOUND ( 'NONE', #599, .T. ) ;
#169 = CIRCLE ( 'NONE', #489, 8.899999999999995026 ) ;
#170 = VERTEX_POINT ( 'NONE', #464 ) ;
#171 = CIRCLE ( 'NONE', #36, 8.999999999999998224 ) ;
#172 = CARTESIAN_POINT ( 'NONE',  ( 8.899999999999995026, 3.504444062499952217, 0.000000000000000000 ) ) ;
#173 = EDGE_LOOP ( 'NONE', ( #352, #392 ) ) ;
#174 = DIRECTION ( 'NONE',  ( -0.000000000000000000, -1.000000000000000000, -0.000000000000000000 ) ) ;
#175 = LINE ( 'NONE', #227, #192 ) ;
#176 = EDGE_CURVE ( 'NONE', #244, #571, #190, .T. ) ;
#177 = FACE_OUTER_BOUND ( 'NONE', #345, .T. ) ;
#178 = LINE ( 'NONE', #590, #134 ) ;
#179 = EDGE_CURVE ( 'NONE', #503, #202, #299, .T. ) ;
#180 = AXIS2_PLACEMENT_3D ( 'NONE', #126, #600, #594 ) ;
#181 = VECTOR ( 'NONE', #385, 1000.000000000000000 ) ;
#182 = VECTOR ( 'NONE', #386, 1000.000000000000000 ) ;
#183 = CARTESIAN_POINT ( 'NONE',  ( 0.000000000000000000, 24.30444406250000355, 0.000000000000000000 ) ) ;
#184 =( GEOMETRIC_REPRESENTATION_CONTEXT ( 3 ) GLOBAL_UNCERTAINTY_ASSIGNED_CONTEXT ( ( #367 ) ) GLOBAL_UNIT_ASSIGNED_CONTEXT ( ( #55, #394, #110 ) ) REPRESENTATION_CONTEXT ( 'NONE', 'WORKASPACE' ) );
#185 = CARTESIAN_POINT ( 'NONE',  ( 5.000000000000000888, -0.09555593749999841124, 0.000000000000000000 ) ) ;
#186 = LINE ( 'NONE', #375, #421 ) ;
#187 = DIRECTION ( 'NONE',  ( 0.000000000000000000, 0.000000000000000000, -1.000000000000000000 ) ) ;
#188 = DIRECTION ( 'NONE',  ( -0.000000000000000000, -1.000000000000000000, -0.000000000000000000 ) ) ;
#189 = ORIENTED_EDGE ( 'NONE', *, *, #89, .F. ) ;
#190 = CIRCLE ( 'NONE', #420, 8.900000000000000355 ) ;
#191 = CARTESIAN_POINT ( 'NONE',  ( 0.000000000000000000, -0.09555593749999841124, 0.000000000000000000 ) ) ;
#192 = VECTOR ( 'NONE', #405, 1000.000000000000000 ) ;
#193 = CARTESIAN_POINT ( 'NONE',  ( 0.000000000000000000, -15.81250000000000355, -9.499999999999998224 ) ) ;
#194 = CARTESIAN_POINT ( 'NONE',  ( 0.000000000000000000, -15.81250000000000355, -9.500000000000000000 ) ) ;
#195 = CARTESIAN_POINT ( 'NONE',  ( 1.089935651241144160E-15, -15.81250000000000355, 8.899999999999998579 ) ) ;
#196 = EDGE_CURVE ( 'NONE', #470, #277, #457, .T. ) ;
#197 = ORIENTED_EDGE ( 'NONE', *, *, #349, .F. ) ;
#198 = DIRECTION ( 'NONE',  ( -0.000000000000000000, -1.000000000000000000, -0.000000000000000000 ) ) ;
#199 = CIRCLE ( 'NONE', #159, 9.500000000000000000 ) ;
#200 = CYLINDRICAL_SURFACE ( 'NONE', #253, 9.500000000000000000 ) ;
#201 = EDGE_LOOP ( 'NONE', ( #442, #128, #96, #493 ) ) ;
#202 = VERTEX_POINT ( 'NONE', #330 ) ;
#203 = APPLICATION_CONTEXT ( 'automotive_design' ) ;
#204 = EDGE_CURVE ( 'NONE', #202, #503, #169, .T. ) ;
#205 = DIRECTION ( 'NONE',  ( 0.000000000000000000, 0.000000000000000000, -1.000000000000000000 ) ) ;
#206 = ORIENTED_EDGE ( 'NONE', *, *, #523, .F. ) ;
#207 = DIRECTION ( 'NONE',  ( -0.000000000000000000, -1.000000000000000000, -0.000000000000000000 ) ) ;
#208 = ORIENTED_EDGE ( 'NONE', *, *, #41, .F. ) ;
#209 = AXIS2_PLACEMENT_3D ( 'NONE', #136, #287, #37 ) ;
#210 = VERTEX_POINT ( 'NONE', #286 ) ;
#211 = CARTESIAN_POINT ( 'NONE',  ( 0.000000000000000000, 28.40444406250000853, 0.000000000000000000 ) ) ;
#212 = EDGE_CURVE ( 'NONE', #571, #202, #228, .T. ) ;
#213 = ORIENTED_EDGE ( 'NONE', *, *, #395, .T. ) ;
#214 = CARTESIAN_POINT ( 'NONE',  ( 0.000000000000000000, -0.09555593749999841124, 0.000000000000000000 ) ) ;
#215 = DIRECTION ( 'NONE',  ( 0.000000000000000000, 1.000000000000000000, 0.000000000000000000 ) ) ;
#216 = ORIENTED_EDGE ( 'NONE', *, *, #166, .F. ) ;
#217 = FACE_OUTER_BOUND ( 'NONE', #350, .T. ) ;
#218 = CIRCLE ( 'NONE', #397, 9.499999999999996447 ) ;
#219 = EDGE_LOOP ( 'NONE', ( #597, #566 ) ) ;
#220 = AXIS2_PLACEMENT_3D ( 'NONE', #29, #27, #598 ) ;
#221 = EDGE_CURVE ( 'NONE', #542, #485, #240, .T. ) ;
#222 = DIRECTION ( 'NONE',  ( -0.000000000000000000, -1.000000000000000000, -0.000000000000000000 ) ) ;
#223 = FACE_OUTER_BOUND ( 'NONE', #583, .T. ) ;
#224 = VERTEX_POINT ( 'NONE', #86 ) ;
#225 = CARTESIAN_POINT ( 'NONE',  ( 1.089935651241144160E-15, -15.81250000000000355, 8.899999999999998579 ) ) ;
#226 = ADVANCED_FACE ( 'NONE', ( #604, #339 ), #30, .T. ) ;
#227 = CARTESIAN_POINT ( 'NONE',  ( 0.000000000000000000, -15.81250000000000355, -9.500000000000000000 ) ) ;
#228 = LINE ( 'NONE', #35, #559 ) ;
#229 = DIRECTION ( 'NONE',  ( -0.000000000000000000, -1.000000000000000000, -0.000000000000000000 ) ) ;
#230 = AXIS2_PLACEMENT_3D ( 'NONE', #15, #370, #366 ) ;
#231 = CONICAL_SURFACE ( 'NONE', #531, 8.999999999999998224, 0.7853981633974466137 ) ;
#232 = DIRECTION ( 'NONE',  ( 0.000000000000000000, 1.000000000000000000, 0.000000000000000000 ) ) ;
#233 = DIRECTION ( 'NONE',  ( 0.000000000000000000, 0.000000000000000000, -1.000000000000000000 ) ) ;
#234 = ADVANCED_FACE ( 'NONE', ( #278 ), #238, .T. ) ;
#235 = DIRECTION ( 'NONE',  ( 0.000000000000000000, -0.000000000000000000, 1.000000000000000000 ) ) ;
#236 = CARTESIAN_POINT ( 'NONE',  ( 0.000000000000000000, 4.504444062500001067, 0.000000000000000000 ) ) ;
#237 = ORIENTED_EDGE ( 'NONE', *, *, #511, .T. ) ;
#238 = CYLINDRICAL_SURFACE ( 'NONE', #12, 9.500000000000000000 ) ;
#239 = CONICAL_SURFACE ( 'NONE', #578, 9.499999999999998224, 0.7853981633974657095 ) ;
#240 = CIRCLE ( 'NONE', #389, 8.999999999999987566 ) ;
#241 = CARTESIAN_POINT ( 'NONE',  ( 0.000000000000000000, -15.81250000000000355, 0.000000000000000000 ) ) ;
#242 = ADVANCED_FACE ( 'NONE', ( #428 ), #580, .T. ) ;
#243 = CARTESIAN_POINT ( 'NONE',  ( 0.000000000000000000, -15.81250000000000355, 0.000000000000000000 ) ) ;
#244 = VERTEX_POINT ( 'NONE', #474 ) ;
#245 = FACE_BOUND ( 'NONE', #173, .T. ) ;
#246 = CARTESIAN_POINT ( 'NONE',  ( 0.000000000000000000, 28.40444406250000853, 0.000000000000000000 ) ) ;
#247 = DIRECTION ( 'NONE',  ( 0.000000000000000000, 0.000000000000000000, -1.000000000000000000 ) ) ;
#248 = EDGE_CURVE ( 'NONE', #120, #396, #100, .T. ) ;
#249 = AXIS2_PLACEMENT_3D ( 'NONE', #163, #66, #272 ) ;
#250 = CIRCLE ( 'NONE', #53, 8.899999999999995026 ) ;
#251 = CARTESIAN_POINT ( 'NONE',  ( 1.163414459189985288E-15, -15.81250000000000355, 9.499999999999998224 ) ) ;
#252 = ORIENTED_EDGE ( 'NONE', *, *, #424, .T. ) ;
#253 = AXIS2_PLACEMENT_3D ( 'NONE', #6, #344, #205 ) ;
#254 = ORIENTED_EDGE ( 'NONE', *, *, #258, .F. ) ;
#255 = EDGE_LOOP ( 'NONE', ( #300, #530, #151, #254 ) ) ;
#256 = VERTEX_POINT ( 'NONE', #560 ) ;
#257 = DIRECTION ( 'NONE',  ( 0.000000000000000000, 0.000000000000000000, -1.000000000000000000 ) ) ;
#258 = EDGE_CURVE ( 'NONE', #210, #484, #430, .T. ) ;
#259 =( LENGTH_UNIT ( ) NAMED_UNIT ( * ) SI_UNIT ( .MILLI., .METRE. ) );
#260 = AXIS2_PLACEMENT_3D ( 'NONE', #610, #383, #276 ) ;
#261 = ORIENTED_EDGE ( 'NONE', *, *, #221, .F. ) ;
#262 = LINE ( 'NONE', #450, #371 ) ;
#263 = DIRECTION ( 'NONE',  ( -0.000000000000000000, -1.000000000000000000, -0.000000000000000000 ) ) ;
#264 = EDGE_LOOP ( 'NONE', ( #261, #213, #333, #443 ) ) ;
#265 = DIRECTION ( 'NONE',  ( -0.000000000000000000, -1.000000000000000000, -0.000000000000000000 ) ) ;
#266 = CARTESIAN_POINT ( 'NONE',  ( 9.499999999999996447, 25.30444406250005329, 0.000000000000000000 ) ) ;
#267 = CARTESIAN_POINT ( 'NONE',  ( 0.000000000000000000, -15.81250000000000355, 0.000000000000000000 ) ) ;
#268 = CARTESIAN_POINT ( 'NONE',  ( 0.000000000000000000, 25.30444406250005329, 0.000000000000000000 ) ) ;
#269 = CIRCLE ( 'NONE', #283, 9.500000000000000000 ) ;
#270 = ORIENTED_EDGE ( 'NONE', *, *, #70, .T. ) ;
#271 = AXIS2_PLACEMENT_3D ( 'NONE', #483, #104, #577 ) ;
#272 = DIRECTION ( 'NONE',  ( 0.000000000000000000, 0.000000000000000000, -1.000000000000000000 ) ) ;
#273 = CARTESIAN_POINT ( 'NONE',  ( 1.163414459189985091E-15, 25.30444406250005329, 9.499999999999996447 ) ) ;
#274 = ORIENTED_EDGE ( 'NONE', *, *, #212, .T. ) ;
#275 = CARTESIAN_POINT ( 'NONE',  ( 0.000000000000000000, 3.504444062499952217, 0.000000000000000000 ) ) ;
#276 = DIRECTION ( 'NONE',  ( 0.000000000000000000, 0.000000000000000000, -1.000000000000000000 ) ) ;
#277 = VERTEX_POINT ( 'NONE', #422 ) ;
#278 = FACE_OUTER_BOUND ( 'NONE', #201, .T. ) ;
#279 = ADVANCED_FACE ( 'NONE', ( #609, #245 ), #47, .T. ) ;
#280 = PRODUCT_DEFINITION_CONTEXT ( 'detailed design', #203, 'design' ) ;
#281 = VECTOR ( 'NONE', #76, 1000.000000000000000 ) ;
#282 = ORIENTED_EDGE ( 'NONE', *, *, #372, .F. ) ;
#283 = AXIS2_PLACEMENT_3D ( 'NONE', #19, #402, #117 ) ;
#284 = MECHANICAL_DESIGN_GEOMETRIC_PRESENTATION_REPRESENTATION (  '', ( #513 ), #615 ) ;
#285 = DIRECTION ( 'NONE',  ( -0.000000000000000000, -1.000000000000000000, -0.000000000000000000 ) ) ;
#286 = CARTESIAN_POINT ( 'NONE',  ( 0.000000000000000000, 24.30444406250000355, -9.500000000000000000 ) ) ;
#287 = DIRECTION ( 'NONE',  ( -0.000000000000000000, -1.000000000000000000, -0.000000000000000000 ) ) ;
#288 = EDGE_CURVE ( 'NONE', #552, #113, #521, .T. ) ;
#289 = DIRECTION ( 'NONE',  ( 0.000000000000000000, 0.000000000000000000, -1.000000000000000000 ) ) ;
#290 = FACE_OUTER_BOUND ( 'NONE', #410, .T. ) ;
#291 = VECTOR ( 'NONE', #147, 1000.000000000000000 ) ;
#292 = DIRECTION ( 'NONE',  ( 0.000000000000000000, 1.000000000000000000, 0.000000000000000000 ) ) ;
#293 = VECTOR ( 'NONE', #553, 1000.000000000000000 ) ;
#294 = CARTESIAN_POINT ( 'NONE',  ( 0.000000000000000000, 4.504444062500001067, 0.000000000000000000 ) ) ;
#295 = LINE ( 'NONE', #251, #102 ) ;
#296 = ORIENTED_EDGE ( 'NONE', *, *, #534, .T. ) ;
#297 = ORIENTED_EDGE ( 'NONE', *, *, #356, .F. ) ;
#298 = ADVANCED_FACE ( 'NONE', ( #149 ), #231, .T. ) ;
#299 = CIRCLE ( 'NONE', #322, 8.899999999999995026 ) ;
#300 = ORIENTED_EDGE ( 'NONE', *, *, #356, .T. ) ;
#301 = CONICAL_SURFACE ( 'NONE', #25, 9.499999999999998224, 0.7853981633974657095 ) ;
#302 = VERTEX_POINT ( 'NONE', #415 ) ;
#303 = ORIENTED_EDGE ( 'NONE', *, *, #478, .T. ) ;
#304 = ADVANCED_FACE ( 'NONE', ( #544 ), #587, .T. ) ;
#305 = SURFACE_STYLE_FILL_AREA ( #359 ) ;
#306 = CARTESIAN_POINT ( 'NONE',  ( 0.000000000000000000, 4.504444062500001067, 0.000000000000000000 ) ) ;
#307 = AXIS2_PLACEMENT_3D ( 'NONE', #1, #198, #387 ) ;
#308 = CARTESIAN_POINT ( 'NONE',  ( 0.000000000000000000, -15.81250000000000355, 0.000000000000000000 ) ) ;
#309 = AXIS2_PLACEMENT_3D ( 'NONE', #294, #154, #247 ) ;
#310 = AXIS2_PLACEMENT_3D ( 'NONE', #529, #51, #437 ) ;
#311 = ORIENTED_EDGE ( 'NONE', *, *, #137, .T. ) ;
#312 = ORIENTED_EDGE ( 'NONE', *, *, #50, .T. ) ;
#313 = DIRECTION ( 'NONE',  ( 0.000000000000000000, 0.000000000000000000, -1.000000000000000000 ) ) ;
#314 = EDGE_CURVE ( 'NONE', #527, #210, #465, .T. ) ;
#315 = ORIENTED_EDGE ( 'NONE', *, *, #204, .T. ) ;
#316 = APPLICATION_PROTOCOL_DEFINITION ( 'draft international standard', 'automotive_design', 1998, #203 ) ;
#317 = DIRECTION ( 'NONE',  ( 0.000000000000000000, 0.000000000000000000, -1.000000000000000000 ) ) ;
#318 = EDGE_LOOP ( 'NONE', ( #303, #124 ) ) ;
#319 = DIRECTION ( 'NONE',  ( 0.000000000000000000, 0.000000000000000000, 1.000000000000000000 ) ) ;
#320 = CYLINDRICAL_SURFACE ( 'NONE', #153, 8.899999999999998579 ) ;
#321 = DIRECTION ( 'NONE',  ( 0.000000000000000000, 0.000000000000000000, -1.000000000000000000 ) ) ;
#322 = AXIS2_PLACEMENT_3D ( 'NONE', #275, #80, #377 ) ;
#323 = AXIS2_PLACEMENT_3D ( 'NONE', #243, #188, #431 ) ;
#324 = DIRECTION ( 'NONE',  ( -0.000000000000000000, -1.000000000000000000, -0.000000000000000000 ) ) ;
#325 = CARTESIAN_POINT ( 'NONE',  ( 0.000000000000000000, 28.90444406250000142, -8.999999999999987566 ) ) ;
#326 = VERTEX_POINT ( 'NONE', #273 ) ;
#327 = EDGE_CURVE ( 'NONE', #496, #170, #269, .T. ) ;
#328 = DIRECTION ( 'NONE',  ( 0.000000000000000000, 0.000000000000000000, -1.000000000000000000 ) ) ;
#329 = CARTESIAN_POINT ( 'NONE',  ( 0.000000000000000000, -15.81250000000000355, 0.000000000000000000 ) ) ;
#330 = CARTESIAN_POINT ( 'NONE',  ( 0.000000000000000000, 3.504444062499952217, -8.899999999999995026 ) ) ;
#331 = DIRECTION ( 'NONE',  ( 0.000000000000000000, 0.000000000000000000, -1.000000000000000000 ) ) ;
#332 = UNCERTAINTY_MEASURE_WITH_UNIT (LENGTH_MEASURE( 1.000000000000000082E-05 ), #259, 'distance_accuracy_value', 'NONE');
#333 = ORIENTED_EDGE ( 'NONE', *, *, #384, .F. ) ;
#334 = VECTOR ( 'NONE', #167, 1000.000000000000000 ) ;
#335 = AXIS2_PLACEMENT_3D ( 'NONE', #99, #564, #439 ) ;
#336 = DIRECTION ( 'NONE',  ( 0.000000000000000000, 0.000000000000000000, -1.000000000000000000 ) ) ;
#337 = CARTESIAN_POINT ( 'NONE',  ( 6.123233995736767268E-16, 28.90444406250000142, 5.000000000000000888 ) ) ;
#338 = ADVANCED_FACE ( 'NONE', ( #595 ), #448, .F. ) ;
#339 = FACE_BOUND ( 'NONE', #219, .T. ) ;
#340 = CARTESIAN_POINT ( 'NONE',  ( 0.000000000000000000, -0.09555593749999841124, 0.000000000000000000 ) ) ;
#341 = COLOUR_RGB ( '',0.4078431372549019551, 0.4196078431372549100, 0.4313725490196078649 ) ;
#342 = ADVANCED_FACE ( 'NONE', ( #127, #223 ), #454, .T. ) ;
#343 = ORIENTED_EDGE ( 'NONE', *, *, #288, .F. ) ;
#344 = DIRECTION ( 'NONE',  ( -0.000000000000000000, -1.000000000000000000, -0.000000000000000000 ) ) ;
#345 = EDGE_LOOP ( 'NONE', ( #376, #579, #252, #189 ) ) ;
#346 = AXIS2_PLACEMENT_3D ( 'NONE', #308, #263, #601 ) ;
#347 = CARTESIAN_POINT ( 'NONE',  ( 1.089935651241143962E-15, 25.30444406250005329, 8.899999999999995026 ) ) ;
#348 = EDGE_LOOP ( 'NONE', ( #607, #11, #351, #216 ) ) ;
#349 = EDGE_CURVE ( 'NONE', #109, #617, #250, .T. ) ;
#350 = EDGE_LOOP ( 'NONE', ( #444, #56, #312, #400 ) ) ;
#351 = ORIENTED_EDGE ( 'NONE', *, *, #122, .T. ) ;
#352 = ORIENTED_EDGE ( 'NONE', *, *, #60, .F. ) ;
#353 = CARTESIAN_POINT ( 'NONE',  ( 0.000000000000000000, 28.40444406250000853, 0.000000000000000000 ) ) ;
#354 = DIRECTION ( 'NONE',  ( 0.000000000000000000, 0.000000000000000000, -1.000000000000000000 ) ) ;
#355 = ORIENTED_EDGE ( 'NONE', *, *, #21, .T. ) ;
#356 = EDGE_CURVE ( 'NONE', #210, #527, #408, .T. ) ;
#357 = CIRCLE ( 'NONE', #538, 9.499999999999996447 ) ;
#358 = LINE ( 'NONE', #618, #291 ) ;
#359 = FILL_AREA_STYLE ('',( #114 ) ) ;
#360 = ORIENTED_EDGE ( 'NONE', *, *, #60, .T. ) ;
#361 = APPLICATION_PROTOCOL_DEFINITION ( 'draft international standard', 'automotive_design', 1998, #91 ) ;
#362 = CARTESIAN_POINT ( 'NONE',  ( 1.163414459189985288E-15, 28.40444406250000853, 9.499999999999998224 ) ) ;
#363 = DIRECTION ( 'NONE',  ( 0.000000000000000000, 0.000000000000000000, -1.000000000000000000 ) ) ;
#364 = ORIENTED_EDGE ( 'NONE', *, *, #103, .F. ) ;
#365 = CARTESIAN_POINT ( 'NONE',  ( 0.000000000000000000, 25.30444406250005329, 0.000000000000000000 ) ) ;
#366 = DIRECTION ( 'NONE',  ( 0.000000000000000000, 0.000000000000000000, -1.000000000000000000 ) ) ;
#367 = UNCERTAINTY_MEASURE_WITH_UNIT (LENGTH_MEASURE( 1.000000000000000082E-05 ), #55, 'distance_accuracy_value', 'NONE');
#368 = ORIENTED_EDGE ( 'NONE', *, *, #314, .F. ) ;
#369 = DIRECTION ( 'NONE',  ( -0.000000000000000000, -1.000000000000000000, -0.000000000000000000 ) ) ;
#370 = DIRECTION ( 'NONE',  ( -0.000000000000000000, -1.000000000000000000, -0.000000000000000000 ) ) ;
#371 = VECTOR ( 'NONE', #414, 1000.000000000000000 ) ;
#372 = EDGE_CURVE ( 'NONE', #452, #224, #482, .T. ) ;
#373 = CARTESIAN_POINT ( 'NONE',  ( 0.000000000000000000, 28.40444406250000853, -9.499999999999998224 ) ) ;
#374 = DIRECTION ( 'NONE',  ( 0.000000000000000000, 1.000000000000000000, 0.000000000000000000 ) ) ;
#375 = CARTESIAN_POINT ( 'NONE',  ( 1.102182119232617517E-15, -0.09555593749999841124, -8.999999999999998224 ) ) ;
#376 = ORIENTED_EDGE ( 'NONE', *, *, #395, .F. ) ;
#377 = DIRECTION ( 'NONE',  ( 0.000000000000000000, 0.000000000000000000, -1.000000000000000000 ) ) ;
#378 = ADVANCED_FACE ( 'NONE', ( #168, #458 ), #412, .T. ) ;
#379 = CARTESIAN_POINT ( 'NONE',  ( 1.163414459189985485E-15, 0.4044440625000055300, 9.500000000000000000 ) ) ;
#380 = VECTOR ( 'NONE', #515, 1000.000000000000000 ) ;
#381 = AXIS2_PLACEMENT_3D ( 'NONE', #494, #319, #406 ) ;
#382 = DIRECTION ( 'NONE',  ( -0.000000000000000000, -1.000000000000000000, -0.000000000000000000 ) ) ;
#383 = DIRECTION ( 'NONE',  ( -0.000000000000000000, -1.000000000000000000, -0.000000000000000000 ) ) ;
#384 = EDGE_CURVE ( 'NONE', #256, #40, #398, .T. ) ;
#385 = DIRECTION ( 'NONE',  ( -0.000000000000000000, -1.000000000000000000, -0.000000000000000000 ) ) ;
#386 = DIRECTION ( 'NONE',  ( 0.000000000000000000, 0.7071067811865487940, 0.7071067811865463515 ) ) ;
#387 = DIRECTION ( 'NONE',  ( 0.000000000000000000, 0.000000000000000000, -1.000000000000000000 ) ) ;
#388 = EDGE_CURVE ( 'NONE', #170, #224, #175, .T. ) ;
#389 = AXIS2_PLACEMENT_3D ( 'NONE', #472, #90, #468 ) ;
#390 = ORIENTED_EDGE ( 'NONE', *, *, #388, .T. ) ;
#391 = FACE_OUTER_BOUND ( 'NONE', #255, .T. ) ;
#392 = ORIENTED_EDGE ( 'NONE', *, *, #176, .F. ) ;
#393 = ORIENTED_EDGE ( 'NONE', *, *, #491, .T. ) ;
#394 =( NAMED_UNIT ( * ) PLANE_ANGLE_UNIT ( ) SI_UNIT ( $, .RADIAN. ) );
#395 = EDGE_CURVE ( 'NONE', #542, #40, #178, .T. ) ;
#396 = VERTEX_POINT ( 'NONE', #548 ) ;
#397 = AXIS2_PLACEMENT_3D ( 'NONE', #144, #45, #516 ) ;
#398 = CIRCLE ( 'NONE', #220, 9.499999999999998224 ) ;
#399 = MANIFOLD_SOLID_BREP ( '\X2\042404300441043a0430\X0\1', #98 ) ;
#400 = ORIENTED_EDGE ( 'NONE', *, *, #108, .T. ) ;
#401 = CYLINDRICAL_SURFACE ( 'NONE', #249, 5.000000000000000888 ) ;
#402 = DIRECTION ( 'NONE',  ( -0.000000000000000000, -1.000000000000000000, -0.000000000000000000 ) ) ;
#403 = EDGE_LOOP ( 'NONE', ( #197, #208 ) ) ;
#404 = CARTESIAN_POINT ( 'NONE',  ( 0.000000000000000000, 25.30444406250005329, -8.899999999999995026 ) ) ;
#405 = DIRECTION ( 'NONE',  ( -0.000000000000000000, -1.000000000000000000, -0.000000000000000000 ) ) ;
#406 = DIRECTION ( 'NONE',  ( 1.000000000000000000, 0.000000000000000000, 0.000000000000000000 ) ) ;
#407 = DIRECTION ( 'NONE',  ( 0.000000000000000000, 0.000000000000000000, 1.000000000000000000 ) ) ;
#408 = CIRCLE ( 'NONE', #143, 9.500000000000000000 ) ;
#409 = AXIS2_PLACEMENT_3D ( 'NONE', #236, #229, #146 ) ;
#410 = EDGE_LOOP ( 'NONE', ( #297, #368 ) ) ;
#411 = CARTESIAN_POINT ( 'NONE',  ( 6.123233995736767268E-16, -0.09555593749999841124, 5.000000000000000888 ) ) ;
#412 = PLANE ( 'NONE',  #101 ) ;
#413 = ORIENTED_EDGE ( 'NONE', *, *, #137, .F. ) ;
#414 = DIRECTION ( 'NONE',  ( -0.000000000000000000, -1.000000000000000000, -0.000000000000000000 ) ) ;
#415 = CARTESIAN_POINT ( 'NONE',  ( 1.163414459189985485E-15, 4.504444062500001067, 9.500000000000000000 ) ) ;
#416 = ADVANCED_FACE ( 'NONE', ( #418, #290 ), #123, .T. ) ;
#417 = ORIENTED_EDGE ( 'NONE', *, *, #288, .T. ) ;
#418 = FACE_BOUND ( 'NONE', #477, .T. ) ;
#419 = EDGE_CURVE ( 'NONE', #161, #436, #171, .T. ) ;
#420 = AXIS2_PLACEMENT_3D ( 'NONE', #613, #285, #328 ) ;
#421 = VECTOR ( 'NONE', #155, 1000.000000000000000 ) ;
#422 = CARTESIAN_POINT ( 'NONE',  ( 0.000000000000000000, 28.90444406250000142, -5.000000000000000888 ) ) ;
#423 = CARTESIAN_POINT ( 'NONE',  ( 1.089935651241143962E-15, 3.504444062499952217, 8.899999999999995026 ) ) ;
#424 = EDGE_CURVE ( 'NONE', #485, #256, #81, .T. ) ;
#425 = CARTESIAN_POINT ( 'NONE',  ( 0.000000000000000000, -0.09555593749999841124, 0.000000000000000000 ) ) ;
#426 = FACE_OUTER_BOUND ( 'NONE', #9, .T. ) ;
#427 = ORIENTED_EDGE ( 'NONE', *, *, #157, .T. ) ;
#428 = FACE_OUTER_BOUND ( 'NONE', #525, .T. ) ;
#429 = DIRECTION ( 'NONE',  ( 0.000000000000000000, -1.000000000000000000, -0.000000000000000000 ) ) ;
#430 = LINE ( 'NONE', #194, #181 ) ;
#431 = DIRECTION ( 'NONE',  ( 0.000000000000000000, 0.000000000000000000, -1.000000000000000000 ) ) ;
#432 = ADVANCED_BREP_SHAPE_REPRESENTATION ( 'B432 \X2\041204420443043b043a0430\X0\ \X2\0448043004400438043a043e04320430044f\X0\ \X2\0434043b044f\X0\ \X2\04320430043b043e0432\X0\ \X2\00d8\X0\ 10 \X2\043c043c\X0\', ( #399, #381 ), #184 ) ;
#433 = DIRECTION ( 'NONE',  ( 0.000000000000000000, 0.000000000000000000, -1.000000000000000000 ) ) ;
#434 = DIRECTION ( 'NONE',  ( 0.000000000000000000, 0.000000000000000000, -1.000000000000000000 ) ) ;
#435 = ADVANCED_FACE ( 'NONE', ( #426 ), #39, .T. ) ;
#436 = VERTEX_POINT ( 'NONE', #469 ) ;
#437 = DIRECTION ( 'NONE',  ( 0.000000000000000000, 0.000000000000000000, -1.000000000000000000 ) ) ;
#438 = CIRCLE ( 'NONE', #409, 9.500000000000000000 ) ;
#439 = DIRECTION ( 'NONE',  ( 0.000000000000000000, 0.000000000000000000, -1.000000000000000000 ) ) ;
#440 = ORIENTED_EDGE ( 'NONE', *, *, #108, .F. ) ;
#441 = EDGE_CURVE ( 'NONE', #527, #302, #88, .T. ) ;
#442 = ORIENTED_EDGE ( 'NONE', *, *, #441, .F. ) ;
#443 = ORIENTED_EDGE ( 'NONE', *, *, #424, .F. ) ;
#444 = ORIENTED_EDGE ( 'NONE', *, *, #131, .F. ) ;
#445 = ORIENTED_EDGE ( 'NONE', *, *, #212, .F. ) ;
#446 = CIRCLE ( 'NONE', #65, 9.500000000000000000 ) ;
#447 = DIRECTION ( 'NONE',  ( 0.000000000000000000, 0.000000000000000000, -1.000000000000000000 ) ) ;
#448 = CYLINDRICAL_SURFACE ( 'NONE', #346, 5.000000000000000888 ) ;
#449 = EDGE_LOOP ( 'NONE', ( #602, #237, #343, #78 ) ) ;
#450 = CARTESIAN_POINT ( 'NONE',  ( 1.163414459189985485E-15, -15.81250000000000355, 9.500000000000000000 ) ) ;
#451 = DIRECTION ( 'NONE',  ( 0.000000000000000000, 1.000000000000000000, 0.000000000000000000 ) ) ;
#452 = VERTEX_POINT ( 'NONE', #379 ) ;
#453 = CARTESIAN_POINT ( 'NONE',  ( 0.000000000000000000, -15.81250000000000355, 0.000000000000000000 ) ) ;
#454 = PLANE ( 'NONE',  #512 ) ;
#455 = ORIENTED_EDGE ( 'NONE', *, *, #584, .T. ) ;
#456 = DIRECTION ( 'NONE',  ( -0.000000000000000000, -1.000000000000000000, -0.000000000000000000 ) ) ;
#457 = CIRCLE ( 'NONE', #75, 5.000000000000000888 ) ;
#458 = FACE_BOUND ( 'NONE', #403, .T. ) ;
#459 = EDGE_CURVE ( 'NONE', #302, #484, #438, .T. ) ;
#460 = CARTESIAN_POINT ( 'NONE',  ( 0.000000000000000000, -15.81250000000000355, -8.899999999999998579 ) ) ;
#461 = DIRECTION ( 'NONE',  ( 0.000000000000000000, -0.000000000000000000, 1.000000000000000000 ) ) ;
#462 = CARTESIAN_POINT ( 'NONE',  ( 0.000000000000000000, 28.90444406250000142, 0.000000000000000000 ) ) ;
#463 = DIRECTION ( 'NONE',  ( 0.000000000000000000, -0.000000000000000000, 1.000000000000000000 ) ) ;
#464 = CARTESIAN_POINT ( 'NONE',  ( 0.000000000000000000, 3.504444062499952217, -9.500000000000000000 ) ) ;
#465 = CIRCLE ( 'NONE', #539, 9.500000000000000000 ) ;
#466 = VECTOR ( 'NONE', #139, 1000.000000000000000 ) ;
#467 = EDGE_LOOP ( 'NONE', ( #296, #57 ) ) ;
#468 = DIRECTION ( 'NONE',  ( 0.000000000000000000, 0.000000000000000000, 1.000000000000000000 ) ) ;
#469 = CARTESIAN_POINT ( 'NONE',  ( 0.000000000000000000, -0.09555593749999841124, 8.999999999999998224 ) ) ;
#470 = VERTEX_POINT ( 'NONE', #337 ) ;
#471 = PRODUCT_DEFINITION ( 'UNKNOWN', '', #616, #280 ) ;
#472 = CARTESIAN_POINT ( 'NONE',  ( 0.000000000000000000, 28.90444406250000142, 0.000000000000000000 ) ) ;
#473 = FACE_BOUND ( 'NONE', #156, .T. ) ;
#474 = CARTESIAN_POINT ( 'NONE',  ( 1.089935651241144357E-15, 4.504444062500001067, 8.900000000000000355 ) ) ;
#475 = FACE_OUTER_BOUND ( 'NONE', #318, .T. ) ;
#476 = AXIS2_PLACEMENT_3D ( 'NONE', #214, #456, #26 ) ;
#477 = EDGE_LOOP ( 'NONE', ( #417, #111 ) ) ;
#478 = EDGE_CURVE ( 'NONE', #436, #161, #569, .T. ) ;
#479 = CYLINDRICAL_SURFACE ( 'NONE', #335, 9.500000000000000000 ) ;
#480 = ORIENTED_EDGE ( 'NONE', *, *, #388, .F. ) ;
#481 = ADVANCED_FACE ( 'NONE', ( #475, #473 ), #43, .T. ) ;
#482 = CIRCLE ( 'NONE', #570, 9.500000000000000000 ) ;
#483 = CARTESIAN_POINT ( 'NONE',  ( 0.000000000000000000, 28.90444406250000142, 0.000000000000000000 ) ) ;
#484 = VERTEX_POINT ( 'NONE', #556 ) ;
#485 = VERTEX_POINT ( 'NONE', #325 ) ;
#486 = CYLINDRICAL_SURFACE ( 'NONE', #180, 9.499999999999998224 ) ;
#487 = DIRECTION ( 'NONE',  ( -0.000000000000000000, -1.000000000000000000, -0.000000000000000000 ) ) ;
#488 = EDGE_LOOP ( 'NONE', ( #315, #64 ) ) ;
#489 = AXIS2_PLACEMENT_3D ( 'NONE', #83, #514, #138 ) ;
#490 = DIRECTION ( 'NONE',  ( -0.000000000000000000, -1.000000000000000000, -0.000000000000000000 ) ) ;
#491 = EDGE_CURVE ( 'NONE', #256, #74, #614, .T. ) ;
#492 = DIRECTION ( 'NONE',  ( 0.000000000000000000, -1.000000000000000000, -0.000000000000000000 ) ) ;
#493 = ORIENTED_EDGE ( 'NONE', *, *, #459, .F. ) ;
#494 = CARTESIAN_POINT ( 'NONE',  ( 0.000000000000000000, 0.000000000000000000, 0.000000000000000000 ) ) ;
#495 = DIRECTION ( 'NONE',  ( 0.000000000000000000, 0.000000000000000000, -1.000000000000000000 ) ) ;
#496 = VERTEX_POINT ( 'NONE', #619 ) ;
#497 = FACE_OUTER_BOUND ( 'NONE', #575, .T. ) ;
#498 = CARTESIAN_POINT ( 'NONE',  ( 0.000000000000000000, 24.30444406250000355, 0.000000000000000000 ) ) ;
#499 = EDGE_LOOP ( 'NONE', ( #364, #52, #390, #311 ) ) ;
#500 = EDGE_CURVE ( 'NONE', #277, #470, #13, .T. ) ;
#501 = LINE ( 'NONE', #225, #281 ) ;
#502 = CIRCLE ( 'NONE', #34, 8.900000000000000355 ) ;
#503 = VERTEX_POINT ( 'NONE', #423 ) ;
#504 = DIRECTION ( 'NONE',  ( -0.000000000000000000, -1.000000000000000000, -0.000000000000000000 ) ) ;
#505 = CYLINDRICAL_SURFACE ( 'NONE', #522, 9.500000000000000000 ) ;
#506 = DIRECTION ( 'NONE',  ( 0.000000000000000000, 0.000000000000000000, -1.000000000000000000 ) ) ;
#507 = ORIENTED_EDGE ( 'NONE', *, *, #157, .F. ) ;
#508 = DIRECTION ( 'NONE',  ( -0.000000000000000000, -1.000000000000000000, -0.000000000000000000 ) ) ;
#509 = CIRCLE ( 'NONE', #592, 9.499999999999998224 ) ;
#510 = DIRECTION ( 'NONE',  ( 0.000000000000000000, 0.000000000000000000, -1.000000000000000000 ) ) ;
#511 = EDGE_CURVE ( 'NONE', #617, #113, #561, .T. ) ;
#512 = AXIS2_PLACEMENT_3D ( 'NONE', #172, #451, #461 ) ;
#513 = STYLED_ITEM ( 'NONE', ( #130 ), #399 ) ;
#514 = DIRECTION ( 'NONE',  ( -0.000000000000000000, -1.000000000000000000, -0.000000000000000000 ) ) ;
#515 = DIRECTION ( 'NONE',  ( 0.000000000000000000, -0.7071067811865352493, -0.7071067811865597852 ) ) ;
#516 = DIRECTION ( 'NONE',  ( 0.000000000000000000, 0.000000000000000000, -1.000000000000000000 ) ) ;
#517 = ORIENTED_EDGE ( 'NONE', *, *, #204, .F. ) ;
#518 = ADVANCED_FACE ( 'NONE', ( #550 ), #505, .T. ) ;
#519 = CARTESIAN_POINT ( 'NONE',  ( 8.900000000000000355, 4.504444062500001067, 0.000000000000000000 ) ) ;
#520 = CARTESIAN_POINT ( 'NONE',  ( 0.000000000000000000, -0.09555593749999841124, 8.999999999999998224 ) ) ;
#521 = CIRCLE ( 'NONE', #307, 8.900000000000000355 ) ;
#522 = AXIS2_PLACEMENT_3D ( 'NONE', #329, #84, #233 ) ;
#523 = EDGE_CURVE ( 'NONE', #161, #224, #186, .T. ) ;
#524 = FACE_OUTER_BOUND ( 'NONE', #348, .T. ) ;
#525 = EDGE_LOOP ( 'NONE', ( #206, #158, #591, #413 ) ) ;
#526 = CARTESIAN_POINT ( 'NONE',  ( 0.000000000000000000, 24.30444406250000355, -8.900000000000000355 ) ) ;
#527 = VERTEX_POINT ( 'NONE', #565 ) ;
#528 = ADVANCED_FACE ( 'NONE', ( #524 ), #48, .T. ) ;
#529 = CARTESIAN_POINT ( 'NONE',  ( 0.000000000000000000, -15.81250000000000355, 0.000000000000000000 ) ) ;
#530 = ORIENTED_EDGE ( 'NONE', *, *, #441, .T. ) ;
#531 = AXIS2_PLACEMENT_3D ( 'NONE', #340, #292, #536 ) ;
#532 = EDGE_LOOP ( 'NONE', ( #355, #16, #8, #480 ) ) ;
#533 = ORIENTED_EDGE ( 'NONE', *, *, #384, .T. ) ;
#534 = EDGE_CURVE ( 'NONE', #484, #302, #145, .T. ) ;
#535 = DIRECTION ( 'NONE',  ( -0.000000000000000000, -1.000000000000000000, -0.000000000000000000 ) ) ;
#536 = DIRECTION ( 'NONE',  ( 0.000000000000000000, 0.000000000000000000, 1.000000000000000000 ) ) ;
#537 = ORIENTED_EDGE ( 'NONE', *, *, #545, .F. ) ;
#538 = AXIS2_PLACEMENT_3D ( 'NONE', #18, #369, #495 ) ;
#539 = AXIS2_PLACEMENT_3D ( 'NONE', #541, #487, #77 ) ;
#540 = CARTESIAN_POINT ( 'NONE',  ( 1.089935651241144357E-15, 24.30444406250000355, 8.900000000000000355 ) ) ;
#541 = CARTESIAN_POINT ( 'NONE',  ( 0.000000000000000000, 24.30444406250000355, 0.000000000000000000 ) ) ;
#542 = VERTEX_POINT ( 'NONE', #150 ) ;
#543 = ORIENTED_EDGE ( 'NONE', *, *, #248, .F. ) ;
#544 = FACE_OUTER_BOUND ( 'NONE', #449, .T. ) ;
#545 = EDGE_CURVE ( 'NONE', #436, #452, #574, .T. ) ;
#546 = ORIENTED_EDGE ( 'NONE', *, *, #131, .T. ) ;
#547 = CARTESIAN_POINT ( 'NONE',  ( 0.000000000000000000, 3.504444062499952217, 0.000000000000000000 ) ) ;
#548 = CARTESIAN_POINT ( 'NONE',  ( 0.000000000000000000, -0.09555593749999841124, -5.000000000000000888 ) ) ;
#549 = LINE ( 'NONE', #72, #132 ) ;
#550 = FACE_OUTER_BOUND ( 'NONE', #532, .T. ) ;
#551 = AXIS2_PLACEMENT_3D ( 'NONE', #185, #429, #510 ) ;
#552 = VERTEX_POINT ( 'NONE', #526 ) ;
#553 = DIRECTION ( 'NONE',  ( -0.000000000000000000, -1.000000000000000000, -0.000000000000000000 ) ) ;
#554 = ADVANCED_FACE ( 'NONE', ( #391 ), #479, .T. ) ;
#555 = CARTESIAN_POINT ( 'NONE',  ( 1.132798289211301501E-15, -0.09555593749999841124, -8.999999999999998224 ) ) ;
#556 = CARTESIAN_POINT ( 'NONE',  ( 0.000000000000000000, 4.504444062500001067, -9.500000000000000000 ) ) ;
#557 = EDGE_LOOP ( 'NONE', ( #7, #165, #282, #537 ) ) ;
#558 = DIRECTION ( 'NONE',  ( -0.000000000000000000, -1.000000000000000000, -0.000000000000000000 ) ) ;
#559 = VECTOR ( 'NONE', #508, 1000.000000000000000 ) ;
#560 = CARTESIAN_POINT ( 'NONE',  ( 0.000000000000000000, 28.40444406250000853, -9.499999999999998224 ) ) ;
#561 = LINE ( 'NONE', #195, #466 ) ;
#562 = ADVANCED_FACE ( 'NONE', ( #106 ), #301, .T. ) ;
#563 = CARTESIAN_POINT ( 'NONE',  ( 0.000000000000000000, 0.4044440625000055300, 0.000000000000000000 ) ) ;
#564 = DIRECTION ( 'NONE',  ( -0.000000000000000000, -1.000000000000000000, -0.000000000000000000 ) ) ;
#565 = CARTESIAN_POINT ( 'NONE',  ( 1.163414459189985485E-15, 24.30444406250000355, 9.500000000000000000 ) ) ;
#566 = ORIENTED_EDGE ( 'NONE', *, *, #196, .T. ) ;
#567 = CIRCLE ( 'NONE', #603, 8.899999999999995026 ) ;
#568 = AXIS2_PLACEMENT_3D ( 'NONE', #519, #97, #433 ) ;
#569 = CIRCLE ( 'NONE', #209, 8.999999999999998224 ) ;
#570 = AXIS2_PLACEMENT_3D ( 'NONE', #73, #215, #354 ) ;
#571 = VERTEX_POINT ( 'NONE', #2 ) ;
#572 = ORIENTED_EDGE ( 'NONE', *, *, #327, .F. ) ;
#573 = PRODUCT_DEFINITION_SHAPE ( 'NONE', 'NONE',  #471 ) ;
#574 = LINE ( 'NONE', #520, #182 ) ;
#575 = EDGE_LOOP ( 'NONE', ( #24, #85, #274, #585 ) ) ;
#576 = EDGE_LOOP ( 'NONE', ( #455, #140 ) ) ;
#577 = DIRECTION ( 'NONE',  ( 0.000000000000000000, 0.000000000000000000, 1.000000000000000000 ) ) ;
#578 = AXIS2_PLACEMENT_3D ( 'NONE', #211, #586, #14 ) ;
#579 = ORIENTED_EDGE ( 'NONE', *, *, #584, .F. ) ;
#580 = CONICAL_SURFACE ( 'NONE', #133, 8.999999999999998224, 0.7853981633974466137 ) ;
#581 = PRODUCT ( 'B432 \X2\041204420443043b043a0430\X0\ \X2\0448043004400438043a043e04320430044f\X0\ \X2\0434043b044f\X0\ \X2\04320430043b043e0432\X0\ \X2\00d8\X0\ 10 \X2\043c043c\X0\', 'B432 \X2\041204420443043b043a0430\X0\ \X2\0448043004400438043a043e04320430044f\X0\ \X2\0434043b044f\X0\ \X2\04320430043b043e0432\X0\ \X2\00d8\X0\ 10 \X2\043c043c\X0\', '', ( #125 ) ) ;
#582 = AXIS2_PLACEMENT_3D ( 'NONE', #95, #605, #463 ) ;
#583 = EDGE_LOOP ( 'NONE', ( #4, #572 ) ) ;
#584 = EDGE_CURVE ( 'NONE', #485, #542, #54, .T. ) ;
#585 = ORIENTED_EDGE ( 'NONE', *, *, #179, .F. ) ;
#586 = DIRECTION ( 'NONE',  ( -0.000000000000000000, -1.000000000000000000, -0.000000000000000000 ) ) ;
#587 = CYLINDRICAL_SURFACE ( 'NONE', #230, 8.899999999999998579 ) ;
#588 = EDGE_LOOP ( 'NONE', ( #82, #105, #393, #507 ) ) ;
#589 = LINE ( 'NONE', #460, #334 ) ;
#590 = CARTESIAN_POINT ( 'NONE',  ( 1.163414459189985288E-15, 28.40444406250000853, 9.499999999999998224 ) ) ;
#591 = ORIENTED_EDGE ( 'NONE', *, *, #545, .T. ) ;
#592 = AXIS2_PLACEMENT_3D ( 'NONE', #353, #535, #407 ) ;
#593 = EDGE_CURVE ( 'NONE', #40, #326, #295, .T. ) ;
#594 = DIRECTION ( 'NONE',  ( 0.000000000000000000, 0.000000000000000000, -1.000000000000000000 ) ) ;
#595 = FACE_OUTER_BOUND ( 'NONE', #71, .T. ) ;
#596 = ORIENTED_EDGE ( 'NONE', *, *, #248, .T. ) ;
#597 = ORIENTED_EDGE ( 'NONE', *, *, #500, .T. ) ;
#598 = DIRECTION ( 'NONE',  ( 0.000000000000000000, 0.000000000000000000, 1.000000000000000000 ) ) ;
#599 = EDGE_LOOP ( 'NONE', ( #20, #427 ) ) ;
#600 = DIRECTION ( 'NONE',  ( -0.000000000000000000, -1.000000000000000000, -0.000000000000000000 ) ) ;
#601 = DIRECTION ( 'NONE',  ( 0.000000000000000000, 0.000000000000000000, -1.000000000000000000 ) ) ;
#602 = ORIENTED_EDGE ( 'NONE', *, *, #349, .T. ) ;
#603 = AXIS2_PLACEMENT_3D ( 'NONE', #365, #174, #317 ) ;
#604 = FACE_OUTER_BOUND ( 'NONE', #576, .T. ) ;
#605 = DIRECTION ( 'NONE',  ( 0.000000000000000000, 1.000000000000000000, 0.000000000000000000 ) ) ;
#606 = VECTOR ( 'NONE', #31, 1000.000000000000000 ) ;
#607 = ORIENTED_EDGE ( 'NONE', *, *, #511, .F. ) ;
#608 = ADVANCED_FACE ( 'NONE', ( #3 ), #200, .T. ) ;
#609 = FACE_OUTER_BOUND ( 'NONE', #467, .T. ) ;
#610 = CARTESIAN_POINT ( 'NONE',  ( 0.000000000000000000, 28.90444406250000142, 0.000000000000000000 ) ) ;
#611 = DIRECTION ( 'NONE',  ( 0.000000000000000000, 0.000000000000000000, 1.000000000000000000 ) ) ;
#612 =( NAMED_UNIT ( * ) PLANE_ANGLE_UNIT ( ) SI_UNIT ( $, .RADIAN. ) );
#613 = CARTESIAN_POINT ( 'NONE',  ( 0.000000000000000000, 4.504444062500001067, 0.000000000000000000 ) ) ;
#614 = LINE ( 'NONE', #193, #293 ) ;
#615 =( GEOMETRIC_REPRESENTATION_CONTEXT ( 3 ) GLOBAL_UNCERTAINTY_ASSIGNED_CONTEXT ( ( #332 ) ) GLOBAL_UNIT_ASSIGNED_CONTEXT ( ( #259, #612, #148 ) ) REPRESENTATION_CONTEXT ( 'NONE', 'WORKASPACE' ) );
#616 = PRODUCT_DEFINITION_FORMATION_WITH_SPECIFIED_SOURCE ( 'ANY', '', #581, .NOT_KNOWN. ) ;
#617 = VERTEX_POINT ( 'NONE', #347 ) ;
#618 = CARTESIAN_POINT ( 'NONE',  ( 6.123233995736767268E-16, -15.81250000000000355, 5.000000000000000888 ) ) ;
#619 = CARTESIAN_POINT ( 'NONE',  ( 1.163414459189985485E-15, 3.504444062499952217, 9.500000000000000000 ) ) ;
ENDSEC;
END-ISO-10303-21;
