ISO-10303-21;
HEADER;
FILE_DESCRIPTION (( 'STEP AP214' ),
    '1' );
FILE_NAME ('H34 Сухарь пазовый М5, паз 6.STEP',
    '2019-09-20T13:14:16',
    ( 'Windows User' ),
    ( '' ),
    'SwSTEP 2.0',
    'SolidWorks 2019',
    '' );
FILE_SCHEMA (( 'AUTOMOTIVE_DESIGN' ));
ENDSEC;

DATA;
#1 = LINE ( 'NONE', #269, #35 ) ;
#2 = DIRECTION ( 'NONE',  ( 0.0000000000000000000, 0.0000000000000000000, -1.000000000000000000 ) ) ;
#3 = ORIENTED_EDGE ( 'NONE', *, *, #873, .F. ) ;
#4 = FACE_OUTER_BOUND ( 'NONE', #693, .T. ) ;
#5 = LINE ( 'NONE', #142, #632 ) ;
#6 = FACE_OUTER_BOUND ( 'NONE', #607, .T. ) ;
#7 = VECTOR ( 'NONE', #385, 1000.000000000000000 ) ;
#8 = DIRECTION ( 'NONE',  ( -1.000000000000000000, 0.0000000000000000000, 0.0000000000000000000 ) ) ;
#9 = COLOUR_RGB ( '',1.000000000000000000, 1.000000000000000000, 1.000000000000000000 ) ;
#10 = ORIENTED_EDGE ( 'NONE', *, *, #684, .F. ) ;
#11 = DIRECTION ( 'NONE',  ( 5.421010862427519089E-17, 1.000000000000000000, 0.0000000000000000000 ) ) ;
#12 = EDGE_CURVE ( 'NONE', #285, #152, #724, .T. ) ;
#13 = DIRECTION ( 'NONE',  ( -1.000000000000000000, 0.0000000000000000000, 0.0000000000000000000 ) ) ;
#14 = COLOUR_RGB ( '',1.000000000000000000, 1.000000000000000000, 1.000000000000000000 ) ;
#15 = LINE ( 'NONE', #140, #227 ) ;
#16 = ORIENTED_EDGE ( 'NONE', *, *, #701, .T. ) ;
#17 = EDGE_CURVE ( 'NONE', #792, #112, #896, .T. ) ;
#18 = DIRECTION ( 'NONE',  ( -1.000000000000000000, 0.0000000000000000000, 0.0000000000000000000 ) ) ;
#19 = ORIENTED_EDGE ( 'NONE', *, *, #461, .F. ) ;
#20 = VERTEX_POINT ( 'NONE', #867 ) ;
#21 = AXIS2_PLACEMENT_3D ( 'NONE', #46, #404, #688 ) ;
#22 = ORIENTED_EDGE ( 'NONE', *, *, #209, .F. ) ;
#23 = ORIENTED_EDGE ( 'NONE', *, *, #95, .F. ) ;
#24 = ORIENTED_EDGE ( 'NONE', *, *, #211, .T. ) ;
#25 = CARTESIAN_POINT ( 'NONE',  ( 4.699999999999998401, 0.4499999999999998446, 5.099999999999999645 ) ) ;
#26 = CARTESIAN_POINT ( 'NONE',  ( -4.400000000000001243, 0.4499999999999998446, 5.099999999999999645 ) ) ;
#27 = ORIENTED_EDGE ( 'NONE', *, *, #355, .T. ) ;
#28 = EDGE_CURVE ( 'NONE', #55, #663, #786, .T. ) ;
#29 = LINE ( 'NONE', #492, #433 ) ;
#30 = CARTESIAN_POINT ( 'NONE',  ( -2.900000000000000355, 1.049999999999999822, 5.099999999999999645 ) ) ;
#31 = CARTESIAN_POINT ( 'NONE',  ( 2.599999999999997868, 1.949999999999999956, 5.099999999999999645 ) ) ;
#32 = EDGE_LOOP ( 'NONE', ( #58, #574, #197, #466 ) ) ;
#33 = VECTOR ( 'NONE', #528, 1000.000000000000000 ) ;
#34 = STYLED_ITEM ( 'NONE', ( #666 ), #96 ) ;
#35 = VECTOR ( 'NONE', #891, 1000.000000000000114 ) ;
#36 = PRESENTATION_STYLE_ASSIGNMENT (( #447 ) ) ;
#37 = DIRECTION ( 'NONE',  ( 8.673617379884035472E-16, 1.000000000000000000, -0.0000000000000000000 ) ) ;
#38 = VERTEX_POINT ( 'NONE', #856 ) ;
#39 = DIRECTION ( 'NONE',  ( -1.000000000000000000, 0.0000000000000000000, -0.0000000000000000000 ) ) ;
#40 = DIRECTION ( 'NONE',  ( 0.0000000000000000000, -1.000000000000000000, 0.0000000000000000000 ) ) ;
#41 = DIRECTION ( 'NONE',  ( 1.000000000000000000, 0.0000000000000000000, 0.0000000000000000000 ) ) ;
#42 = FILL_AREA_STYLE_COLOUR ( '', #863 ) ;
#43 = EDGE_CURVE ( 'NONE', #534, #807, #531, .T. ) ;
#44 = ORIENTED_EDGE ( 'NONE', *, *, #620, .F. ) ;
#45 = PRESENTATION_STYLE_ASSIGNMENT (( #454 ) ) ;
#46 = CARTESIAN_POINT ( 'NONE',  ( 2.899999999999998135, 2.250000000000000000, 5.099999999999999645 ) ) ;
#47 =( NAMED_UNIT ( * ) SI_UNIT ( $, .STERADIAN. ) SOLID_ANGLE_UNIT ( ) );
#48 =( LENGTH_UNIT ( ) NAMED_UNIT ( * ) SI_UNIT ( .MILLI., .METRE. ) );
#49 = ORIENTED_EDGE ( 'NONE', *, *, #696, .T. ) ;
#50 = CARTESIAN_POINT ( 'NONE',  ( 2.899999999999997247, 1.050000000000000044, 5.099999999999999645 ) ) ;
#51 = VECTOR ( 'NONE', #278, 1000.000000000000000 ) ;
#52 = FACE_OUTER_BOUND ( 'NONE', #861, .T. ) ;
#53 = VERTEX_POINT ( 'NONE', #160 ) ;
#54 = CARTESIAN_POINT ( 'NONE',  ( -3.200000000000000178, 0.7499999999999997780, 5.099999999999999645 ) ) ;
#55 = VERTEX_POINT ( 'NONE', #517 ) ;
#56 = EDGE_CURVE ( 'NONE', #573, #457, #215, .T. ) ;
#57 = DIRECTION ( 'NONE',  ( 0.7071067811865485719, 0.7071067811865465735, 8.659560562354946417E-17 ) ) ;
#58 = ORIENTED_EDGE ( 'NONE', *, *, #82, .F. ) ;
#59 = ORIENTED_EDGE ( 'NONE', *, *, #643, .F. ) ;
#60 = DIRECTION ( 'NONE',  ( -1.000000000000000000, -0.0000000000000000000, -0.0000000000000000000 ) ) ;
#61 = CIRCLE ( 'NONE', #451, 0.2999999999999999334 ) ;
#62 = CARTESIAN_POINT ( 'NONE',  ( -1.626303258728231691E-17, 1.950000000000004174, 0.0000000000000000000 ) ) ;
#63 = AXIS2_PLACEMENT_3D ( 'NONE', #671, #537, #889 ) ;
#64 = ORIENTED_EDGE ( 'NONE', *, *, #858, .T. ) ;
#65 = LINE ( 'NONE', #319, #322 ) ;
#66 = DIRECTION ( 'NONE',  ( -1.000000000000000000, 0.0000000000000000000, 0.0000000000000000000 ) ) ;
#67 = EDGE_CURVE ( 'NONE', #375, #414, #242, .T. ) ;
#68 = CARTESIAN_POINT ( 'NONE',  ( 2.791385019445601579, -2.249999999999999556, 5.099999999999999645 ) ) ;
#69 = ORIENTED_EDGE ( 'NONE', *, *, #873, .T. ) ;
#70 = DIRECTION ( 'NONE',  ( 0.0000000000000000000, 0.0000000000000000000, -1.000000000000000000 ) ) ;
#71 = CARTESIAN_POINT ( 'NONE',  ( -2.900000000000000355, 1.949999999999999956, 5.099999999999999645 ) ) ;
#72 = ADVANCED_FACE ( 'NONE', ( #302 ), #232, .F. ) ;
#73 = CARTESIAN_POINT ( 'NONE',  ( -4.700000000000001066, 0.7499999999999997780, 5.099999999999999645 ) ) ;
#74 = DIRECTION ( 'NONE',  ( -1.000000000000000000, 0.0000000000000000000, 0.0000000000000000000 ) ) ;
#75 = AXIS2_PLACEMENT_3D ( 'NONE', #800, #664, #757 ) ;
#76 = DIRECTION ( 'NONE',  ( -1.000000000000000000, 0.0000000000000000000, 0.0000000000000000000 ) ) ;
#77 = MECHANICAL_DESIGN_GEOMETRIC_PRESENTATION_REPRESENTATION (  '', ( #34 ), #703 ) ;
#78 = AXIS2_PLACEMENT_3D ( 'NONE', #767, #146, #407 ) ;
#79 = ORIENTED_EDGE ( 'NONE', *, *, #351, .T. ) ;
#80 = EDGE_CURVE ( 'NONE', #557, #588, #275, .T. ) ;
#81 = ORIENTED_EDGE ( 'NONE', *, *, #620, .T. ) ;
#82 = EDGE_CURVE ( 'NONE', #597, #224, #805, .T. ) ;
#83 = VERTEX_POINT ( 'NONE', #110 ) ;
#84 = UNCERTAINTY_MEASURE_WITH_UNIT (LENGTH_MEASURE( 1.000000000000000082E-05 ), #530, 'distance_accuracy_value', 'NONE');
#85 = ORIENTED_EDGE ( 'NONE', *, *, #494, .T. ) ;
#86 = DIRECTION ( 'NONE',  ( -0.0000000000000000000, -0.0000000000000000000, 1.000000000000000000 ) ) ;
#87 = ORIENTED_EDGE ( 'NONE', *, *, #371, .T. ) ;
#88 = ADVANCED_FACE ( 'NONE', ( #305 ), #795, .F. ) ;
#89 = VECTOR ( 'NONE', #358, 1000.000000000000000 ) ;
#90 = AXIS2_PLACEMENT_3D ( 'NONE', #226, #170, #734 ) ;
#91 = ORIENTED_EDGE ( 'NONE', *, *, #401, .T. ) ;
#92 = AXIS2_PLACEMENT_3D ( 'NONE', #621, #2, #149 ) ;
#93 = DIRECTION ( 'NONE',  ( 0.0000000000000000000, 0.0000000000000000000, -1.000000000000000000 ) ) ;
#94 = SURFACE_SIDE_STYLE ('',( #116 ) ) ;
#95 = EDGE_CURVE ( 'NONE', #123, #195, #572, .T. ) ;
#96 = ADVANCED_FACE ( 'NONE', ( #804 ), #164, .F. ) ;
#97 = ORIENTED_EDGE ( 'NONE', *, *, #280, .F. ) ;
#98 = PRESENTATION_STYLE_ASSIGNMENT (( #723 ) ) ;
#99 = CARTESIAN_POINT ( 'NONE',  ( 2.899999999999996803, 0.7499999999999997780, 5.099999999999999645 ) ) ;
#100 = ORIENTED_EDGE ( 'NONE', *, *, #903, .F. ) ;
#101 = FACE_OUTER_BOUND ( 'NONE', #32, .T. ) ;
#102 = DIRECTION ( 'NONE',  ( -0.0000000000000000000, -0.0000000000000000000, 1.000000000000000000 ) ) ;
#103 = CARTESIAN_POINT ( 'NONE',  ( -2.439454888092385470E-16, -2.250000000000000888, 0.0000000000000000000 ) ) ;
#104 = ORIENTED_EDGE ( 'NONE', *, *, #545, .F. ) ;
#105 = FACE_OUTER_BOUND ( 'NONE', #668, .T. ) ;
#106 = EDGE_CURVE ( 'NONE', #588, #403, #250, .T. ) ;
#107 = CIRCLE ( 'NONE', #642, 2.000000000000000000 ) ;
#108 = PLANE ( 'NONE',  #406 ) ;
#109 = LINE ( 'NONE', #30, #458 ) ;
#110 = CARTESIAN_POINT ( 'NONE',  ( 4.592055319899342791, -0.8399539000838801561, -5.099999999999999645 ) ) ;
#111 = CARTESIAN_POINT ( 'NONE',  ( -2.000000000000000444, -2.250000000000000888, 0.0000000000000000000 ) ) ;
#112 = VERTEX_POINT ( 'NONE', #320 ) ;
#113 = CARTESIAN_POINT ( 'NONE',  ( -4.700000000000001066, 0.4499999999999996780, 5.099999999999999645 ) ) ;
#114 = CARTESIAN_POINT ( 'NONE',  ( -2.900000000000000355, 2.250000000000000000, -5.099999999999999645 ) ) ;
#115 = FILL_AREA_STYLE ('',( #793 ) ) ;
#116 = SURFACE_STYLE_FILL_AREA ( #178 ) ;
#117 = ADVANCED_FACE ( 'NONE', ( #101 ), #814, .T. ) ;
#118 = ORIENTED_EDGE ( 'NONE', *, *, #667, .F. ) ;
#119 =( NAMED_UNIT ( * ) SI_UNIT ( $, .STERADIAN. ) SOLID_ANGLE_UNIT ( ) );
#120 = DIRECTION ( 'NONE',  ( 1.000000000000000000, 1.495451272393799296E-16, -0.0000000000000000000 ) ) ;
#121 = DIRECTION ( 'NONE',  ( -0.0000000000000000000, -0.0000000000000000000, 1.000000000000000000 ) ) ;
#122 = ADVANCED_FACE ( 'NONE', ( #522 ), #108, .F. ) ;
#123 = VERTEX_POINT ( 'NONE', #460 ) ;
#124 = AXIS2_PLACEMENT_3D ( 'NONE', #897, #841, #133 ) ;
#125 = FACE_OUTER_BOUND ( 'NONE', #521, .T. ) ;
#126 = AXIS2_PLACEMENT_3D ( 'NONE', #471, #627, #469 ) ;
#127 = EDGE_CURVE ( 'NONE', #83, #597, #883, .T. ) ;
#128 = ORIENTED_EDGE ( 'NONE', *, *, #28, .F. ) ;
#129 = CARTESIAN_POINT ( 'NONE',  ( -2.600000000000000533, 2.250000000000000000, 5.099999999999999645 ) ) ;
#130 = AXIS2_PLACEMENT_3D ( 'NONE', #400, #334, #41 ) ;
#131 = ORIENTED_EDGE ( 'NONE', *, *, #221, .T. ) ;
#132 = CARTESIAN_POINT ( 'NONE',  ( -4.400000000000001243, 0.7499999999999997780, -5.099999999999999645 ) ) ;
#133 = DIRECTION ( 'NONE',  ( 0.0000000000000000000, -0.0000000000000000000, -1.000000000000000000 ) ) ;
#134 = ORIENTED_EDGE ( 'NONE', *, *, #209, .T. ) ;
#135 = CARTESIAN_POINT ( 'NONE',  ( 3.199999999999997069, 1.049999999999999822, 5.099999999999999645 ) ) ;
#136 = AXIS2_PLACEMENT_3D ( 'NONE', #659, #741, #459 ) ;
#137 = EDGE_CURVE ( 'NONE', #195, #573, #742, .T. ) ;
#138 = DIRECTION ( 'NONE',  ( -1.000000000000000000, -7.228014483236697541E-16, 0.0000000000000000000 ) ) ;
#139 = ORIENTED_EDGE ( 'NONE', *, *, #535, .F. ) ;
#140 = CARTESIAN_POINT ( 'NONE',  ( -2.791385019445600246, -2.250000000000000444, 5.099999999999999645 ) ) ;
#141 = ORIENTED_EDGE ( 'NONE', *, *, #106, .T. ) ;
#142 = CARTESIAN_POINT ( 'NONE',  ( 4.699999999999998401, 0.7499999999999997780, 5.099999999999999645 ) ) ;
#143 = ADVANCED_FACE ( 'NONE', ( #168, #52 ), #797, .F. ) ;
#144 = CARTESIAN_POINT ( 'NONE',  ( -2.900000000000000355, 1.949999999999999956, 5.099999999999999645 ) ) ;
#145 = VERTEX_POINT ( 'NONE', #249 ) ;
#146 = DIRECTION ( 'NONE',  ( 5.421010862427519089E-17, 1.000000000000000000, 0.0000000000000000000 ) ) ;
#147 = CARTESIAN_POINT ( 'NONE',  ( -4.400000000000000355, -0.6094875162046673456, 5.099999999999999645 ) ) ;
#148 = DIRECTION ( 'NONE',  ( 0.0000000000000000000, 0.0000000000000000000, -1.000000000000000000 ) ) ;
#149 = DIRECTION ( 'NONE',  ( -1.000000000000000000, 0.0000000000000000000, 0.0000000000000000000 ) ) ;
#150 = ADVANCED_FACE ( 'NONE', ( #660 ), #744, .T. ) ;
#151 = CARTESIAN_POINT ( 'NONE',  ( 2.899999999999997247, 1.050000000000000044, -5.099999999999999645 ) ) ;
#152 = VERTEX_POINT ( 'NONE', #464 ) ;
#153 = ORIENTED_EDGE ( 'NONE', *, *, #866, .F. ) ;
#154 = ADVANCED_FACE ( 'NONE', ( #125 ), #381, .T. ) ;
#155 = VERTEX_POINT ( 'NONE', #442 ) ;
#156 = PRODUCT_DEFINITION_CONTEXT ( 'detailed design', #509, 'design' ) ;
#157 = ORIENTED_EDGE ( 'NONE', *, *, #426, .T. ) ;
#158 = DIRECTION ( 'NONE',  ( -1.000000000000000000, 0.0000000000000000000, 0.0000000000000000000 ) ) ;
#159 = EDGE_CURVE ( 'NONE', #403, #414, #806, .T. ) ;
#160 = CARTESIAN_POINT ( 'NONE',  ( 4.399999999999998579, 0.7499999999999997780, -5.099999999999999645 ) ) ;
#161 = ORIENTED_EDGE ( 'NONE', *, *, #643, .T. ) ;
#162 = CIRCLE ( 'NONE', #216, 0.2999999999999999334 ) ;
#163 = SURFACE_SIDE_STYLE ('',( #790 ) ) ;
#164 = CYLINDRICAL_SURFACE ( 'NONE', #307, 2.000000000000000000 ) ;
#165 = ORIENTED_EDGE ( 'NONE', *, *, #159, .F. ) ;
#166 =( GEOMETRIC_REPRESENTATION_CONTEXT ( 3 ) GLOBAL_UNCERTAINTY_ASSIGNED_CONTEXT ( ( #638 ) ) GLOBAL_UNIT_ASSIGNED_CONTEXT ( ( #311, #510, #448 ) ) REPRESENTATION_CONTEXT ( 'NONE', 'WORKASPACE' ) );
#167 = DIRECTION ( 'NONE',  ( -1.000000000000000000, 0.0000000000000000000, 0.0000000000000000000 ) ) ;
#168 = FACE_BOUND ( 'NONE', #474, .T. ) ;
#169 = CARTESIAN_POINT ( 'NONE',  ( 2.791385019445601579, -1.949999999999999512, 5.099999999999999645 ) ) ;
#170 = DIRECTION ( 'NONE',  ( 1.000000000000000000, 5.782411586589356653E-16, -0.0000000000000000000 ) ) ;
#171 = VERTEX_POINT ( 'NONE', #54 ) ;
#172 = DIRECTION ( 'NONE',  ( 0.0000000000000000000, 0.0000000000000000000, -1.000000000000000000 ) ) ;
#173 = DIRECTION ( 'NONE',  ( -1.000000000000000000, 0.0000000000000000000, -0.0000000000000000000 ) ) ;
#174 = ORIENTED_EDGE ( 'NONE', *, *, #519, .T. ) ;
#175 = VECTOR ( 'NONE', #835, 1000.000000000000000 ) ;
#176 = AXIS2_PLACEMENT_3D ( 'NONE', #738, #581, #444 ) ;
#177 = CYLINDRICAL_SURFACE ( 'NONE', #136, 0.2999999999999999334 ) ;
#178 = FILL_AREA_STYLE ('',( #42 ) ) ;
#179 = ORIENTED_EDGE ( 'NONE', *, *, #409, .F. ) ;
#180 =( NAMED_UNIT ( * ) PLANE_ANGLE_UNIT ( ) SI_UNIT ( $, .RADIAN. ) );
#181 = STYLED_ITEM ( 'NONE', ( #98 ), #446 ) ;
#182 = CARTESIAN_POINT ( 'NONE',  ( -4.400000000000001243, 0.7499999999999997780, 5.099999999999999645 ) ) ;
#183 = ORIENTED_EDGE ( 'NONE', *, *, #137, .T. ) ;
#184 = CARTESIAN_POINT ( 'NONE',  ( 2.900000000000000799, -2.249999999999999556, -5.099999999999999645 ) ) ;
#185 = DIRECTION ( 'NONE',  ( -1.495451272393799296E-16, 1.000000000000000000, 0.0000000000000000000 ) ) ;
#186 = ADVANCED_FACE ( 'NONE', ( #731 ), #877, .F. ) ;
#187 = ADVANCED_FACE ( 'NONE', ( #230 ), #515, .F. ) ;
#188 = ORIENTED_EDGE ( 'NONE', *, *, #211, .F. ) ;
#189 = AXIS2_PLACEMENT_3D ( 'NONE', #219, #651, #587 ) ;
#190 = CARTESIAN_POINT ( 'NONE',  ( -2.900000000000000355, 2.250000000000000000, 5.099999999999999645 ) ) ;
#191 = EDGE_CURVE ( 'NONE', #579, #441, #551, .T. ) ;
#192 = ORIENTED_EDGE ( 'NONE', *, *, #67, .F. ) ;
#193 = DIRECTION ( 'NONE',  ( -0.0000000000000000000, 1.000000000000000000, -0.0000000000000000000 ) ) ;
#194 = LINE ( 'NONE', #843, #604 ) ;
#195 = VERTEX_POINT ( 'NONE', #132 ) ;
#196 = ADVANCED_FACE ( 'NONE', ( #560 ), #260, .F. ) ;
#197 = ORIENTED_EDGE ( 'NONE', *, *, #701, .F. ) ;
#198 = CARTESIAN_POINT ( 'NONE',  ( -4.700000000000000178, -0.6094875162046676786, 5.099999999999999645 ) ) ;
#199 = FACE_OUTER_BOUND ( 'NONE', #783, .T. ) ;
#200 = VERTEX_POINT ( 'NONE', #611 ) ;
#201 = LINE ( 'NONE', #481, #405 ) ;
#202 = CARTESIAN_POINT ( 'NONE',  ( -2.791385019445600246, -1.950000000000000400, 5.099999999999999645 ) ) ;
#203 = CIRCLE ( 'NONE', #845, 2.000000000000000000 ) ;
#204 = CARTESIAN_POINT ( 'NONE',  ( -2.900000000000000355, 1.949999999999999956, -5.099999999999999645 ) ) ;
#205 = AXIS2_PLACEMENT_3D ( 'NONE', #411, #277, #824 ) ;
#206 = ORIENTED_EDGE ( 'NONE', *, *, #391, .T. ) ;
#207 = DIRECTION ( 'NONE',  ( -0.0000000000000000000, -0.0000000000000000000, 1.000000000000000000 ) ) ;
#208 = CARTESIAN_POINT ( 'NONE',  ( 2.000000000000000000, 1.950000000000004174, 2.449293598294706414E-16 ) ) ;
#209 = EDGE_CURVE ( 'NONE', #588, #38, #839, .T. ) ;
#210 = DIRECTION ( 'NONE',  ( 5.421010862427519089E-17, 1.000000000000000000, 0.0000000000000000000 ) ) ;
#211 = EDGE_CURVE ( 'NONE', #224, #826, #5, .T. ) ;
#212 = CARTESIAN_POINT ( 'NONE',  ( -1.626303258728231691E-17, 1.950000000000004174, 0.0000000000000000000 ) ) ;
#213 = CARTESIAN_POINT ( 'NONE',  ( -2.600000000000000533, 1.949999999999999956, 5.099999999999999645 ) ) ;
#214 = VECTOR ( 'NONE', #765, 1000.000000000000000 ) ;
#215 = CIRCLE ( 'NONE', #735, 0.2999999999999999334 ) ;
#216 = AXIS2_PLACEMENT_3D ( 'NONE', #419, #690, #66 ) ;
#217 = VERTEX_POINT ( 'NONE', #273 ) ;
#218 = ORIENTED_EDGE ( 'NONE', *, *, #56, .T. ) ;
#219 = CARTESIAN_POINT ( 'NONE',  ( -4.400000000000000355, -0.6094875162046673456, 5.099999999999999645 ) ) ;
#220 = EDGE_LOOP ( 'NONE', ( #412, #372, #869, #183 ) ) ;
#221 = EDGE_CURVE ( 'NONE', #155, #20, #829, .T. ) ;
#222 = LINE ( 'NONE', #508, #686 ) ;
#223 = LINE ( 'NONE', #443, #234 ) ;
#224 = VERTEX_POINT ( 'NONE', #609 ) ;
#225 = FILL_AREA_STYLE ('',( #785 ) ) ;
#226 = CARTESIAN_POINT ( 'NONE',  ( -4.700000000000001066, 0.7499999999999997780, 5.099999999999999645 ) ) ;
#227 = VECTOR ( 'NONE', #424, 1000.000000000000000 ) ;
#228 = VECTOR ( 'NONE', #648, 1000.000000000000000 ) ;
#229 = EDGE_LOOP ( 'NONE', ( #644, #550, #174, #836 ) ) ;
#230 = FACE_OUTER_BOUND ( 'NONE', #676, .T. ) ;
#231 = DIRECTION ( 'NONE',  ( -1.000000000000000000, 0.0000000000000000000, 0.0000000000000000000 ) ) ;
#232 = PLANE ( 'NONE',  #848 ) ;
#233 = ORIENTED_EDGE ( 'NONE', *, *, #252, .T. ) ;
#234 = VECTOR ( 'NONE', #503, 1000.000000000000000 ) ;
#235 = DIRECTION ( 'NONE',  ( -1.000000000000000000, 0.0000000000000000000, 0.0000000000000000000 ) ) ;
#236 = DIRECTION ( 'NONE',  ( -0.0000000000000000000, -0.0000000000000000000, 1.000000000000000000 ) ) ;
#237 = DIRECTION ( 'NONE',  ( -1.000000000000000000, 0.0000000000000000000, 0.0000000000000000000 ) ) ;
#238 = ORIENTED_EDGE ( 'NONE', *, *, #356, .T. ) ;
#239 = SURFACE_SIDE_STYLE ('',( #463 ) ) ;
#240 = FILL_AREA_STYLE ('',( #253 ) ) ;
#241 = DIRECTION ( 'NONE',  ( 0.0000000000000000000, 0.0000000000000000000, -1.000000000000000000 ) ) ;
#242 = LINE ( 'NONE', #662, #341 ) ;
#243 = AXIS2_PLACEMENT_3D ( 'NONE', #850, #502, #771 ) ;
#244 = ORIENTED_EDGE ( 'NONE', *, *, #713, .F. ) ;
#245 = AXIS2_PLACEMENT_3D ( 'NONE', #809, #316, #235 ) ;
#246 = AXIS2_PLACEMENT_3D ( 'NONE', #394, #172, #802 ) ;
#247 = CARTESIAN_POINT ( 'NONE',  ( 4.399999999999998579, -0.6094875162046674566, -5.099999999999999645 ) ) ;
#248 = AXIS2_PLACEMENT_3D ( 'NONE', #147, #346, #138 ) ;
#249 = CARTESIAN_POINT ( 'NONE',  ( -2.000000000000000000, 1.950000000000004174, 0.0000000000000000000 ) ) ;
#250 = LINE ( 'NONE', #538, #408 ) ;
#251 = ORIENTED_EDGE ( 'NONE', *, *, #832, .F. ) ;
#252 = EDGE_CURVE ( 'NONE', #821, #38, #756, .T. ) ;
#253 = FILL_AREA_STYLE_COLOUR ( '', #834 ) ;
#254 = CARTESIAN_POINT ( 'NONE',  ( 4.592055319899342791, -0.8399539000838801561, 5.099999999999999645 ) ) ;
#255 = APPLICATION_PROTOCOL_DEFINITION ( 'draft international standard', 'automotive_design', 1998, #509 ) ;
#256 = VERTEX_POINT ( 'NONE', #749 ) ;
#257 = DIRECTION ( 'NONE',  ( 0.0000000000000000000, 0.0000000000000000000, -1.000000000000000000 ) ) ;
#258 = ORIENTED_EDGE ( 'NONE', *, *, #252, .F. ) ;
#259 = AXIS2_PLACEMENT_3D ( 'NONE', #712, #429, #288 ) ;
#260 = PLANE ( 'NONE',  #366 ) ;
#261 = AXIS2_PLACEMENT_3D ( 'NONE', #555, #257, #833 ) ;
#262 = CARTESIAN_POINT ( 'NONE',  ( -4.400000000000000355, -0.6094875162046673456, -5.099999999999999645 ) ) ;
#263 = VERTEX_POINT ( 'NONE', #680 ) ;
#264 = VECTOR ( 'NONE', #236, 1000.000000000000000 ) ;
#265 = LINE ( 'NONE', #71, #290 ) ;
#266 = ORIENTED_EDGE ( 'NONE', *, *, #840, .F. ) ;
#267 = DIRECTION ( 'NONE',  ( 5.421010862427522170E-17, 1.000000000000000000, 0.0000000000000000000 ) ) ;
#268 = EDGE_LOOP ( 'NONE', ( #720, #851, #3, #398 ) ) ;
#269 = CARTESIAN_POINT ( 'NONE',  ( 4.699999999999998401, -0.7500000000000002220, -5.099999999999999645 ) ) ;
#270 = CARTESIAN_POINT ( 'NONE',  ( -2.439454888092385470E-16, -2.250000000000000888, 0.0000000000000000000 ) ) ;
#271 = ORIENTED_EDGE ( 'NONE', *, *, #784, .T. ) ;
#272 = EDGE_CURVE ( 'NONE', #663, #792, #477, .T. ) ;
#273 = CARTESIAN_POINT ( 'NONE',  ( -2.983440339344944014, -2.180466383879212877, 5.099999999999999645 ) ) ;
#274 = AXIS2_PLACEMENT_3D ( 'NONE', #247, #536, #593 ) ;
#275 = CIRCLE ( 'NONE', #325, 0.2999999999999999334 ) ;
#276 = CONICAL_SURFACE ( 'NONE', #78, 2.000000000000000000, 0.7853981633974497223 ) ;
#277 = DIRECTION ( 'NONE',  ( 0.0000000000000000000, -1.000000000000000000, 0.0000000000000000000 ) ) ;
#278 = DIRECTION ( 'NONE',  ( 0.0000000000000000000, 0.0000000000000000000, -1.000000000000000000 ) ) ;
#279 = LINE ( 'NONE', #564, #327 ) ;
#280 = EDGE_CURVE ( 'NONE', #470, #821, #820, .T. ) ;
#281 = CARTESIAN_POINT ( 'NONE',  ( 2.899999999999997691, 1.949999999999999734, -5.099999999999999645 ) ) ;
#282 = CARTESIAN_POINT ( 'NONE',  ( 2.599999999999997868, 2.250000000000000000, 5.099999999999999645 ) ) ;
#283 = DIRECTION ( 'NONE',  ( -1.000000000000000000, 0.0000000000000000000, 0.0000000000000000000 ) ) ;
#284 = CARTESIAN_POINT ( 'NONE',  ( -2.900000000000000355, 0.7499999999999997780, -5.099999999999999645 ) ) ;
#285 = VERTEX_POINT ( 'NONE', #899 ) ;
#286 = CARTESIAN_POINT ( 'NONE',  ( 4.699999999999998401, -0.6094875162046674566, -5.099999999999999645 ) ) ;
#287 = VECTOR ( 'NONE', #413, 1000.000000000000000 ) ;
#288 = DIRECTION ( 'NONE',  ( -0.7682212795973756281, -0.6401843996644801527, 0.0000000000000000000 ) ) ;
#289 = ORIENTED_EDGE ( 'NONE', *, *, #455, .F. ) ;
#290 = VECTOR ( 'NONE', #830, 1000.000000000000000 ) ;
#291 = UNCERTAINTY_MEASURE_WITH_UNIT (LENGTH_MEASURE( 1.000000000000000082E-05 ), #598, 'distance_accuracy_value', 'NONE');
#292 = ADVANCED_FACE ( 'NONE', ( #683 ), #340, .F. ) ;
#293 = VECTOR ( 'NONE', #57, 1000.000000000000000 ) ;
#294 = ORIENTED_EDGE ( 'NONE', *, *, #568, .T. ) ;
#295 = CARTESIAN_POINT ( 'NONE',  ( 2.899999999999998135, 2.250000000000000000, 5.099999999999999645 ) ) ;
#296 = ORIENTED_EDGE ( 'NONE', *, *, #323, .T. ) ;
#297 = CIRCLE ( 'NONE', #901, 0.2999999999999999334 ) ;
#298 = ORIENTED_EDGE ( 'NONE', *, *, #827, .F. ) ;
#299 = ADVANCED_FACE ( 'NONE', ( #894 ), #276, .F. ) ;
#300 = DIRECTION ( 'NONE',  ( 0.0000000000000000000, 0.0000000000000000000, 1.000000000000000000 ) ) ;
#301 = DIRECTION ( 'NONE',  ( -1.000000000000000000, 0.0000000000000000000, 0.0000000000000000000 ) ) ;
#302 = FACE_OUTER_BOUND ( 'NONE', #359, .T. ) ;
#303 = ORIENTED_EDGE ( 'NONE', *, *, #868, .F. ) ;
#304 = FACE_OUTER_BOUND ( 'NONE', #618, .T. ) ;
#305 = FACE_OUTER_BOUND ( 'NONE', #751, .T. ) ;
#306 = VECTOR ( 'NONE', #569, 1000.000000000000000 ) ;
#307 = AXIS2_PLACEMENT_3D ( 'NONE', #103, #884, #601 ) ;
#308 = VECTOR ( 'NONE', #822, 1000.000000000000000 ) ;
#309 = LINE ( 'NONE', #314, #33 ) ;
#310 = DIRECTION ( 'NONE',  ( -1.000000000000000000, -1.495451272393799296E-16, 0.0000000000000000000 ) ) ;
#311 =( LENGTH_UNIT ( ) NAMED_UNIT ( * ) SI_UNIT ( .MILLI., .METRE. ) );
#312 = EDGE_CURVE ( 'NONE', #887, #256, #162, .T. ) ;
#313 = EDGE_LOOP ( 'NONE', ( #796, #739, #337, #44 ) ) ;
#314 = CARTESIAN_POINT ( 'NONE',  ( -2.000000000000000444, -2.250000000000000888, 0.0000000000000000000 ) ) ;
#315 = DIRECTION ( 'NONE',  ( -1.000000000000000000, -0.0000000000000000000, -0.0000000000000000000 ) ) ;
#316 = DIRECTION ( 'NONE',  ( 0.0000000000000000000, 0.0000000000000000000, -1.000000000000000000 ) ) ;
#317 = ORIENTED_EDGE ( 'NONE', *, *, #272, .F. ) ;
#318 = ORIENTED_EDGE ( 'NONE', *, *, #696, .F. ) ;
#319 = CARTESIAN_POINT ( 'NONE',  ( -2.900000000000000355, 0.7499999999999997780, 5.099999999999999645 ) ) ;
#320 = CARTESIAN_POINT ( 'NONE',  ( -2.299999999999996270, 2.250000000000000000, 0.0000000000000000000 ) ) ;
#321 = PRODUCT_RELATED_PRODUCT_CATEGORY ( 'part', '', ( #542 ) ) ;
#322 = VECTOR ( 'NONE', #882, 1000.000000000000000 ) ;
#323 = EDGE_CURVE ( 'NONE', #152, #766, #837, .T. ) ;
#324 = EDGE_LOOP ( 'NONE', ( #10, #857, #161, #64 ) ) ;
#325 = AXIS2_PLACEMENT_3D ( 'NONE', #31, #860, #435 ) ;
#326 = FACE_OUTER_BOUND ( 'NONE', #815, .T. ) ;
#327 = VECTOR ( 'NONE', #842, 1000.000000000000000 ) ;
#328 = DIRECTION ( 'NONE',  ( 0.0000000000000000000, -0.0000000000000000000, -1.000000000000000000 ) ) ;
#329 = ORIENTED_EDGE ( 'NONE', *, *, #43, .T. ) ;
#330 = CARTESIAN_POINT ( 'NONE',  ( -2.900000000000000355, 0.7499999999999997780, 5.099999999999999645 ) ) ;
#331 = PRODUCT_CONTEXT ( 'NONE', #645, 'mechanical' ) ;
#332 = ORIENTED_EDGE ( 'NONE', *, *, #879, .F. ) ;
#333 = CARTESIAN_POINT ( 'NONE',  ( -2.600000000000000533, 1.949999999999999956, -5.099999999999999645 ) ) ;
#334 = DIRECTION ( 'NONE',  ( 0.0000000000000000000, 0.0000000000000000000, 1.000000000000000000 ) ) ;
#335 = EDGE_CURVE ( 'NONE', #475, #83, #1, .T. ) ;
#336 = LINE ( 'NONE', #478, #175 ) ;
#337 = ORIENTED_EDGE ( 'NONE', *, *, #371, .F. ) ;
#338 = ORIENTED_EDGE ( 'NONE', *, *, #356, .F. ) ;
#339 = VECTOR ( 'NONE', #754, 1000.000000000000000 ) ;
#340 = CYLINDRICAL_SURFACE ( 'NONE', #483, 0.2999999999999999334 ) ;
#341 = VECTOR ( 'NONE', #439, 1000.000000000000000 ) ;
#342 = CARTESIAN_POINT ( 'NONE',  ( -2.791385019445600246, -2.250000000000000444, 5.099999999999999645 ) ) ;
#343 = EDGE_LOOP ( 'NONE', ( #179, #453, #902, #630 ) ) ;
#344 = LINE ( 'NONE', #114, #465 ) ;
#345 = CARTESIAN_POINT ( 'NONE',  ( 3.199999999999997069, 1.049999999999999822, 5.099999999999999645 ) ) ;
#346 = DIRECTION ( 'NONE',  ( -0.0000000000000000000, -0.0000000000000000000, 1.000000000000000000 ) ) ;
#347 = EDGE_LOOP ( 'NONE', ( #501, #649, #266, #118 ) ) ;
#348 = CYLINDRICAL_SURFACE ( 'NONE', #758, 0.2999999999999999334 ) ;
#349 = DIRECTION ( 'NONE',  ( 0.0000000000000000000, 0.0000000000000000000, 1.000000000000000000 ) ) ;
#350 = CARTESIAN_POINT ( 'NONE',  ( 2.899999999999997691, 1.949999999999999734, 5.099999999999999645 ) ) ;
#351 = EDGE_CURVE ( 'NONE', #200, #171, #657, .T. ) ;
#352 = CARTESIAN_POINT ( 'NONE',  ( -2.791385019445600246, -2.250000000000000444, -5.099999999999999645 ) ) ;
#353 = CYLINDRICAL_SURFACE ( 'NONE', #732, 0.2999999999999999334 ) ;
#354 = CARTESIAN_POINT ( 'NONE',  ( -2.000000000000000000, 1.950000000000004174, 0.0000000000000000000 ) ) ;
#355 = EDGE_CURVE ( 'NONE', #217, #534, #778, .T. ) ;
#356 = EDGE_CURVE ( 'NONE', #145, #663, #107, .T. ) ;
#357 = VECTOR ( 'NONE', #37, 1000.000000000000000 ) ;
#358 = DIRECTION ( 'NONE',  ( 5.782411586589356653E-16, -1.000000000000000000, 0.0000000000000000000 ) ) ;
#359 = EDGE_LOOP ( 'NONE', ( #329, #682, #539, #582, #24, #392, #438, #296, #526, #507, #134, #610, #708, #79, #748, #218, #678, #206, #69, #27 ) ) ;
#360 = PLANE ( 'NONE',  #571 ) ;
#361 = EDGE_CURVE ( 'NONE', #285, #53, #279, .T. ) ;
#362 = VERTEX_POINT ( 'NONE', #352 ) ;
#363 = ORIENTED_EDGE ( 'NONE', *, *, #562, .T. ) ;
#364 = VECTOR ( 'NONE', #120, 1000.000000000000000 ) ;
#365 = ORIENTED_EDGE ( 'NONE', *, *, #280, .T. ) ;
#366 = AXIS2_PLACEMENT_3D ( 'NONE', #619, #694, #415 ) ;
#367 = AXIS2_PLACEMENT_3D ( 'NONE', #212, #563, #628 ) ;
#368 = ORIENTED_EDGE ( 'NONE', *, *, #351, .F. ) ;
#369 = LINE ( 'NONE', #661, #416 ) ;
#370 =( NAMED_UNIT ( * ) SI_UNIT ( $, .STERADIAN. ) SOLID_ANGLE_UNIT ( ) );
#371 = EDGE_CURVE ( 'NONE', #112, #792, #838, .T. ) ;
#372 = ORIENTED_EDGE ( 'NONE', *, *, #461, .T. ) ;
#373 = CARTESIAN_POINT ( 'NONE',  ( -2.600000000000000533, 2.250000000000000000, -5.099999999999999645 ) ) ;
#374 = DIRECTION ( 'NONE',  ( 0.0000000000000000000, -1.000000000000000000, 0.0000000000000000000 ) ) ;
#375 = VERTEX_POINT ( 'NONE', #417 ) ;
#376 = ADVANCED_FACE ( 'NONE', ( #691 ), #762, .F. ) ;
#377 = SURFACE_STYLE_FILL_AREA ( #115 ) ;
#378 = DIRECTION ( 'NONE',  ( -0.0000000000000000000, -0.0000000000000000000, 1.000000000000000000 ) ) ;
#379 = ORIENTED_EDGE ( 'NONE', *, *, #426, .F. ) ;
#380 = LINE ( 'NONE', #599, #817 ) ;
#381 = CYLINDRICAL_SURFACE ( 'NONE', #246, 0.2999999999999999334 ) ;
#382 = CARTESIAN_POINT ( 'NONE',  ( -2.983440339344944014, -2.180466383879212877, 5.099999999999999645 ) ) ;
#383 = DIRECTION ( 'NONE',  ( -0.0000000000000000000, -0.0000000000000000000, 1.000000000000000000 ) ) ;
#384 = ORIENTED_EDGE ( 'NONE', *, *, #476, .F. ) ;
#385 = DIRECTION ( 'NONE',  ( 0.0000000000000000000, 0.0000000000000000000, -1.000000000000000000 ) ) ;
#386 = CARTESIAN_POINT ( 'NONE',  ( 0.0000000000000000000, 0.0000000000000000000, 5.099999999999999645 ) ) ;
#387 = ORIENTED_EDGE ( 'NONE', *, *, #43, .F. ) ;
#388 = LINE ( 'NONE', #113, #7 ) ;
#389 = CARTESIAN_POINT ( 'NONE',  ( -4.592055319899344568, -0.8399539000838801561, 5.099999999999999645 ) ) ;
#390 = CARTESIAN_POINT ( 'NONE',  ( 2.900000000000000799, -2.249999999999999556, 5.099999999999999645 ) ) ;
#391 = EDGE_CURVE ( 'NONE', #20, #729, #886, .T. ) ;
#392 = ORIENTED_EDGE ( 'NONE', *, *, #827, .T. ) ;
#393 = VECTOR ( 'NONE', #121, 1000.000000000000000 ) ;
#394 = CARTESIAN_POINT ( 'NONE',  ( 2.599999999999997868, 1.949999999999999956, 5.099999999999999645 ) ) ;
#395 = ORIENTED_EDGE ( 'NONE', *, *, #355, .F. ) ;
#396 = CIRCLE ( 'NONE', #811, 0.2999999999999999334 ) ;
#397 = DIRECTION ( 'NONE',  ( -1.000000000000000000, -0.0000000000000000000, -0.0000000000000000000 ) ) ;
#398 = ORIENTED_EDGE ( 'NONE', *, *, #545, .T. ) ;
#399 = DIRECTION ( 'NONE',  ( -1.000000000000000000, 0.0000000000000000000, 0.0000000000000000000 ) ) ;
#400 = CARTESIAN_POINT ( 'NONE',  ( 0.0000000000000000000, 0.0000000000000000000, 0.0000000000000000000 ) ) ;
#401 = EDGE_CURVE ( 'NONE', #475, #763, #485, .T. ) ;
#402 = LINE ( 'NONE', #68, #214 ) ;
#403 = VERTEX_POINT ( 'NONE', #423 ) ;
#404 = DIRECTION ( 'NONE',  ( -1.000000000000000000, 8.673617379884035472E-16, 0.0000000000000000000 ) ) ;
#405 = VECTOR ( 'NONE', #846, 1000.000000000000000 ) ;
#406 = AXIS2_PLACEMENT_3D ( 'NONE', #540, #40, #328 ) ;
#407 = DIRECTION ( 'NONE',  ( -1.000000000000000000, 0.0000000000000000000, 0.0000000000000000000 ) ) ;
#408 = VECTOR ( 'NONE', #810, 1000.000000000000000 ) ;
#409 = EDGE_CURVE ( 'NONE', #263, #597, #194, .T. ) ;
#410 = CYLINDRICAL_SURFACE ( 'NONE', #189, 0.2999999999999999334 ) ;
#411 = CARTESIAN_POINT ( 'NONE',  ( -9.768358055333191401E-33, 2.250000000000000000, 0.0000000000000000000 ) ) ;
#412 = ORIENTED_EDGE ( 'NONE', *, *, #773, .F. ) ;
#413 = DIRECTION ( 'NONE',  ( -0.0000000000000000000, -1.000000000000000000, -0.0000000000000000000 ) ) ;
#414 = VERTEX_POINT ( 'NONE', #281 ) ;
#415 = DIRECTION ( 'NONE',  ( -0.7682212795973759611, 0.6401843996644797086, 0.0000000000000000000 ) ) ;
#416 = VECTOR ( 'NONE', #640, 1000.000000000000000 ) ;
#417 = CARTESIAN_POINT ( 'NONE',  ( 2.899999999999997247, 1.050000000000000044, -5.099999999999999645 ) ) ;
#418 = EDGE_LOOP ( 'NONE', ( #298, #553, #847, #852 ) ) ;
#419 = CARTESIAN_POINT ( 'NONE',  ( -3.200000000000000178, 1.049999999999999822, -5.099999999999999645 ) ) ;
#420 = DIRECTION ( 'NONE',  ( 5.782411586589356653E-16, -1.000000000000000000, 0.0000000000000000000 ) ) ;
#421 = CARTESIAN_POINT ( 'NONE',  ( 4.592055319899342791, -0.8399539000838801561, 5.099999999999999645 ) ) ;
#422 = AXIS2_PLACEMENT_3D ( 'NONE', #456, #449, #237 ) ;
#423 = CARTESIAN_POINT ( 'NONE',  ( 2.599999999999997868, 2.250000000000000000, -5.099999999999999645 ) ) ;
#424 = DIRECTION ( 'NONE',  ( 0.0000000000000000000, 0.0000000000000000000, -1.000000000000000000 ) ) ;
#425 = ORIENTED_EDGE ( 'NONE', *, *, #653, .F. ) ;
#426 = EDGE_CURVE ( 'NONE', #777, #55, #532, .T. ) ;
#427 = UNCERTAINTY_MEASURE_WITH_UNIT (LENGTH_MEASURE( 1.000000000000000082E-05 ), #892, 'distance_accuracy_value', 'NONE');
#428 = ORIENTED_EDGE ( 'NONE', *, *, #361, .T. ) ;
#429 = DIRECTION ( 'NONE',  ( -0.6401843996644801527, 0.7682212795973756281, 0.0000000000000000000 ) ) ;
#430 = ORIENTED_EDGE ( 'NONE', *, *, #401, .F. ) ;
#431 = ORIENTED_EDGE ( 'NONE', *, *, #608, .T. ) ;
#432 = LINE ( 'NONE', #705, #480 ) ;
#433 = VECTOR ( 'NONE', #575, 1000.000000000000000 ) ;
#434 = LINE ( 'NONE', #382, #264 ) ;
#435 = DIRECTION ( 'NONE',  ( -1.000000000000000000, 1.445602896647339508E-15, 0.0000000000000000000 ) ) ;
#436 = PRESENTATION_LAYER_ASSIGNMENT (  '', '', ( #34 ) ) ;
#437 =( GEOMETRIC_REPRESENTATION_CONTEXT ( 3 ) GLOBAL_UNCERTAINTY_ASSIGNED_CONTEXT ( ( #84 ) ) GLOBAL_UNIT_ASSIGNED_CONTEXT ( ( #530, #737, #47 ) ) REPRESENTATION_CONTEXT ( 'NONE', 'WORKASPACE' ) );
#438 = ORIENTED_EDGE ( 'NONE', *, *, #12, .T. ) ;
#439 = DIRECTION ( 'NONE',  ( 8.673617379884035472E-16, 1.000000000000000000, -0.0000000000000000000 ) ) ;
#440 = ADVANCED_FACE ( 'NONE', ( #199 ), #353, .T. ) ;
#441 = VERTEX_POINT ( 'NONE', #548 ) ;
#442 = CARTESIAN_POINT ( 'NONE',  ( -4.700000000000000178, -0.6094875162046676786, -5.099999999999999645 ) ) ;
#443 = CARTESIAN_POINT ( 'NONE',  ( -4.700000000000000178, -0.7500000000000002220, 5.099999999999999645 ) ) ;
#444 = DIRECTION ( 'NONE',  ( -1.000000000000000000, 0.0000000000000000000, 0.0000000000000000000 ) ) ;
#445 = ORIENTED_EDGE ( 'NONE', *, *, #312, .F. ) ;
#446 = ADVANCED_BREP_SHAPE_REPRESENTATION ( 'H34 TєїрЁ№ ярчютvщ ¦5, ярч 6', ( #740, #130 ), #166 ) ;
#447 = SURFACE_STYLE_USAGE ( .BOTH. , #654 ) ;
#448 =( NAMED_UNIT ( * ) SI_UNIT ( $, .STERADIAN. ) SOLID_ANGLE_UNIT ( ) );
#449 = DIRECTION ( 'NONE',  ( -0.0000000000000000000, -0.0000000000000000000, 1.000000000000000000 ) ) ;
#450 = DIRECTION ( 'NONE',  ( 0.0000000000000000000, 0.0000000000000000000, -1.000000000000000000 ) ) ;
#451 = AXIS2_PLACEMENT_3D ( 'NONE', #490, #699, #13 ) ;
#452 = VECTOR ( 'NONE', #578, 1000.000000000000000 ) ;
#453 = ORIENTED_EDGE ( 'NONE', *, *, #879, .T. ) ;
#454 = SURFACE_STYLE_USAGE ( .BOTH. , #239 ) ;
#455 = EDGE_CURVE ( 'NONE', #414, #557, #565, .T. ) ;
#456 = CARTESIAN_POINT ( 'NONE',  ( 4.399999999999998579, -0.6094875162046674566, 5.099999999999999645 ) ) ;
#457 = VERTEX_POINT ( 'NONE', #493 ) ;
#458 = VECTOR ( 'NONE', #516, 1000.000000000000000 ) ;
#459 = DIRECTION ( 'NONE',  ( 1.000000000000000000, 0.0000000000000000000, 0.0000000000000000000 ) ) ;
#460 = CARTESIAN_POINT ( 'NONE',  ( -4.700000000000001066, 0.4499999999999996780, -5.099999999999999645 ) ) ;
#461 = EDGE_CURVE ( 'NONE', #171, #887, #336, .T. ) ;
#462 = ORIENTED_EDGE ( 'NONE', *, *, #713, .T. ) ;
#463 = SURFACE_STYLE_FILL_AREA ( #240 ) ;
#464 = CARTESIAN_POINT ( 'NONE',  ( 3.199999999999997069, 0.7499999999999997780, 5.099999999999999645 ) ) ;
#465 = VECTOR ( 'NONE', #315, 1000.000000000000000 ) ;
#466 = ORIENTED_EDGE ( 'NONE', *, *, #590, .F. ) ;
#467 = PRODUCT_DEFINITION_SHAPE ( 'NONE', 'NONE',  #500 ) ;
#468 = VECTOR ( 'NONE', #753, 1000.000000000000000 ) ;
#469 = DIRECTION ( 'NONE',  ( -1.000000000000000000, 0.0000000000000000000, 0.0000000000000000000 ) ) ;
#470 = VERTEX_POINT ( 'NONE', #204 ) ;
#471 = CARTESIAN_POINT ( 'NONE',  ( -2.439454888092385470E-16, -2.250000000000000888, 0.0000000000000000000 ) ) ;
#472 =( NAMED_UNIT ( * ) SI_UNIT ( $, .STERADIAN. ) SOLID_ANGLE_UNIT ( ) );
#473 = CARTESIAN_POINT ( 'NONE',  ( -2.791385019445600246, -1.950000000000000400, 5.099999999999999645 ) ) ;
#474 = EDGE_LOOP ( 'NONE', ( #157, #431 ) ) ;
#475 = VERTEX_POINT ( 'NONE', #486 ) ;
#476 = EDGE_CURVE ( 'NONE', #579, #155, #602, .T. ) ;
#477 = LINE ( 'NONE', #208, #293 ) ;
#478 = CARTESIAN_POINT ( 'NONE',  ( -3.200000000000000178, 0.7499999999999997780, -5.099999999999999645 ) ) ;
#479 = ORIENTED_EDGE ( 'NONE', *, *, #752, .T. ) ;
#480 = VECTOR ( 'NONE', #86, 1000.000000000000000 ) ;
#481 = CARTESIAN_POINT ( 'NONE',  ( -4.700000000000001066, 0.7499999999999997780, -5.099999999999999645 ) ) ;
#482 = DIRECTION ( 'NONE',  ( -1.000000000000000000, 7.228014483236697541E-16, 0.0000000000000000000 ) ) ;
#483 = AXIS2_PLACEMENT_3D ( 'NONE', #135, #349, #489 ) ;
#484 = ADVANCED_FACE ( 'NONE', ( #613, #900 ), #633, .F. ) ;
#485 = CIRCLE ( 'NONE', #92, 0.2999999999999999334 ) ;
#486 = CARTESIAN_POINT ( 'NONE',  ( 2.983440339344944903, -2.180466383879211989, -5.099999999999999645 ) ) ;
#487 = ORIENTED_EDGE ( 'NONE', *, *, #191, .F. ) ;
#488 = CARTESIAN_POINT ( 'NONE',  ( -4.400000000000001243, 0.7499999999999997780, 5.099999999999999645 ) ) ;
#489 = DIRECTION ( 'NONE',  ( 1.000000000000000000, 0.0000000000000000000, 0.0000000000000000000 ) ) ;
#490 = CARTESIAN_POINT ( 'NONE',  ( -2.600000000000000533, 1.949999999999999956, 5.099999999999999645 ) ) ;
#491 = EDGE_LOOP ( 'NONE', ( #570, #658, #384, #104 ) ) ;
#492 = CARTESIAN_POINT ( 'NONE',  ( -4.592055319899344568, -0.8399539000838801561, 5.099999999999999645 ) ) ;
#493 = CARTESIAN_POINT ( 'NONE',  ( -4.700000000000001066, 0.4499999999999996780, 5.099999999999999645 ) ) ;
#494 = EDGE_CURVE ( 'NONE', #763, #807, #402, .T. ) ;
#495 = LINE ( 'NONE', #284, #287 ) ;
#496 = VERTEX_POINT ( 'NONE', #144 ) ;
#497 = CIRCLE ( 'NONE', #614, 0.2999999999999999334 ) ;
#498 = CARTESIAN_POINT ( 'NONE',  ( 2.899999999999997691, 1.949999999999999734, 5.099999999999999645 ) ) ;
#499 = AXIS2_PLACEMENT_3D ( 'NONE', #202, #544, #482 ) ;
#500 = PRODUCT_DEFINITION ( 'UNKNOWN', '', #825, #156 ) ;
#501 = ORIENTED_EDGE ( 'NONE', *, *, #323, .F. ) ;
#502 = DIRECTION ( 'NONE',  ( 0.0000000000000000000, 0.0000000000000000000, -1.000000000000000000 ) ) ;
#503 = DIRECTION ( 'NONE',  ( 0.7682212795973759611, -0.6401843996644797086, 0.0000000000000000000 ) ) ;
#504 = CIRCLE ( 'NONE', #750, 0.2999999999999999334 ) ;
#505 = ORIENTED_EDGE ( 'NONE', *, *, #12, .F. ) ;
#506 = UNCERTAINTY_MEASURE_WITH_UNIT (LENGTH_MEASURE( 1.000000000000000082E-05 ), #48, 'distance_accuracy_value', 'NONE');
#507 = ORIENTED_EDGE ( 'NONE', *, *, #80, .T. ) ;
#508 = CARTESIAN_POINT ( 'NONE',  ( 2.899999999999996803, 0.7499999999999997780, -5.099999999999999645 ) ) ;
#509 = APPLICATION_CONTEXT ( 'automotive_design' ) ;
#510 =( NAMED_UNIT ( * ) PLANE_ANGLE_UNIT ( ) SI_UNIT ( $, .RADIAN. ) );
#511 = VERTEX_POINT ( 'NONE', #769 ) ;
#512 = VECTOR ( 'NONE', #420, 1000.000000000000000 ) ;
#513 = EDGE_CURVE ( 'NONE', #123, #155, #759, .T. ) ;
#514 = ORIENTED_EDGE ( 'NONE', *, *, #312, .T. ) ;
#515 = CYLINDRICAL_SURFACE ( 'NONE', #126, 2.000000000000000000 ) ;
#516 = DIRECTION ( 'NONE',  ( -0.0000000000000000000, 0.0000000000000000000, 1.000000000000000000 ) ) ;
#517 = CARTESIAN_POINT ( 'NONE',  ( 1.999999999999999556, -2.250000000000000888, 2.449293598294706414E-16 ) ) ;
#518 = MECHANICAL_DESIGN_GEOMETRIC_PRESENTATION_REPRESENTATION (  '', ( #181 ), #721 ) ;
#519 = EDGE_CURVE ( 'NONE', #663, #145, #203, .T. ) ;
#520 = EDGE_CURVE ( 'NONE', #38, #496, #61, .T. ) ;
#521 = EDGE_LOOP ( 'NONE', ( #755, #289, #165, #559 ) ) ;
#522 = FACE_OUTER_BOUND ( 'NONE', #220, .T. ) ;
#523 = CARTESIAN_POINT ( 'NONE',  ( -2.791385019445600246, -1.950000000000000400, -5.099999999999999645 ) ) ;
#524 = CARTESIAN_POINT ( 'NONE',  ( 1.999999999999999556, -2.250000000000000888, 2.449293598294706414E-16 ) ) ;
#525 = PLANE ( 'NONE',  #655 ) ;
#526 = ORIENTED_EDGE ( 'NONE', *, *, #903, .T. ) ;
#527 = DIRECTION ( 'NONE',  ( 0.0000000000000000000, 0.0000000000000000000, -1.000000000000000000 ) ) ;
#528 = DIRECTION ( 'NONE',  ( 5.421010862427522786E-17, 1.000000000000000000, -0.0000000000000000000 ) ) ;
#529 = CARTESIAN_POINT ( 'NONE',  ( 2.299999999999996270, 2.250000000000000000, 2.816687638038908112E-16 ) ) ;
#530 =( LENGTH_UNIT ( ) NAMED_UNIT ( * ) SI_UNIT ( .MILLI., .METRE. ) );
#531 = LINE ( 'NONE', #595, #673 ) ;
#532 = CIRCLE ( 'NONE', #881, 2.000000000000000000 ) ;
#533 = VECTOR ( 'NONE', #606, 1000.000000000000000 ) ;
#534 = VERTEX_POINT ( 'NONE', #342 ) ;
#535 = EDGE_CURVE ( 'NONE', #496, #470, #265, .T. ) ;
#536 = DIRECTION ( 'NONE',  ( 0.0000000000000000000, 0.0000000000000000000, -1.000000000000000000 ) ) ;
#537 = DIRECTION ( 'NONE',  ( 0.0000000000000000000, 0.0000000000000000000, -1.000000000000000000 ) ) ;
#538 = CARTESIAN_POINT ( 'NONE',  ( 2.599999999999997868, 2.250000000000000000, 5.099999999999999645 ) ) ;
#539 = ORIENTED_EDGE ( 'NONE', *, *, #409, .T. ) ;
#540 = CARTESIAN_POINT ( 'NONE',  ( -4.700000000000001066, 0.7499999999999997780, 5.099999999999999645 ) ) ;
#541 = ADVANCED_FACE ( 'NONE', ( #6 ), #360, .F. ) ;
#542 = PRODUCT ( 'H34 Сухарь пазовый М5, паз 6', 'H34 Сухарь пазовый М5, паз 6', '', ( #331 ) ) ;
#543 = ORIENTED_EDGE ( 'NONE', *, *, #56, .F. ) ;
#544 = DIRECTION ( 'NONE',  ( -0.0000000000000000000, -0.0000000000000000000, 1.000000000000000000 ) ) ;
#545 = EDGE_CURVE ( 'NONE', #729, #579, #29, .T. ) ;
#546 = LINE ( 'NONE', #818, #583 ) ;
#547 = VERTEX_POINT ( 'NONE', #286 ) ;
#548 = CARTESIAN_POINT ( 'NONE',  ( -2.983440339344944014, -2.180466383879212877, -5.099999999999999645 ) ) ;
#549 = ORIENTED_EDGE ( 'NONE', *, *, #335, .F. ) ;
#550 = ORIENTED_EDGE ( 'NONE', *, *, #28, .T. ) ;
#551 = LINE ( 'NONE', #816, #468 ) ;
#552 = DIRECTION ( 'NONE',  ( 1.000000000000000000, 0.0000000000000000000, 0.0000000000000000000 ) ) ;
#553 = ORIENTED_EDGE ( 'NONE', *, *, #568, .F. ) ;
#554 = EDGE_CURVE ( 'NONE', #53, #511, #862, .T. ) ;
#555 = CARTESIAN_POINT ( 'NONE',  ( -3.200000000000000178, 1.049999999999999822, 5.099999999999999645 ) ) ;
#556 = DIRECTION ( 'NONE',  ( -1.000000000000000000, 0.0000000000000000000, 0.0000000000000000000 ) ) ;
#557 = VERTEX_POINT ( 'NONE', #498 ) ;
#558 = MECHANICAL_DESIGN_GEOMETRIC_PRESENTATION_REPRESENTATION (  '', ( #639 ), #895 ) ;
#559 = ORIENTED_EDGE ( 'NONE', *, *, #106, .F. ) ;
#560 = FACE_OUTER_BOUND ( 'NONE', #268, .T. ) ;
#561 = VECTOR ( 'NONE', #623, 1000.000000000000000 ) ;
#562 = EDGE_CURVE ( 'NONE', #890, #152, #432, .T. ) ;
#563 = DIRECTION ( 'NONE',  ( 5.421010862427519089E-17, 1.000000000000000000, 0.0000000000000000000 ) ) ;
#564 = CARTESIAN_POINT ( 'NONE',  ( 4.399999999999998579, 0.7499999999999997780, 5.099999999999999645 ) ) ;
#565 = LINE ( 'NONE', #350, #339 ) ;
#566 = CARTESIAN_POINT ( 'NONE',  ( -4.592055319899344568, -0.8399539000838801561, -5.099999999999999645 ) ) ;
#567 = EDGE_CURVE ( 'NONE', #53, #890, #222, .T. ) ;
#568 = EDGE_CURVE ( 'NONE', #511, #826, #646, .T. ) ;
#569 = DIRECTION ( 'NONE',  ( -0.7071067811865485719, 0.7071067811865465735, 0.0000000000000000000 ) ) ;
#570 = ORIENTED_EDGE ( 'NONE', *, *, #391, .F. ) ;
#571 = AXIS2_PLACEMENT_3D ( 'NONE', #722, #283, #300 ) ;
#572 = CIRCLE ( 'NONE', #176, 0.2999999999999999334 ) ;
#573 = VERTEX_POINT ( 'NONE', #488 ) ;
#574 = ORIENTED_EDGE ( 'NONE', *, *, #127, .F. ) ;
#575 = DIRECTION ( 'NONE',  ( 0.0000000000000000000, 0.0000000000000000000, -1.000000000000000000 ) ) ;
#576 = DIRECTION ( 'NONE',  ( -1.000000000000000000, 0.0000000000000000000, 0.0000000000000000000 ) ) ;
#577 = PRESENTATION_LAYER_ASSIGNMENT (  '', '', ( #181 ) ) ;
#578 = DIRECTION ( 'NONE',  ( -1.000000000000000000, -0.0000000000000000000, -0.0000000000000000000 ) ) ;
#579 = VERTEX_POINT ( 'NONE', #566 ) ;
#580 = EDGE_CURVE ( 'NONE', #457, #20, #697, .T. ) ;
#581 = DIRECTION ( 'NONE',  ( 0.0000000000000000000, 0.0000000000000000000, -1.000000000000000000 ) ) ;
#582 = ORIENTED_EDGE ( 'NONE', *, *, #82, .T. ) ;
#583 = VECTOR ( 'NONE', #397, 1000.000000000000000 ) ;
#584 = DIRECTION ( 'NONE',  ( -0.0000000000000000000, -0.0000000000000000000, 1.000000000000000000 ) ) ;
#585 = DIRECTION ( 'NONE',  ( -1.000000000000000000, 2.710505431213761874E-15, 0.0000000000000000000 ) ) ;
#586 = AXIS2_PLACEMENT_3D ( 'NONE', #345, #698, #74 ) ;
#587 = DIRECTION ( 'NONE',  ( -1.000000000000000000, 0.0000000000000000000, 0.0000000000000000000 ) ) ;
#588 = VERTEX_POINT ( 'NONE', #282 ) ;
#589 = PLANE ( 'NONE',  #259 ) ;
#590 = EDGE_CURVE ( 'NONE', #224, #547, #707, .T. ) ;
#591 = EDGE_LOOP ( 'NONE', ( #87, #787 ) ) ;
#592 = CYLINDRICAL_SURFACE ( 'NONE', #700, 0.2999999999999999334 ) ;
#593 = DIRECTION ( 'NONE',  ( -1.000000000000000000, 0.0000000000000000000, 0.0000000000000000000 ) ) ;
#594 = DIRECTION ( 'NONE',  ( 0.0000000000000000000, 0.0000000000000000000, -1.000000000000000000 ) ) ;
#595 = CARTESIAN_POINT ( 'NONE',  ( 2.900000000000000799, -2.249999999999999556, 5.099999999999999645 ) ) ;
#596 = ADVANCED_FACE ( 'NONE', ( #4 ), #348, .T. ) ;
#597 = VERTEX_POINT ( 'NONE', #421 ) ;
#598 =( LENGTH_UNIT ( ) NAMED_UNIT ( * ) SI_UNIT ( .MILLI., .METRE. ) );
#599 = CARTESIAN_POINT ( 'NONE',  ( 4.699999999999998401, 0.7499999999999997780, -5.099999999999999645 ) ) ;
#600 =( NAMED_UNIT ( * ) PLANE_ANGLE_UNIT ( ) SI_UNIT ( $, .RADIAN. ) );
#601 = DIRECTION ( 'NONE',  ( -1.000000000000000000, 0.0000000000000000000, 0.0000000000000000000 ) ) ;
#602 = CIRCLE ( 'NONE', #774, 0.2999999999999999334 ) ;
#603 = ORIENTED_EDGE ( 'NONE', *, *, #635, .T. ) ;
#604 = VECTOR ( 'NONE', #624, 1000.000000000000114 ) ;
#605 = PLANE ( 'NONE',  #75 ) ;
#606 = DIRECTION ( 'NONE',  ( -0.0000000000000000000, -0.0000000000000000000, 1.000000000000000000 ) ) ;
#607 = EDGE_LOOP ( 'NONE', ( #188, #715, #49, #294 ) ) ;
#608 = EDGE_CURVE ( 'NONE', #55, #777, #801, .T. ) ;
#609 = CARTESIAN_POINT ( 'NONE',  ( 4.699999999999998401, -0.6094875162046674566, 5.099999999999999645 ) ) ;
#610 = ORIENTED_EDGE ( 'NONE', *, *, #520, .T. ) ;
#611 = CARTESIAN_POINT ( 'NONE',  ( -2.900000000000000355, 1.049999999999999822, 5.099999999999999645 ) ) ;
#612 = FACE_OUTER_BOUND ( 'NONE', #491, .T. ) ;
#613 = FACE_BOUND ( 'NONE', #591, .T. ) ;
#614 = AXIS2_PLACEMENT_3D ( 'NONE', #870, #584, #158 ) ;
#615 = ORIENTED_EDGE ( 'NONE', *, *, #858, .F. ) ;
#616 = AXIS2_PLACEMENT_3D ( 'NONE', #798, #374, #871 ) ;
#617 = AXIS2_PLACEMENT_3D ( 'NONE', #333, #70, #399 ) ;
#618 = EDGE_LOOP ( 'NONE', ( #303, #782, #430, #332 ) ) ;
#619 = CARTESIAN_POINT ( 'NONE',  ( -4.700000000000000178, -0.7500000000000002220, 5.099999999999999645 ) ) ;
#620 = EDGE_CURVE ( 'NONE', #145, #112, #702, .T. ) ;
#621 = CARTESIAN_POINT ( 'NONE',  ( 2.791385019445601579, -1.949999999999999512, -5.099999999999999645 ) ) ;
#622 = ORIENTED_EDGE ( 'NONE', *, *, #567, .F. ) ;
#623 = DIRECTION ( 'NONE',  ( -0.0000000000000000000, -0.0000000000000000000, 1.000000000000000000 ) ) ;
#624 = DIRECTION ( 'NONE',  ( 0.7682212795973756281, 0.6401843996644800416, -0.0000000000000000000 ) ) ;
#625 = ORIENTED_EDGE ( 'NONE', *, *, #17, .F. ) ;
#626 = DIRECTION ( 'NONE',  ( 0.0000000000000000000, 0.0000000000000000000, -1.000000000000000000 ) ) ;
#627 = DIRECTION ( 'NONE',  ( 5.421010862427522786E-17, 1.000000000000000000, -0.0000000000000000000 ) ) ;
#628 = DIRECTION ( 'NONE',  ( -1.000000000000000000, 0.0000000000000000000, 0.0000000000000000000 ) ) ;
#629 = VECTOR ( 'NONE', #207, 1000.000000000000000 ) ;
#630 = ORIENTED_EDGE ( 'NONE', *, *, #127, .T. ) ;
#631 = DIRECTION ( 'NONE',  ( 1.000000000000000000, 0.0000000000000000000, 0.0000000000000000000 ) ) ;
#632 = VECTOR ( 'NONE', #193, 1000.000000000000000 ) ;
#633 = PLANE ( 'NONE',  #124 ) ;
#634 = CARTESIAN_POINT ( 'NONE',  ( -2.439454888092385470E-16, -2.250000000000000888, 0.0000000000000000000 ) ) ;
#635 = EDGE_CURVE ( 'NONE', #534, #362, #15, .T. ) ;
#636 = ORIENTED_EDGE ( 'NONE', *, *, #513, .F. ) ;
#637 = EDGE_LOOP ( 'NONE', ( #368, #615, #445, #19 ) ) ;
#638 = UNCERTAINTY_MEASURE_WITH_UNIT (LENGTH_MEASURE( 1.000000000000000082E-05 ), #311, 'distance_accuracy_value', 'NONE');
#639 = STYLED_ITEM ( 'NONE', ( #45 ), #740 ) ;
#640 = DIRECTION ( 'NONE',  ( 0.0000000000000000000, 0.0000000000000000000, -1.000000000000000000 ) ) ;
#641 = ORIENTED_EDGE ( 'NONE', *, *, #635, .F. ) ;
#642 = AXIS2_PLACEMENT_3D ( 'NONE', #764, #11, #631 ) ;
#643 = EDGE_CURVE ( 'NONE', #470, #256, #495, .T. ) ;
#644 = ORIENTED_EDGE ( 'NONE', *, *, #608, .F. ) ;
#645 = APPLICATION_CONTEXT ( 'automotive_design' ) ;
#646 = LINE ( 'NONE', #25, #629 ) ;
#647 = LINE ( 'NONE', #295, #357 ) ;
#648 = DIRECTION ( 'NONE',  ( 5.421010862427522786E-17, 1.000000000000000000, -0.0000000000000000000 ) ) ;
#649 = ORIENTED_EDGE ( 'NONE', *, *, #562, .F. ) ;
#650 = DIRECTION ( 'NONE',  ( 1.000000000000000000, 1.495451272393799296E-16, -0.0000000000000000000 ) ) ;
#651 = DIRECTION ( 'NONE',  ( 0.0000000000000000000, 0.0000000000000000000, -1.000000000000000000 ) ) ;
#652 = ORIENTED_EDGE ( 'NONE', *, *, #679, .F. ) ;
#653 = EDGE_CURVE ( 'NONE', #887, #195, #201, .T. ) ;
#654 = SURFACE_SIDE_STYLE ('',( #377 ) ) ;
#655 = AXIS2_PLACEMENT_3D ( 'NONE', #872, #450, #39 ) ;
#656 = CARTESIAN_POINT ( 'NONE',  ( 3.199999999999997069, 0.7499999999999997780, -5.099999999999999645 ) ) ;
#657 = CIRCLE ( 'NONE', #261, 0.2999999999999999334 ) ;
#658 = ORIENTED_EDGE ( 'NONE', *, *, #221, .F. ) ;
#659 = CARTESIAN_POINT ( 'NONE',  ( -3.200000000000000178, 1.049999999999999822, 5.099999999999999645 ) ) ;
#660 = FACE_OUTER_BOUND ( 'NONE', #418, .T. ) ;
#661 = CARTESIAN_POINT ( 'NONE',  ( 2.983440339344945791, -2.180466383879211989, 5.099999999999999645 ) ) ;
#662 = CARTESIAN_POINT ( 'NONE',  ( 2.899999999999998135, 2.250000000000000000, -5.099999999999999645 ) ) ;
#663 = VERTEX_POINT ( 'NONE', #761 ) ;
#664 = DIRECTION ( 'NONE',  ( 0.0000000000000000000, -1.000000000000000000, 0.0000000000000000000 ) ) ;
#665 = PLANE ( 'NONE',  #21 ) ;
#666 = PRESENTATION_STYLE_ASSIGNMENT (( #728 ) ) ;
#667 = EDGE_CURVE ( 'NONE', #766, #375, #775, .T. ) ;
#668 = EDGE_LOOP ( 'NONE', ( #543, #828, #23, #779 ) ) ;
#669 = CARTESIAN_POINT ( 'NONE',  ( 2.791385019445601579, -2.249999999999999556, -5.099999999999999645 ) ) ;
#670 = FACE_OUTER_BOUND ( 'NONE', #343, .T. ) ;
#671 = CARTESIAN_POINT ( 'NONE',  ( 4.399999999999998579, 0.4499999999999998446, 5.099999999999999645 ) ) ;
#672 = PRESENTATION_LAYER_ASSIGNMENT (  '', '', ( #639 ) ) ;
#673 = VECTOR ( 'NONE', #650, 1000.000000000000000 ) ;
#674 = PRESENTATION_LAYER_ASSIGNMENT (  '', '', ( #849 ) ) ;
#675 = ADVANCED_FACE ( 'NONE', ( #888 ), #665, .F. ) ;
#676 = EDGE_LOOP ( 'NONE', ( #128, #379, #271, #238 ) ) ;
#677 = CARTESIAN_POINT ( 'NONE',  ( 2.599999999999997868, 1.949999999999999956, -5.099999999999999645 ) ) ;
#678 = ORIENTED_EDGE ( 'NONE', *, *, #580, .T. ) ;
#679 = EDGE_CURVE ( 'NONE', #403, #821, #344, .T. ) ;
#680 = CARTESIAN_POINT ( 'NONE',  ( 2.983440339344944903, -2.180466383879211989, 5.099999999999999645 ) ) ;
#681 = ORIENTED_EDGE ( 'NONE', *, *, #455, .T. ) ;
#682 = ORIENTED_EDGE ( 'NONE', *, *, #868, .T. ) ;
#683 = FACE_OUTER_BOUND ( 'NONE', #347, .T. ) ;
#684 = EDGE_CURVE ( 'NONE', #496, #200, #65, .T. ) ;
#685 = CARTESIAN_POINT ( 'NONE',  ( -4.700000000000001066, 0.7499999999999997780, -5.099999999999999645 ) ) ;
#686 = VECTOR ( 'NONE', #717, 1000.000000000000000 ) ;
#687 = ORIENTED_EDGE ( 'NONE', *, *, #667, .T. ) ;
#688 = DIRECTION ( 'NONE',  ( -8.673617379884035472E-16, -1.000000000000000000, 0.0000000000000000000 ) ) ;
#689 = AXIS2_PLACEMENT_3D ( 'NONE', #677, #594, #726 ) ;
#690 = DIRECTION ( 'NONE',  ( -0.0000000000000000000, -0.0000000000000000000, 1.000000000000000000 ) ) ;
#691 = FACE_OUTER_BOUND ( 'NONE', #831, .T. ) ;
#692 = ORIENTED_EDGE ( 'NONE', *, *, #513, .T. ) ;
#693 = EDGE_LOOP ( 'NONE', ( #799, #258, #97, #139 ) ) ;
#694 = DIRECTION ( 'NONE',  ( 0.6401843996644797086, 0.7682212795973759611, -0.0000000000000000000 ) ) ;
#695 = DIRECTION ( 'NONE',  ( 0.0000000000000000000, 0.0000000000000000000, -1.000000000000000000 ) ) ;
#696 = EDGE_CURVE ( 'NONE', #547, #511, #380, .T. ) ;
#697 = LINE ( 'NONE', #73, #89 ) ;
#698 = DIRECTION ( 'NONE',  ( 0.0000000000000000000, 0.0000000000000000000, -1.000000000000000000 ) ) ;
#699 = DIRECTION ( 'NONE',  ( -0.0000000000000000000, -0.0000000000000000000, 1.000000000000000000 ) ) ;
#700 = AXIS2_PLACEMENT_3D ( 'NONE', #875, #527, #167 ) ;
#701 = EDGE_CURVE ( 'NONE', #547, #83, #745, .T. ) ;
#702 = LINE ( 'NONE', #354, #306 ) ;
#703 =( GEOMETRIC_REPRESENTATION_CONTEXT ( 3 ) GLOBAL_UNCERTAINTY_ASSIGNED_CONTEXT ( ( #506 ) ) GLOBAL_UNIT_ASSIGNED_CONTEXT ( ( #48, #719, #370 ) ) REPRESENTATION_CONTEXT ( 'NONE', 'WORKASPACE' ) );
#704 = AXIS2_PLACEMENT_3D ( 'NONE', #390, #185, #310 ) ;
#705 = CARTESIAN_POINT ( 'NONE',  ( 3.199999999999997069, 0.7499999999999997780, 5.099999999999999645 ) ) ;
#706 = DIRECTION ( 'NONE',  ( 5.421010862427522170E-17, 1.000000000000000000, 0.0000000000000000000 ) ) ;
#707 = LINE ( 'NONE', #844, #51 ) ;
#708 = ORIENTED_EDGE ( 'NONE', *, *, #684, .T. ) ;
#709 = ADVANCED_FACE ( 'NONE', ( #813 ), #177, .F. ) ;
#710 = ORIENTED_EDGE ( 'NONE', *, *, #567, .T. ) ;
#711 = ORIENTED_EDGE ( 'NONE', *, *, #554, .T. ) ;
#712 = CARTESIAN_POINT ( 'NONE',  ( 4.699999999999998401, -0.7500000000000002220, 5.099999999999999645 ) ) ;
#713 = EDGE_CURVE ( 'NONE', #362, #763, #876, .T. ) ;
#714 = ORIENTED_EDGE ( 'NONE', *, *, #476, .T. ) ;
#715 = ORIENTED_EDGE ( 'NONE', *, *, #590, .T. ) ;
#716 = VECTOR ( 'NONE', #626, 1000.000000000000000 ) ;
#717 = DIRECTION ( 'NONE',  ( -1.000000000000000000, -0.0000000000000000000, -0.0000000000000000000 ) ) ;
#718 = DIRECTION ( 'NONE',  ( -1.000000000000000000, 7.228014483236697541E-16, 0.0000000000000000000 ) ) ;
#719 =( NAMED_UNIT ( * ) PLANE_ANGLE_UNIT ( ) SI_UNIT ( $, .RADIAN. ) );
#720 = ORIENTED_EDGE ( 'NONE', *, *, #191, .T. ) ;
#721 =( GEOMETRIC_REPRESENTATION_CONTEXT ( 3 ) GLOBAL_UNCERTAINTY_ASSIGNED_CONTEXT ( ( #427 ) ) GLOBAL_UNIT_ASSIGNED_CONTEXT ( ( #892, #600, #472 ) ) REPRESENTATION_CONTEXT ( 'NONE', 'WORKASPACE' ) );
#722 = CARTESIAN_POINT ( 'NONE',  ( 4.699999999999998401, 0.7499999999999997780, 5.099999999999999645 ) ) ;
#723 = SURFACE_STYLE_USAGE ( .BOTH. , #163 ) ;
#724 = LINE ( 'NONE', #99, #452 ) ;
#725 = ORIENTED_EDGE ( 'NONE', *, *, #67, .T. ) ;
#726 = DIRECTION ( 'NONE',  ( -1.000000000000000000, 0.0000000000000000000, 0.0000000000000000000 ) ) ;
#727 = CYLINDRICAL_SURFACE ( 'NONE', #854, 0.2999999999999999334 ) ;
#728 = SURFACE_STYLE_USAGE ( .BOTH. , #94 ) ;
#729 = VERTEX_POINT ( 'NONE', #389 ) ;
#730 = DIRECTION ( 'NONE',  ( -0.0000000000000000000, 1.000000000000000000, -0.0000000000000000000 ) ) ;
#731 = FACE_OUTER_BOUND ( 'NONE', #324, .T. ) ;
#732 = AXIS2_PLACEMENT_3D ( 'NONE', #473, #772, #556 ) ;
#733 = CARTESIAN_POINT ( 'NONE',  ( 3.199999999999997069, 1.049999999999999822, -5.099999999999999645 ) ) ;
#734 = DIRECTION ( 'NONE',  ( -5.782411586589356653E-16, 1.000000000000000000, 0.0000000000000000000 ) ) ;
#735 = AXIS2_PLACEMENT_3D ( 'NONE', #26, #383, #585 ) ;
#736 = EDGE_LOOP ( 'NONE', ( #22, #141, #898, #233 ) ) ;
#737 =( NAMED_UNIT ( * ) PLANE_ANGLE_UNIT ( ) SI_UNIT ( $, .RADIAN. ) );
#738 = CARTESIAN_POINT ( 'NONE',  ( -4.400000000000001243, 0.4499999999999998446, -5.099999999999999645 ) ) ;
#739 = ORIENTED_EDGE ( 'NONE', *, *, #272, .T. ) ;
#740 = MANIFOLD_SOLID_BREP ( 'Фаска1', #788 ) ;
#741 = DIRECTION ( 'NONE',  ( -0.0000000000000000000, 0.0000000000000000000, 1.000000000000000000 ) ) ;
#742 = LINE ( 'NONE', #182, #393 ) ;
#743 = ORIENTED_EDGE ( 'NONE', *, *, #840, .T. ) ;
#744 = CYLINDRICAL_SURFACE ( 'NONE', #63, 0.2999999999999999334 ) ;
#745 = CIRCLE ( 'NONE', #274, 0.2999999999999999334 ) ;
#746 = CARTESIAN_POINT ( 'NONE',  ( 2.791385019445601579, -2.249999999999999556, 5.099999999999999645 ) ) ;
#747 = AXIS2_PLACEMENT_3D ( 'NONE', #330, #864, #241 ) ;
#748 = ORIENTED_EDGE ( 'NONE', *, *, #773, .T. ) ;
#749 = CARTESIAN_POINT ( 'NONE',  ( -2.900000000000000355, 1.049999999999999822, -5.099999999999999645 ) ) ;
#750 = AXIS2_PLACEMENT_3D ( 'NONE', #523, #794, #301 ) ;
#751 = EDGE_LOOP ( 'NONE', ( #692, #131, #880, #479 ) ) ;
#752 = EDGE_CURVE ( 'NONE', #457, #123, #388, .T. ) ;
#753 = DIRECTION ( 'NONE',  ( 0.7682212795973759611, -0.6401843996644797086, 0.0000000000000000000 ) ) ;
#754 = DIRECTION ( 'NONE',  ( -0.0000000000000000000, -0.0000000000000000000, 1.000000000000000000 ) ) ;
#755 = ORIENTED_EDGE ( 'NONE', *, *, #80, .F. ) ;
#756 = LINE ( 'NONE', #129, #308 ) ;
#757 = DIRECTION ( 'NONE',  ( 0.0000000000000000000, -0.0000000000000000000, -1.000000000000000000 ) ) ;
#758 = AXIS2_PLACEMENT_3D ( 'NONE', #213, #148, #904 ) ;
#759 = LINE ( 'NONE', #685, #512 ) ;
#760 = ORIENTED_EDGE ( 'NONE', *, *, #95, .T. ) ;
#761 = CARTESIAN_POINT ( 'NONE',  ( 2.000000000000000000, 1.950000000000004174, 2.449293598294706414E-16 ) ) ;
#762 = CONICAL_SURFACE ( 'NONE', #367, 2.000000000000000000, 0.7853981633974497223 ) ;
#763 = VERTEX_POINT ( 'NONE', #669 ) ;
#764 = CARTESIAN_POINT ( 'NONE',  ( -1.626303258728231691E-17, 1.950000000000004174, 0.0000000000000000000 ) ) ;
#765 = DIRECTION ( 'NONE',  ( -0.0000000000000000000, -0.0000000000000000000, 1.000000000000000000 ) ) ;
#766 = VERTEX_POINT ( 'NONE', #50 ) ;
#767 = CARTESIAN_POINT ( 'NONE',  ( -1.626303258728231691E-17, 1.950000000000004174, 0.0000000000000000000 ) ) ;
#768 = ADVANCED_FACE ( 'NONE', ( #326 ), #605, .F. ) ;
#769 = CARTESIAN_POINT ( 'NONE',  ( 4.699999999999998401, 0.4499999999999998446, -5.099999999999999645 ) ) ;
#770 = EDGE_LOOP ( 'NONE', ( #100, #687, #725, #681 ) ) ;
#771 = DIRECTION ( 'NONE',  ( -1.000000000000000000, 0.0000000000000000000, 0.0000000000000000000 ) ) ;
#772 = DIRECTION ( 'NONE',  ( 0.0000000000000000000, 0.0000000000000000000, -1.000000000000000000 ) ) ;
#773 = EDGE_CURVE ( 'NONE', #171, #573, #546, .T. ) ;
#774 = AXIS2_PLACEMENT_3D ( 'NONE', #262, #695, #8 ) ;
#775 = LINE ( 'NONE', #151, #716 ) ;
#776 = ADVANCED_FACE ( 'NONE', ( #612 ), #410, .T. ) ;
#777 = VERTEX_POINT ( 'NONE', #111 ) ;
#778 = CIRCLE ( 'NONE', #499, 0.2999999999999999334 ) ;
#779 = ORIENTED_EDGE ( 'NONE', *, *, #752, .F. ) ;
#780 = ADVANCED_FACE ( 'NONE', ( #105 ), #592, .T. ) ;
#781 = CARTESIAN_POINT ( 'NONE',  ( -3.200000000000000178, 0.7499999999999997780, -5.099999999999999645 ) ) ;
#782 = ORIENTED_EDGE ( 'NONE', *, *, #494, .F. ) ;
#783 = EDGE_LOOP ( 'NONE', ( #395, #251, #153, #641 ) ) ;
#784 = EDGE_CURVE ( 'NONE', #777, #145, #309, .T. ) ;
#785 = FILL_AREA_STYLE_COLOUR ( '', #14 ) ;
#786 = LINE ( 'NONE', #524, #228 ) ;
#787 = ORIENTED_EDGE ( 'NONE', *, *, #17, .T. ) ;
#788 = CLOSED_SHELL ( 'NONE', ( #299, #96, #186, #122, #88, #196, #143, #819, #541, #768, #675, #484, #72, #791, #187, #853, #440, #292, #154, #596, #709, #776, #780, #117, #150, #376 ) ) ;
#789 = MECHANICAL_DESIGN_GEOMETRIC_PRESENTATION_REPRESENTATION (  '', ( #849 ), #437 ) ;
#790 = SURFACE_STYLE_FILL_AREA ( #225 ) ;
#791 = ADVANCED_FACE ( 'NONE', ( #808 ), #525, .T. ) ;
#792 = VERTEX_POINT ( 'NONE', #529 ) ;
#793 = FILL_AREA_STYLE_COLOUR ( '', #9 ) ;
#794 = DIRECTION ( 'NONE',  ( 0.0000000000000000000, 0.0000000000000000000, -1.000000000000000000 ) ) ;
#795 = PLANE ( 'NONE',  #90 ) ;
#796 = ORIENTED_EDGE ( 'NONE', *, *, #519, .F. ) ;
#797 = PLANE ( 'NONE',  #704 ) ;
#798 = CARTESIAN_POINT ( 'NONE',  ( -9.768358055333191401E-33, 2.250000000000000000, 0.0000000000000000000 ) ) ;
#799 = ORIENTED_EDGE ( 'NONE', *, *, #520, .F. ) ;
#800 = CARTESIAN_POINT ( 'NONE',  ( 2.899999999999996803, 0.7499999999999997780, 5.099999999999999645 ) ) ;
#801 = CIRCLE ( 'NONE', #803, 2.000000000000000000 ) ;
#802 = DIRECTION ( 'NONE',  ( -1.000000000000000000, 0.0000000000000000000, 0.0000000000000000000 ) ) ;
#803 = AXIS2_PLACEMENT_3D ( 'NONE', #634, #267, #18 ) ;
#804 = FACE_OUTER_BOUND ( 'NONE', #229, .T. ) ;
#805 = CIRCLE ( 'NONE', #422, 0.2999999999999999334 ) ;
#806 = CIRCLE ( 'NONE', #689, 0.2999999999999999334 ) ;
#807 = VERTEX_POINT ( 'NONE', #746 ) ;
#808 = FACE_OUTER_BOUND ( 'NONE', #893, .T. ) ;
#809 = CARTESIAN_POINT ( 'NONE',  ( 4.399999999999998579, -0.6094875162046674566, 5.099999999999999645 ) ) ;
#810 = DIRECTION ( 'NONE',  ( 0.0000000000000000000, 0.0000000000000000000, -1.000000000000000000 ) ) ;
#811 = AXIS2_PLACEMENT_3D ( 'NONE', #169, #378, #718 ) ;
#812 = ORIENTED_EDGE ( 'NONE', *, *, #866, .T. ) ;
#813 = FACE_OUTER_BOUND ( 'NONE', #637, .T. ) ;
#814 = CYLINDRICAL_SURFACE ( 'NONE', #245, 0.2999999999999999334 ) ;
#815 = EDGE_LOOP ( 'NONE', ( #710, #363, #505, #428 ) ) ;
#816 = CARTESIAN_POINT ( 'NONE',  ( -4.700000000000000178, -0.7500000000000002220, -5.099999999999999645 ) ) ;
#817 = VECTOR ( 'NONE', #730, 1000.000000000000000 ) ;
#818 = CARTESIAN_POINT ( 'NONE',  ( -4.700000000000001066, 0.7499999999999997780, 5.099999999999999645 ) ) ;
#819 = ADVANCED_FACE ( 'NONE', ( #670 ), #589, .F. ) ;
#820 = CIRCLE ( 'NONE', #617, 0.2999999999999999334 ) ;
#821 = VERTEX_POINT ( 'NONE', #373 ) ;
#822 = DIRECTION ( 'NONE',  ( -0.0000000000000000000, -0.0000000000000000000, 1.000000000000000000 ) ) ;
#823 = SHAPE_DEFINITION_REPRESENTATION ( #467, #446 ) ;
#824 = DIRECTION ( 'NONE',  ( 0.0000000000000000000, 0.0000000000000000000, -1.000000000000000000 ) ) ;
#825 = PRODUCT_DEFINITION_FORMATION_WITH_SPECIFIED_SOURCE ( 'ANY', '', #542, .NOT_KNOWN. ) ;
#826 = VERTEX_POINT ( 'NONE', #855 ) ;
#827 = EDGE_CURVE ( 'NONE', #826, #285, #497, .T. ) ;
#828 = ORIENTED_EDGE ( 'NONE', *, *, #137, .F. ) ;
#829 = LINE ( 'NONE', #198, #561 ) ;
#830 = DIRECTION ( 'NONE',  ( 0.0000000000000000000, 0.0000000000000000000, -1.000000000000000000 ) ) ;
#831 = EDGE_LOOP ( 'NONE', ( #317, #338, #81, #625 ) ) ;
#832 = EDGE_CURVE ( 'NONE', #441, #217, #434, .T. ) ;
#833 = DIRECTION ( 'NONE',  ( -1.000000000000000000, 0.0000000000000000000, 0.0000000000000000000 ) ) ;
#834 = COLOUR_RGB ( '',1.000000000000000000, 1.000000000000000000, 1.000000000000000000 ) ;
#835 = DIRECTION ( 'NONE',  ( 0.0000000000000000000, 0.0000000000000000000, -1.000000000000000000 ) ) ;
#836 = ORIENTED_EDGE ( 'NONE', *, *, #784, .F. ) ;
#837 = CIRCLE ( 'NONE', #586, 0.2999999999999999334 ) ;
#838 = CIRCLE ( 'NONE', #205, 2.299999999999996270 ) ;
#839 = LINE ( 'NONE', #190, #885 ) ;
#840 = EDGE_CURVE ( 'NONE', #375, #890, #297, .T. ) ;
#841 = DIRECTION ( 'NONE',  ( 0.0000000000000000000, -1.000000000000000000, 0.0000000000000000000 ) ) ;
#842 = DIRECTION ( 'NONE',  ( 0.0000000000000000000, 0.0000000000000000000, -1.000000000000000000 ) ) ;
#843 = CARTESIAN_POINT ( 'NONE',  ( 4.699999999999998401, -0.7500000000000002220, 5.099999999999999645 ) ) ;
#844 = CARTESIAN_POINT ( 'NONE',  ( 4.699999999999998401, -0.6094875162046674566, 5.099999999999999645 ) ) ;
#845 = AXIS2_PLACEMENT_3D ( 'NONE', #62, #210, #552 ) ;
#846 = DIRECTION ( 'NONE',  ( -1.000000000000000000, -0.0000000000000000000, -0.0000000000000000000 ) ) ;
#847 = ORIENTED_EDGE ( 'NONE', *, *, #554, .F. ) ;
#848 = AXIS2_PLACEMENT_3D ( 'NONE', #386, #878, #173 ) ;
#849 = STYLED_ITEM ( 'NONE', ( #36 ), #187 ) ;
#850 = CARTESIAN_POINT ( 'NONE',  ( 4.399999999999998579, 0.4499999999999998446, -5.099999999999999645 ) ) ;
#851 = ORIENTED_EDGE ( 'NONE', *, *, #832, .T. ) ;
#852 = ORIENTED_EDGE ( 'NONE', *, *, #361, .F. ) ;
#853 = ADVANCED_FACE ( 'NONE', ( #304 ), #727, .T. ) ;
#854 = AXIS2_PLACEMENT_3D ( 'NONE', #865, #93, #231 ) ;
#855 = CARTESIAN_POINT ( 'NONE',  ( 4.699999999999998401, 0.4499999999999998446, 5.099999999999999645 ) ) ;
#856 = CARTESIAN_POINT ( 'NONE',  ( -2.600000000000000533, 2.250000000000000000, 5.099999999999999645 ) ) ;
#857 = ORIENTED_EDGE ( 'NONE', *, *, #535, .T. ) ;
#858 = EDGE_CURVE ( 'NONE', #256, #200, #109, .T. ) ;
#859 = APPLICATION_PROTOCOL_DEFINITION ( 'draft international standard', 'automotive_design', 1998, #645 ) ;
#860 = DIRECTION ( 'NONE',  ( -0.0000000000000000000, -0.0000000000000000000, 1.000000000000000000 ) ) ;
#861 = EDGE_LOOP ( 'NONE', ( #462, #85, #387, #603 ) ) ;
#862 = CIRCLE ( 'NONE', #243, 0.2999999999999999334 ) ;
#863 = COLOUR_RGB ( '',1.000000000000000000, 1.000000000000000000, 1.000000000000000000 ) ;
#864 = DIRECTION ( 'NONE',  ( 1.000000000000000000, 0.0000000000000000000, 0.0000000000000000000 ) ) ;
#865 = CARTESIAN_POINT ( 'NONE',  ( 2.791385019445601579, -1.949999999999999512, 5.099999999999999645 ) ) ;
#866 = EDGE_CURVE ( 'NONE', #362, #441, #504, .T. ) ;
#867 = CARTESIAN_POINT ( 'NONE',  ( -4.700000000000000178, -0.6094875162046676786, 5.099999999999999645 ) ) ;
#868 = EDGE_CURVE ( 'NONE', #807, #263, #396, .T. ) ;
#869 = ORIENTED_EDGE ( 'NONE', *, *, #653, .T. ) ;
#870 = CARTESIAN_POINT ( 'NONE',  ( 4.399999999999998579, 0.4499999999999998446, 5.099999999999999645 ) ) ;
#871 = DIRECTION ( 'NONE',  ( 0.0000000000000000000, 0.0000000000000000000, -1.000000000000000000 ) ) ;
#872 = CARTESIAN_POINT ( 'NONE',  ( 0.0000000000000000000, 0.0000000000000000000, -5.099999999999999645 ) ) ;
#873 = EDGE_CURVE ( 'NONE', #729, #217, #223, .T. ) ;
#874 = ORIENTED_EDGE ( 'NONE', *, *, #159, .T. ) ;
#875 = CARTESIAN_POINT ( 'NONE',  ( -4.400000000000001243, 0.4499999999999998446, 5.099999999999999645 ) ) ;
#876 = LINE ( 'NONE', #184, #364 ) ;
#877 = PLANE ( 'NONE',  #747 ) ;
#878 = DIRECTION ( 'NONE',  ( 0.0000000000000000000, 0.0000000000000000000, -1.000000000000000000 ) ) ;
#879 = EDGE_CURVE ( 'NONE', #263, #475, #369, .T. ) ;
#880 = ORIENTED_EDGE ( 'NONE', *, *, #580, .F. ) ;
#881 = AXIS2_PLACEMENT_3D ( 'NONE', #270, #706, #76 ) ;
#882 = DIRECTION ( 'NONE',  ( -0.0000000000000000000, -1.000000000000000000, -0.0000000000000000000 ) ) ;
#883 = LINE ( 'NONE', #254, #533 ) ;
#884 = DIRECTION ( 'NONE',  ( 5.421010862427522786E-17, 1.000000000000000000, -0.0000000000000000000 ) ) ;
#885 = VECTOR ( 'NONE', #60, 1000.000000000000000 ) ;
#886 = CIRCLE ( 'NONE', #248, 0.2999999999999999334 ) ;
#887 = VERTEX_POINT ( 'NONE', #781 ) ;
#888 = FACE_OUTER_BOUND ( 'NONE', #770, .T. ) ;
#889 = DIRECTION ( 'NONE',  ( -1.000000000000000000, 0.0000000000000000000, 0.0000000000000000000 ) ) ;
#890 = VERTEX_POINT ( 'NONE', #656 ) ;
#891 = DIRECTION ( 'NONE',  ( 0.7682212795973756281, 0.6401843996644800416, -0.0000000000000000000 ) ) ;
#892 =( LENGTH_UNIT ( ) NAMED_UNIT ( * ) SI_UNIT ( .MILLI., .METRE. ) );
#893 = EDGE_LOOP ( 'NONE', ( #549, #91, #244, #812, #487, #714, #636, #760, #425, #514, #59, #365, #652, #874, #192, #743, #622, #711, #318, #16 ) ) ;
#894 = FACE_OUTER_BOUND ( 'NONE', #313, .T. ) ;
#895 =( GEOMETRIC_REPRESENTATION_CONTEXT ( 3 ) GLOBAL_UNCERTAINTY_ASSIGNED_CONTEXT ( ( #291 ) ) GLOBAL_UNIT_ASSIGNED_CONTEXT ( ( #598, #180, #119 ) ) REPRESENTATION_CONTEXT ( 'NONE', 'WORKASPACE' ) );
#896 = CIRCLE ( 'NONE', #616, 2.299999999999996270 ) ;
#897 = CARTESIAN_POINT ( 'NONE',  ( -2.900000000000000355, 2.250000000000000000, 5.099999999999999645 ) ) ;
#898 = ORIENTED_EDGE ( 'NONE', *, *, #679, .T. ) ;
#899 = CARTESIAN_POINT ( 'NONE',  ( 4.399999999999998579, 0.7499999999999997780, 5.099999999999999645 ) ) ;
#900 = FACE_OUTER_BOUND ( 'NONE', #736, .T. ) ;
#901 = AXIS2_PLACEMENT_3D ( 'NONE', #733, #102, #576 ) ;
#902 = ORIENTED_EDGE ( 'NONE', *, *, #335, .T. ) ;
#903 = EDGE_CURVE ( 'NONE', #766, #557, #647, .T. ) ;
#904 = DIRECTION ( 'NONE',  ( -1.000000000000000000, 0.0000000000000000000, 0.0000000000000000000 ) ) ;
ENDSEC;
END-ISO-10303-21;
