ISO-10303-21;
HEADER;
FILE_DESCRIPTION (( 'STEP AP214' ),
    '1' );
FILE_NAME ('M51 Уголок 20х20L.STEP',
    '2021-10-22T13:01:00',
    ( 'Windows User' ),
    ( '' ),
    'SwSTEP 2.0',
    'SolidWorks 2021',
    '' );
FILE_SCHEMA (( 'AUTOMOTIVE_DESIGN' ));
ENDSEC;

DATA;
#1 = AXIS2_PLACEMENT_3D ( 'NONE', #634, #163, #474 ) ;
#2 = CARTESIAN_POINT ( 'NONE',  ( 0.000000000000000000, 0.000000000000000000, -4.500000000000000888 ) ) ;
#3 = ADVANCED_FACE ( 'NONE', ( #272 ), #160, .T. ) ;
#4 = AXIS2_PLACEMENT_3D ( 'NONE', #23, #658, #329 ) ;
#5 = DIRECTION ( 'NONE',  ( -0.000000000000000000, 1.000000000000000000, -0.000000000000000000 ) ) ;
#6 = CARTESIAN_POINT ( 'NONE',  ( 17.00000000000000000, 4.500000000000000888, 0.000000000000000000 ) ) ;
#7 = CARTESIAN_POINT ( 'NONE',  ( 17.00000000000000000, 4.500000000000000888, -16.00000000000000000 ) ) ;
#8 = ORIENTED_EDGE ( 'NONE', *, *, #234, .F. ) ;
#9 = ADVANCED_FACE ( 'NONE', ( #486 ), #278, .T. ) ;
#10 = CARTESIAN_POINT ( 'NONE',  ( 8.500000000000000000, 0.000000000000000000, -12.55000000000000071 ) ) ;
#11 = AXIS2_PLACEMENT_3D ( 'NONE', #328, #502, #287 ) ;
#12 = SURFACE_STYLE_FILL_AREA ( #178 ) ;
#13 = DIRECTION ( 'NONE',  ( 0.000000000000000000, 0.000000000000000000, -1.000000000000000000 ) ) ;
#14 = PRODUCT_RELATED_PRODUCT_CATEGORY ( 'part', '', ( #172 ) ) ;
#15 = DIRECTION ( 'NONE',  ( 1.000000000000000000, 0.000000000000000000, 0.000000000000000000 ) ) ;
#16 = FILL_AREA_STYLE_COLOUR ( '', #50 ) ;
#17 = LINE ( 'NONE', #185, #633 ) ;
#18 = CARTESIAN_POINT ( 'NONE',  ( 0.000000000000000000, 0.000000000000000000, 0.000000000000000000 ) ) ;
#19 = PLANE ( 'NONE',  #4 ) ;
#20 = FACE_OUTER_BOUND ( 'NONE', #473, .T. ) ;
#21 = ADVANCED_BREP_SHAPE_REPRESENTATION ( 'M51 Lуюыюъ 20ї20L', ( #684, #27 ), #531 ) ;
#22 = DIRECTION ( 'NONE',  ( -0.000000000000000000, 1.000000000000000000, -0.000000000000000000 ) ) ;
#23 = CARTESIAN_POINT ( 'NONE',  ( 17.00000000000000000, 0.000000000000000000, 0.000000000000000000 ) ) ;
#24 = ADVANCED_FACE ( 'NONE', ( #280 ), #455, .T. ) ;
#25 = DIRECTION ( 'NONE',  ( -0.000000000000000000, 1.000000000000000000, 0.000000000000000000 ) ) ;
#26 = ORIENTED_EDGE ( 'NONE', *, *, #457, .T. ) ;
#27 = AXIS2_PLACEMENT_3D ( 'NONE', #304, #210, #206 ) ;
#28 = DIRECTION ( 'NONE',  ( 0.000000000000000000, -1.000000000000000000, 0.000000000000000000 ) ) ;
#29 = ORIENTED_EDGE ( 'NONE', *, *, #397, .T. ) ;
#30 = CARTESIAN_POINT ( 'NONE',  ( 8.500000000000000000, 10.00000000000000000, 0.000000000000000000 ) ) ;
#31 = ORIENTED_EDGE ( 'NONE', *, *, #71, .F. ) ;
#32 = EDGE_CURVE ( 'NONE', #519, #238, #447, .T. ) ;
#33 = CARTESIAN_POINT ( 'NONE',  ( 8.500000000000000000, 0.000000000000000000, -7.450000000000000178 ) ) ;
#34 = VERTEX_POINT ( 'NONE', #547 ) ;
#35 = AXIS2_PLACEMENT_3D ( 'NONE', #651, #232, #121 ) ;
#36 = CIRCLE ( 'NONE', #362, 2.550000000000000266 ) ;
#37 = CARTESIAN_POINT ( 'NONE',  ( 14.50000000000000000, 2.500000000000000000, -18.50000000000000000 ) ) ;
#38 = DIRECTION ( 'NONE',  ( -1.000000000000000000, -0.000000000000000000, -0.000000000000000000 ) ) ;
#39 = ORIENTED_EDGE ( 'NONE', *, *, #376, .T. ) ;
#40 = DIRECTION ( 'NONE',  ( 0.000000000000000000, 0.000000000000000000, -1.000000000000000000 ) ) ;
#41 = DIRECTION ( 'NONE',  ( -1.000000000000000000, -0.000000000000000000, -0.000000000000000000 ) ) ;
#42 = EDGE_CURVE ( 'NONE', #529, #298, #500, .T. ) ;
#43 = ORIENTED_EDGE ( 'NONE', *, *, #296, .F. ) ;
#44 = DIRECTION ( 'NONE',  ( 0.000000000000000000, 0.000000000000000000, 1.000000000000000000 ) ) ;
#45 = CARTESIAN_POINT ( 'NONE',  ( 2.500000000000000444, 0.000000000000000000, -18.50000000000000000 ) ) ;
#46 = ADVANCED_FACE ( 'NONE', ( #20 ), #599, .F. ) ;
#47 = ORIENTED_EDGE ( 'NONE', *, *, #540, .F. ) ;
#48 = CIRCLE ( 'NONE', #479, 2.500000000000000000 ) ;
#49 = DIRECTION ( 'NONE',  ( 1.000000000000000000, -0.000000000000000000, -0.000000000000000000 ) ) ;
#50 = COLOUR_RGB ( '',0.5686274509803921351, 0.5882352941176470784, 0.6039215686274509443 ) ;
#51 = ORIENTED_EDGE ( 'NONE', *, *, #580, .T. ) ;
#52 = EDGE_CURVE ( 'NONE', #373, #433, #241, .T. ) ;
#53 = CARTESIAN_POINT ( 'NONE',  ( 8.500000000000000000, 0.000000000000000000, -12.55000000000000071 ) ) ;
#54 = VERTEX_POINT ( 'NONE', #189 ) ;
#55 = EDGE_CURVE ( 'NONE', #590, #413, #17, .T. ) ;
#56 = DIRECTION ( 'NONE',  ( 0.000000000000000000, -1.000000000000000000, -0.000000000000000000 ) ) ;
#57 = ORIENTED_EDGE ( 'NONE', *, *, #55, .T. ) ;
#58 = VECTOR ( 'NONE', #38, 1000.000000000000000 ) ;
#59 = ORIENTED_EDGE ( 'NONE', *, *, #530, .F. ) ;
#60 = CARTESIAN_POINT ( 'NONE',  ( 0.000000000000000000, 4.500000000000000888, -4.500000000000000888 ) ) ;
#61 = DIRECTION ( 'NONE',  ( 1.000000000000000000, 0.000000000000000000, 0.000000000000000000 ) ) ;
#62 = DIRECTION ( 'NONE',  ( -0.000000000000000000, -0.000000000000000000, -1.000000000000000000 ) ) ;
#63 = LINE ( 'NONE', #646, #308 ) ;
#64 = DIRECTION ( 'NONE',  ( 0.000000000000000000, 0.000000000000000000, -1.000000000000000000 ) ) ;
#65 = ADVANCED_FACE ( 'NONE', ( #128 ), #342, .T. ) ;
#66 = LINE ( 'NONE', #10, #492 ) ;
#67 = CIRCLE ( 'NONE', #286, 4.500000000000000888 ) ;
#68 = CARTESIAN_POINT ( 'NONE',  ( 17.00000000000000000, 4.500000000000000888, 0.000000000000000000 ) ) ;
#69 = CIRCLE ( 'NONE', #506, 2.500000000000000444 ) ;
#70 = STYLED_ITEM ( 'NONE', ( #608 ), #21 ) ;
#71 = EDGE_CURVE ( 'NONE', #529, #586, #338, .T. ) ;
#72 = DIRECTION ( 'NONE',  ( -1.000000000000000000, -0.000000000000000000, -0.000000000000000000 ) ) ;
#73 = DIRECTION ( 'NONE',  ( -1.000000000000000000, 0.000000000000000000, -0.000000000000000000 ) ) ;
#74 = DIRECTION ( 'NONE',  ( 1.000000000000000000, 0.000000000000000000, 0.000000000000000000 ) ) ;
#75 = EDGE_CURVE ( 'NONE', #367, #590, #548, .T. ) ;
#76 = CARTESIAN_POINT ( 'NONE',  ( 2.500000000000000444, 2.500000000000000000, -18.50000000000000000 ) ) ;
#77 = SURFACE_STYLE_FILL_AREA ( #496 ) ;
#78 = CARTESIAN_POINT ( 'NONE',  ( 0.000000000000000000, 4.500000000000000888, -4.500000000000000888 ) ) ;
#79 = ORIENTED_EDGE ( 'NONE', *, *, #234, .T. ) ;
#80 = DIRECTION ( 'NONE',  ( -0.000000000000000000, -1.000000000000000000, -0.000000000000000000 ) ) ;
#81 = CARTESIAN_POINT ( 'NONE',  ( 14.50000000000000000, 16.00000000000000000, 0.000000000000000000 ) ) ;
#82 = VECTOR ( 'NONE', #671, 1000.000000000000000 ) ;
#83 = EDGE_LOOP ( 'NONE', ( #497, #424, #515, #390 ) ) ;
#84 = DIRECTION ( 'NONE',  ( 0.000000000000000000, 1.000000000000000000, 0.000000000000000000 ) ) ;
#85 = DIRECTION ( 'NONE',  ( 0.000000000000000000, 1.000000000000000000, 0.000000000000000000 ) ) ;
#86 = ADVANCED_FACE ( 'NONE', ( #609 ), #561, .T. ) ;
#87 = ORIENTED_EDGE ( 'NONE', *, *, #670, .T. ) ;
#88 = DIRECTION ( 'NONE',  ( -1.000000000000000000, 0.000000000000000000, 0.000000000000000000 ) ) ;
#89 = ORIENTED_EDGE ( 'NONE', *, *, #179, .T. ) ;
#90 = DIRECTION ( 'NONE',  ( 0.000000000000000000, -1.000000000000000000, 0.000000000000000000 ) ) ;
#91 =( NAMED_UNIT ( * ) PLANE_ANGLE_UNIT ( ) SI_UNIT ( $, .RADIAN. ) );
#92 = DIRECTION ( 'NONE',  ( 0.000000000000000000, 0.000000000000000000, -1.000000000000000000 ) ) ;
#93 = ORIENTED_EDGE ( 'NONE', *, *, #42, .F. ) ;
#94 = AXIS2_PLACEMENT_3D ( 'NONE', #631, #56, #428 ) ;
#95 = AXIS2_PLACEMENT_3D ( 'NONE', #357, #419, #154 ) ;
#96 =( GEOMETRIC_REPRESENTATION_CONTEXT ( 3 ) GLOBAL_UNCERTAINTY_ASSIGNED_CONTEXT ( ( #325 ) ) GLOBAL_UNIT_ASSIGNED_CONTEXT ( ( #228, #445, #642 ) ) REPRESENTATION_CONTEXT ( 'NONE', 'WORKASPACE' ) );
#97 = CARTESIAN_POINT ( 'NONE',  ( 8.500000000000000000, 0.000000000000000000, -7.450000000000000178 ) ) ;
#98 = CARTESIAN_POINT ( 'NONE',  ( 8.500000000000000000, 0.000000000000000000, -10.00000000000000000 ) ) ;
#99 = VERTEX_POINT ( 'NONE', #663 ) ;
#100 = CARTESIAN_POINT ( 'NONE',  ( 0.000000000000000000, 0.000000000000000000, -4.500000000000000888 ) ) ;
#101 = EDGE_CURVE ( 'NONE', #34, #105, #282, .T. ) ;
#102 = DIRECTION ( 'NONE',  ( -0.000000000000000000, 1.000000000000000000, -0.000000000000000000 ) ) ;
#103 = ORIENTED_EDGE ( 'NONE', *, *, #421, .T. ) ;
#104 = CARTESIAN_POINT ( 'NONE',  ( 17.00000000000000000, 0.000000000000000000, -18.50000000000000000 ) ) ;
#105 = VERTEX_POINT ( 'NONE', #180 ) ;
#106 = CIRCLE ( 'NONE', #470, 2.000000000000000000 ) ;
#107 = AXIS2_PLACEMENT_3D ( 'NONE', #499, #170, #239 ) ;
#108 = ORIENTED_EDGE ( 'NONE', *, *, #251, .F. ) ;
#109 = EDGE_CURVE ( 'NONE', #614, #54, #182, .T. ) ;
#110 = CYLINDRICAL_SURFACE ( 'NONE', #601, 2.550000000000000266 ) ;
#111 = ORIENTED_EDGE ( 'NONE', *, *, #498, .T. ) ;
#112 = ORIENTED_EDGE ( 'NONE', *, *, #630, .F. ) ;
#113 = AXIS2_PLACEMENT_3D ( 'NONE', #6, #61, #635 ) ;
#114 = VECTOR ( 'NONE', #218, 1000.000000000000000 ) ;
#115 = EDGE_CURVE ( 'NONE', #54, #558, #331, .T. ) ;
#116 = CARTESIAN_POINT ( 'NONE',  ( 0.000000000000000000, 0.000000000000000000, -4.500000000000000888 ) ) ;
#117 = ORIENTED_EDGE ( 'NONE', *, *, #71, .T. ) ;
#118 = LINE ( 'NONE', #187, #407 ) ;
#119 = EDGE_CURVE ( 'NONE', #322, #614, #439, .T. ) ;
#120 = CARTESIAN_POINT ( 'NONE',  ( 17.00000000000000000, 2.500000000000000000, 0.000000000000000000 ) ) ;
#121 = DIRECTION ( 'NONE',  ( 0.000000000000000000, 0.000000000000000000, -1.000000000000000000 ) ) ;
#122 = DIRECTION ( 'NONE',  ( -1.000000000000000000, 0.000000000000000000, 0.000000000000000000 ) ) ;
#123 = PLANE ( 'NONE',  #393 ) ;
#124 = VERTEX_POINT ( 'NONE', #175 ) ;
#125 = DIRECTION ( 'NONE',  ( 0.000000000000000000, 0.000000000000000000, -1.000000000000000000 ) ) ;
#126 = AXIS2_PLACEMENT_3D ( 'NONE', #207, #459, #618 ) ;
#127 = FACE_BOUND ( 'NONE', #682, .T. ) ;
#128 = FACE_OUTER_BOUND ( 'NONE', #584, .T. ) ;
#129 = EDGE_LOOP ( 'NONE', ( #31, #541, #677, #652 ) ) ;
#130 = ADVANCED_FACE ( 'NONE', ( #525 ), #676, .T. ) ;
#131 = MECHANICAL_DESIGN_GEOMETRIC_PRESENTATION_REPRESENTATION (  '', ( #70 ), #326 ) ;
#132 = CARTESIAN_POINT ( 'NONE',  ( 17.00000000000000000, 4.500000000000000888, 0.000000000000000000 ) ) ;
#133 = VERTEX_POINT ( 'NONE', #404 ) ;
#134 = DIRECTION ( 'NONE',  ( -1.000000000000000000, 0.000000000000000000, 0.000000000000000000 ) ) ;
#135 = CARTESIAN_POINT ( 'NONE',  ( 5.950000000000000178, 10.00000000000000000, 0.000000000000000000 ) ) ;
#136 = EDGE_LOOP ( 'NONE', ( #250, #176, #554, #579 ) ) ;
#137 = LINE ( 'NONE', #402, #200 ) ;
#138 = FACE_OUTER_BOUND ( 'NONE', #262, .T. ) ;
#139 = AXIS2_PLACEMENT_3D ( 'NONE', #81, #13, #249 ) ;
#140 = EDGE_LOOP ( 'NONE', ( #186, #570, #401, #216 ) ) ;
#141 = CIRCLE ( 'NONE', #107, 2.500000000000000444 ) ;
#142 = DIRECTION ( 'NONE',  ( -0.000000000000000000, 0.000000000000000000, -1.000000000000000000 ) ) ;
#143 = EDGE_LOOP ( 'NONE', ( #268, #219, #157, #229, #39, #93 ) ) ;
#144 = CARTESIAN_POINT ( 'NONE',  ( 17.00000000000000000, 2.500000000000000000, -18.50000000000000000 ) ) ;
#145 = CYLINDRICAL_SURFACE ( 'NONE', #95, 2.000000000000000444 ) ;
#146 = VERTEX_POINT ( 'NONE', #613 ) ;
#147 = CARTESIAN_POINT ( 'NONE',  ( 17.00000000000000000, 2.500000000000000000, -4.500000000000000888 ) ) ;
#148 = VECTOR ( 'NONE', #237, 1000.000000000000000 ) ;
#149 = VERTEX_POINT ( 'NONE', #267 ) ;
#150 = AXIS2_PLACEMENT_3D ( 'NONE', #98, #85, #310 ) ;
#151 = EDGE_CURVE ( 'NONE', #149, #433, #305, .T. ) ;
#152 = DIRECTION ( 'NONE',  ( -0.000000000000000000, 1.000000000000000000, 0.000000000000000000 ) ) ;
#153 = PRODUCT_CONTEXT ( 'NONE', #366, 'mechanical' ) ;
#154 = DIRECTION ( 'NONE',  ( 0.000000000000000000, 0.000000000000000000, 1.000000000000000000 ) ) ;
#155 = ORIENTED_EDGE ( 'NONE', *, *, #344, .F. ) ;
#156 = FACE_OUTER_BOUND ( 'NONE', #168, .T. ) ;
#157 = ORIENTED_EDGE ( 'NONE', *, *, #151, .T. ) ;
#158 = CARTESIAN_POINT ( 'NONE',  ( 0.000000000000000000, 16.00000000000000000, -2.500000000000000000 ) ) ;
#159 = EDGE_CURVE ( 'NONE', #105, #529, #616, .T. ) ;
#160 = CYLINDRICAL_SURFACE ( 'NONE', #256, 4.500000000000000888 ) ;
#161 = AXIS2_PLACEMENT_3D ( 'NONE', #346, #400, #383 ) ;
#162 = AXIS2_PLACEMENT_3D ( 'NONE', #680, #266, #469 ) ;
#163 = DIRECTION ( 'NONE',  ( 0.000000000000000000, 0.000000000000000000, -1.000000000000000000 ) ) ;
#164 = DIRECTION ( 'NONE',  ( 0.000000000000000000, -1.000000000000000000, 0.000000000000000000 ) ) ;
#165 = DIRECTION ( 'NONE',  ( 0.000000000000000000, 0.000000000000000000, 1.000000000000000000 ) ) ;
#166 = ADVANCED_FACE ( 'NONE', ( #471, #193 ), #674, .T. ) ;
#167 = UNCERTAINTY_MEASURE_WITH_UNIT (LENGTH_MEASURE( 1.000000000000000082E-05 ), #356, 'distance_accuracy_value', 'NONE');
#168 = EDGE_LOOP ( 'NONE', ( #274, #523, #460, #410 ) ) ;
#169 = EDGE_CURVE ( 'NONE', #491, #322, #264, .T. ) ;
#170 = DIRECTION ( 'NONE',  ( -0.000000000000000000, -0.000000000000000000, -1.000000000000000000 ) ) ;
#171 = ORIENTED_EDGE ( 'NONE', *, *, #425, .F. ) ;
#172 = PRODUCT ( 'M51 Уголок 20х20L', 'M51 Уголок 20х20L', '', ( #153 ) ) ;
#173 = DIRECTION ( 'NONE',  ( 0.000000000000000000, -0.000000000000000000, 1.000000000000000000 ) ) ;
#174 = DIRECTION ( 'NONE',  ( 0.000000000000000000, 0.000000000000000000, -1.000000000000000000 ) ) ;
#175 = CARTESIAN_POINT ( 'NONE',  ( 0.000000000000000000, 0.000000000000000000, -16.00000000000000000 ) ) ;
#176 = ORIENTED_EDGE ( 'NONE', *, *, #512, .F. ) ;
#177 = FACE_OUTER_BOUND ( 'NONE', #83, .T. ) ;
#178 = FILL_AREA_STYLE ('',( #399 ) ) ;
#179 = EDGE_CURVE ( 'NONE', #519, #622, #434, .T. ) ;
#180 = CARTESIAN_POINT ( 'NONE',  ( 17.00000000000000000, 16.00000000000000000, 0.000000000000000000 ) ) ;
#181 = DIRECTION ( 'NONE',  ( 0.000000000000000000, 0.000000000000000000, -1.000000000000000000 ) ) ;
#182 = CIRCLE ( 'NONE', #35, 2.000000000000000000 ) ;
#183 = AXIS2_PLACEMENT_3D ( 'NONE', #444, #292, #345 ) ;
#184 =( NAMED_UNIT ( * ) PLANE_ANGLE_UNIT ( ) SI_UNIT ( $, .RADIAN. ) );
#185 = CARTESIAN_POINT ( 'NONE',  ( 14.50000000000000000, 2.500000000000000000, -18.50000000000000000 ) ) ;
#186 = ORIENTED_EDGE ( 'NONE', *, *, #481, .F. ) ;
#187 = CARTESIAN_POINT ( 'NONE',  ( 17.00000000000000000, 0.000000000000000000, -2.500000000000000000 ) ) ;
#188 = DIRECTION ( 'NONE',  ( -0.000000000000000000, 1.000000000000000000, 0.000000000000000000 ) ) ;
#189 = CARTESIAN_POINT ( 'NONE',  ( 0.000000000000000000, 2.500000000000000000, -4.500000000000000888 ) ) ;
#190 = ORIENTED_EDGE ( 'NONE', *, *, #436, .T. ) ;
#191 = LINE ( 'NONE', #201, #221 ) ;
#192 = APPLICATION_PROTOCOL_DEFINITION ( 'draft international standard', 'automotive_design', 1998, #340 ) ;
#193 = FACE_OUTER_BOUND ( 'NONE', #429, .T. ) ;
#194 = ORIENTED_EDGE ( 'NONE', *, *, #457, .F. ) ;
#195 = EDGE_CURVE ( 'NONE', #605, #259, #415, .T. ) ;
#196 =( NAMED_UNIT ( * ) SI_UNIT ( $, .STERADIAN. ) SOLID_ANGLE_UNIT ( ) );
#197 = CLOSED_SHELL ( 'NONE', ( #301, #203, #9, #130, #644, #65, #661, #560, #683, #260, #166, #476, #678, #3, #208, #46, #487, #277, #86, #549, #24, #408 ) ) ;
#198 = DIRECTION ( 'NONE',  ( 0.000000000000000000, 0.000000000000000000, -1.000000000000000000 ) ) ;
#199 = ORIENTED_EDGE ( 'NONE', *, *, #52, .T. ) ;
#200 = VECTOR ( 'NONE', #355, 1000.000000000000000 ) ;
#201 = CARTESIAN_POINT ( 'NONE',  ( 17.00000000000000000, 2.500000000000000000, -4.500000000000000888 ) ) ;
#202 = FACE_OUTER_BOUND ( 'NONE', #371, .T. ) ;
#203 = ADVANCED_FACE ( 'NONE', ( #138 ), #252, .F. ) ;
#204 = ORIENTED_EDGE ( 'NONE', *, *, #330, .T. ) ;
#205 = CARTESIAN_POINT ( 'NONE',  ( 17.00000000000000000, 18.50000000000000000, -2.500000000000000000 ) ) ;
#206 = DIRECTION ( 'NONE',  ( 1.000000000000000000, 0.000000000000000000, 0.000000000000000000 ) ) ;
#207 = CARTESIAN_POINT ( 'NONE',  ( 8.500000000000000000, 10.00000000000000000, 0.000000000000000000 ) ) ;
#208 = ADVANCED_FACE ( 'NONE', ( #626 ), #297, .T. ) ;
#209 = VERTEX_POINT ( 'NONE', #510 ) ;
#210 = DIRECTION ( 'NONE',  ( 0.000000000000000000, 0.000000000000000000, 1.000000000000000000 ) ) ;
#211 = CARTESIAN_POINT ( 'NONE',  ( 8.500000000000000000, 2.500000000000000000, -7.450000000000000178 ) ) ;
#212 = ORIENTED_EDGE ( 'NONE', *, *, #588, .T. ) ;
#213 = VECTOR ( 'NONE', #80, 1000.000000000000000 ) ;
#214 = AXIS2_PLACEMENT_3D ( 'NONE', #565, #84, #44 ) ;
#215 = LINE ( 'NONE', #422, #472 ) ;
#216 = ORIENTED_EDGE ( 'NONE', *, *, #169, .F. ) ;
#217 = EDGE_CURVE ( 'NONE', #627, #259, #275, .T. ) ;
#218 = DIRECTION ( 'NONE',  ( -1.000000000000000000, -0.000000000000000000, -0.000000000000000000 ) ) ;
#219 = ORIENTED_EDGE ( 'NONE', *, *, #344, .T. ) ;
#220 = ORIENTED_EDGE ( 'NONE', *, *, #573, .F. ) ;
#221 = VECTOR ( 'NONE', #90, 1000.000000000000000 ) ;
#222 = CARTESIAN_POINT ( 'NONE',  ( 0.000000000000000000, 4.500000000000000888, 0.000000000000000000 ) ) ;
#223 = ORIENTED_EDGE ( 'NONE', *, *, #670, .F. ) ;
#224 = DIRECTION ( 'NONE',  ( -0.000000000000000000, -0.000000000000000000, 1.000000000000000000 ) ) ;
#225 = EDGE_CURVE ( 'NONE', #590, #99, #621, .T. ) ;
#226 = PRODUCT_DEFINITION_CONTEXT ( 'detailed design', #340, 'design' ) ;
#227 = CARTESIAN_POINT ( 'NONE',  ( 17.00000000000000000, 4.500000000000000888, -4.500000000000000888 ) ) ;
#228 =( LENGTH_UNIT ( ) NAMED_UNIT ( * ) SI_UNIT ( .MILLI., .METRE. ) );
#229 = ORIENTED_EDGE ( 'NONE', *, *, #481, .T. ) ;
#230 = VECTOR ( 'NONE', #389, 1000.000000000000000 ) ;
#231 = DIRECTION ( 'NONE',  ( -1.000000000000000000, 0.000000000000000000, 0.000000000000000000 ) ) ;
#232 = DIRECTION ( 'NONE',  ( 1.000000000000000000, 0.000000000000000000, 0.000000000000000000 ) ) ;
#233 = EDGE_LOOP ( 'NONE', ( #194, #108, #629, #568 ) ) ;
#234 = EDGE_CURVE ( 'NONE', #587, #354, #333, .T. ) ;
#235 = CARTESIAN_POINT ( 'NONE',  ( 17.00000000000000000, 18.50000000000000000, 0.000000000000000000 ) ) ;
#236 = SURFACE_SIDE_STYLE ('',( #77 ) ) ;
#237 = DIRECTION ( 'NONE',  ( -0.000000000000000000, -0.000000000000000000, 1.000000000000000000 ) ) ;
#238 = VERTEX_POINT ( 'NONE', #350 ) ;
#239 = DIRECTION ( 'NONE',  ( -1.000000000000000000, 0.000000000000000000, 0.000000000000000000 ) ) ;
#240 = PLANE ( 'NONE',  #602 ) ;
#241 = LINE ( 'NONE', #288, #148 ) ;
#242 = ORIENTED_EDGE ( 'NONE', *, *, #75, .T. ) ;
#243 = LINE ( 'NONE', #488, #213 ) ;
#244 = VECTOR ( 'NONE', #64, 1000.000000000000000 ) ;
#245 = VECTOR ( 'NONE', #414, 1000.000000000000000 ) ;
#246 = PRESENTATION_STYLE_ASSIGNMENT (( #552 ) ) ;
#247 = PRESENTATION_LAYER_ASSIGNMENT (  '', '', ( #70 ) ) ;
#248 = ORIENTED_EDGE ( 'NONE', *, *, #284, .F. ) ;
#249 = DIRECTION ( 'NONE',  ( -1.000000000000000000, 0.000000000000000000, 0.000000000000000000 ) ) ;
#250 = ORIENTED_EDGE ( 'NONE', *, *, #611, .F. ) ;
#251 = EDGE_CURVE ( 'NONE', #605, #300, #668, .T. ) ;
#252 = CYLINDRICAL_SURFACE ( 'NONE', #126, 2.550000000000000266 ) ;
#253 = PRODUCT_DEFINITION_SHAPE ( 'NONE', 'NONE',  #555 ) ;
#254 = ORIENTED_EDGE ( 'NONE', *, *, #521, .T. ) ;
#255 = DIRECTION ( 'NONE',  ( -1.000000000000000000, 0.000000000000000000, -0.000000000000000000 ) ) ;
#256 = AXIS2_PLACEMENT_3D ( 'NONE', #273, #377, #165 ) ;
#257 = DIRECTION ( 'NONE',  ( 0.000000000000000000, 0.000000000000000000, 1.000000000000000000 ) ) ;
#258 = AXIS2_PLACEMENT_3D ( 'NONE', #294, #25, #553 ) ;
#259 = VERTEX_POINT ( 'NONE', #211 ) ;
#260 = ADVANCED_FACE ( 'NONE', ( #202 ), #145, .F. ) ;
#261 = DIRECTION ( 'NONE',  ( -1.000000000000000000, 0.000000000000000000, 0.000000000000000000 ) ) ;
#262 = EDGE_LOOP ( 'NONE', ( #334, #639, #423, #648 ) ) ;
#263 = CARTESIAN_POINT ( 'NONE',  ( 2.500000000000000000, 2.500000000000000000, -16.00000000000000000 ) ) ;
#264 = LINE ( 'NONE', #522, #269 ) ;
#265 = ORIENTED_EDGE ( 'NONE', *, *, #512, .T. ) ;
#266 = DIRECTION ( 'NONE',  ( 0.000000000000000000, -1.000000000000000000, -0.000000000000000000 ) ) ;
#267 = CARTESIAN_POINT ( 'NONE',  ( 14.50000000000000000, 18.50000000000000000, 0.000000000000000000 ) ) ;
#268 = ORIENTED_EDGE ( 'NONE', *, *, #159, .F. ) ;
#269 = VECTOR ( 'NONE', #198, 1000.000000000000000 ) ;
#270 = MECHANICAL_DESIGN_GEOMETRIC_PRESENTATION_REPRESENTATION (  '', ( #507 ), #96 ) ;
#271 = FACE_OUTER_BOUND ( 'NONE', #475, .T. ) ;
#272 = FACE_OUTER_BOUND ( 'NONE', #311, .T. ) ;
#273 = CARTESIAN_POINT ( 'NONE',  ( 17.00000000000000000, 4.500000000000000888, -4.500000000000000888 ) ) ;
#274 = ORIENTED_EDGE ( 'NONE', *, *, #330, .F. ) ;
#275 = CIRCLE ( 'NONE', #449, 2.550000000000000266 ) ;
#276 = CIRCLE ( 'NONE', #183, 2.550000000000000266 ) ;
#277 = ADVANCED_FACE ( 'NONE', ( #567 ), #365, .F. ) ;
#278 = PLANE ( 'NONE',  #113 ) ;
#279 = DIRECTION ( 'NONE',  ( 0.000000000000000000, 0.000000000000000000, 1.000000000000000000 ) ) ;
#280 = FACE_OUTER_BOUND ( 'NONE', #136, .T. ) ;
#281 = CARTESIAN_POINT ( 'NONE',  ( 0.000000000000000000, 16.00000000000000000, 0.000000000000000000 ) ) ;
#282 = LINE ( 'NONE', #593, #527 ) ;
#283 = VERTEX_POINT ( 'NONE', #45 ) ;
#284 = EDGE_CURVE ( 'NONE', #529, #587, #67, .T. ) ;
#285 = AXIS2_PLACEMENT_3D ( 'NONE', #78, #74, #604 ) ;
#286 = AXIS2_PLACEMENT_3D ( 'NONE', #539, #49, #585 ) ;
#287 = DIRECTION ( 'NONE',  ( 0.000000000000000000, 0.000000000000000000, -1.000000000000000000 ) ) ;
#288 = CARTESIAN_POINT ( 'NONE',  ( 2.500000000000000000, 18.50000000000000000, 0.000000000000000000 ) ) ;
#289 = ORIENTED_EDGE ( 'NONE', *, *, #573, .T. ) ;
#290 = DIRECTION ( 'NONE',  ( 0.000000000000000000, 0.000000000000000000, -1.000000000000000000 ) ) ;
#291 = ORIENTED_EDGE ( 'NONE', *, *, #55, .F. ) ;
#292 = DIRECTION ( 'NONE',  ( 0.000000000000000000, 1.000000000000000000, 0.000000000000000000 ) ) ;
#293 = SURFACE_STYLE_USAGE ( .BOTH. , #236 ) ;
#294 = CARTESIAN_POINT ( 'NONE',  ( 14.50000000000000000, 2.500000000000000000, -16.00000000000000000 ) ) ;
#295 = VECTOR ( 'NONE', #398, 1000.000000000000000 ) ;
#296 = EDGE_CURVE ( 'NONE', #413, #283, #480, .T. ) ;
#297 = PLANE ( 'NONE',  #582 ) ;
#298 = VERTEX_POINT ( 'NONE', #222 ) ;
#299 = DIRECTION ( 'NONE',  ( 1.000000000000000000, 0.000000000000000000, 0.000000000000000000 ) ) ;
#300 = VERTEX_POINT ( 'NONE', #53 ) ;
#301 = ADVANCED_FACE ( 'NONE', ( #271 ), #110, .F. ) ;
#302 = CARTESIAN_POINT ( 'NONE',  ( 0.000000000000000000, 2.500000000000000000, -16.00000000000000000 ) ) ;
#303 = VECTOR ( 'NONE', #659, 1000.000000000000000 ) ;
#304 = CARTESIAN_POINT ( 'NONE',  ( 0.000000000000000000, 0.000000000000000000, 0.000000000000000000 ) ) ;
#305 = LINE ( 'NONE', #666, #58 ) ;
#306 = AXIS2_PLACEMENT_3D ( 'NONE', #30, #412, #88 ) ;
#307 = ORIENTED_EDGE ( 'NONE', *, *, #436, .F. ) ;
#308 = VECTOR ( 'NONE', #174, 1000.000000000000000 ) ;
#309 = LINE ( 'NONE', #520, #528 ) ;
#310 = DIRECTION ( 'NONE',  ( 0.000000000000000000, 0.000000000000000000, 1.000000000000000000 ) ) ;
#311 = EDGE_LOOP ( 'NONE', ( #426, #8, #248, #456 ) ) ;
#312 = CARTESIAN_POINT ( 'NONE',  ( 8.500000000000000000, 2.500000000000000000, -12.55000000000000071 ) ) ;
#313 = DIRECTION ( 'NONE',  ( 0.000000000000000000, 0.000000000000000000, 1.000000000000000000 ) ) ;
#314 = EDGE_LOOP ( 'NONE', ( #660, #265, #443, #57 ) ) ;
#315 = EDGE_CURVE ( 'NONE', #238, #146, #615, .T. ) ;
#316 = ORIENTED_EDGE ( 'NONE', *, *, #115, .T. ) ;
#317 = CIRCLE ( 'NONE', #94, 2.500000000000000444 ) ;
#318 = DIRECTION ( 'NONE',  ( 1.000000000000000000, -0.000000000000000000, -0.000000000000000000 ) ) ;
#319 = ORIENTED_EDGE ( 'NONE', *, *, #315, .F. ) ;
#320 = EDGE_CURVE ( 'NONE', #124, #283, #317, .T. ) ;
#321 = CARTESIAN_POINT ( 'NONE',  ( 17.00000000000000000, 2.500000000000000000, -16.00000000000000000 ) ) ;
#322 = VERTEX_POINT ( 'NONE', #158 ) ;
#323 = CIRCLE ( 'NONE', #505, 4.500000000000000888 ) ;
#324 = CIRCLE ( 'NONE', #583, 2.500000000000000000 ) ;
#325 = UNCERTAINTY_MEASURE_WITH_UNIT (LENGTH_MEASURE( 1.000000000000000082E-05 ), #228, 'distance_accuracy_value', 'NONE');
#326 =( GEOMETRIC_REPRESENTATION_CONTEXT ( 3 ) GLOBAL_UNCERTAINTY_ASSIGNED_CONTEXT ( ( #167 ) ) GLOBAL_UNIT_ASSIGNED_CONTEXT ( ( #356, #91, #196 ) ) REPRESENTATION_CONTEXT ( 'NONE', 'WORKASPACE' ) );
#327 = ORIENTED_EDGE ( 'NONE', *, *, #151, .F. ) ;
#328 = CARTESIAN_POINT ( 'NONE',  ( 14.50000000000000000, 2.500000000000000000, -16.00000000000000000 ) ) ;
#329 = DIRECTION ( 'NONE',  ( -1.000000000000000000, 0.000000000000000000, -0.000000000000000000 ) ) ;
#330 = EDGE_CURVE ( 'NONE', #354, #54, #477, .T. ) ;
#331 = LINE ( 'NONE', #544, #244 ) ;
#332 = LINE ( 'NONE', #76, #681 ) ;
#333 = LINE ( 'NONE', #575, #517 ) ;
#334 = ORIENTED_EDGE ( 'NONE', *, *, #521, .F. ) ;
#335 = VECTOR ( 'NONE', #72, 1000.000000000000000 ) ;
#336 = LINE ( 'NONE', #7, #295 ) ;
#337 = DIRECTION ( 'NONE',  ( 0.000000000000000000, -0.000000000000000000, 1.000000000000000000 ) ) ;
#338 = LINE ( 'NONE', #68, #574 ) ;
#339 = ORIENTED_EDGE ( 'NONE', *, *, #376, .F. ) ;
#340 = APPLICATION_CONTEXT ( 'automotive_design' ) ;
#341 = DIRECTION ( 'NONE',  ( 0.000000000000000000, 0.000000000000000000, -1.000000000000000000 ) ) ;
#342 = PLANE ( 'NONE',  #161 ) ;
#343 = EDGE_LOOP ( 'NONE', ( #358, #643, #482, #117 ) ) ;
#344 = EDGE_CURVE ( 'NONE', #105, #149, #536, .T. ) ;
#345 = DIRECTION ( 'NONE',  ( 0.000000000000000000, 0.000000000000000000, 1.000000000000000000 ) ) ;
#346 = CARTESIAN_POINT ( 'NONE',  ( 0.000000000000000000, 4.500000000000000888, -2.500000000000000000 ) ) ;
#347 = DIRECTION ( 'NONE',  ( 0.000000000000000000, 0.000000000000000000, 1.000000000000000000 ) ) ;
#348 = AXIS2_PLACEMENT_3D ( 'NONE', #235, #559, #173 ) ;
#349 = AXIS2_PLACEMENT_3D ( 'NONE', #607, #62, #122 ) ;
#350 = CARTESIAN_POINT ( 'NONE',  ( 5.950000000000000178, 10.00000000000000000, -2.500000000000000000 ) ) ;
#351 = EDGE_LOOP ( 'NONE', ( #155, #463, #59, #220 ) ) ;
#352 = CARTESIAN_POINT ( 'NONE',  ( 17.00000000000000000, 4.500000000000000888, -4.500000000000000888 ) ) ;
#353 = EDGE_CURVE ( 'NONE', #558, #124, #372, .T. ) ;
#354 = VERTEX_POINT ( 'NONE', #116 ) ;
#355 = DIRECTION ( 'NONE',  ( 0.000000000000000000, 0.000000000000000000, -1.000000000000000000 ) ) ;
#356 =( LENGTH_UNIT ( ) NAMED_UNIT ( * ) SI_UNIT ( .MILLI., .METRE. ) );
#357 = CARTESIAN_POINT ( 'NONE',  ( 17.00000000000000000, 4.500000000000000888, -4.500000000000000888 ) ) ;
#358 = ORIENTED_EDGE ( 'NONE', *, *, #397, .F. ) ;
#359 = CARTESIAN_POINT ( 'NONE',  ( 17.00000000000000000, 4.500000000000000888, -2.500000000000000000 ) ) ;
#360 = AXIS2_PLACEMENT_3D ( 'NONE', #147, #409, #92 ) ;
#361 = CARTESIAN_POINT ( 'NONE',  ( 17.00000000000000000, 2.500000000000000000, -18.50000000000000000 ) ) ;
#362 = AXIS2_PLACEMENT_3D ( 'NONE', #545, #290, #134 ) ;
#363 = ORIENTED_EDGE ( 'NONE', *, *, #606, .F. ) ;
#364 = CARTESIAN_POINT ( 'NONE',  ( 17.00000000000000000, 0.000000000000000000, -4.500000000000000888 ) ) ;
#365 = CYLINDRICAL_SURFACE ( 'NONE', #418, 2.550000000000000266 ) ;
#366 = APPLICATION_CONTEXT ( 'automotive_design' ) ;
#367 = VERTEX_POINT ( 'NONE', #321 ) ;
#368 = PLANE ( 'NONE',  #550 ) ;
#369 = EDGE_CURVE ( 'NONE', #298, #354, #323, .T. ) ;
#370 = DIRECTION ( 'NONE',  ( 0.000000000000000000, 0.000000000000000000, 1.000000000000000000 ) ) ;
#371 = EDGE_LOOP ( 'NONE', ( #420, #581, #675, #111 ) ) ;
#372 = LINE ( 'NONE', #589, #391 ) ;
#373 = VERTEX_POINT ( 'NONE', #535 ) ;
#374 = CARTESIAN_POINT ( 'NONE',  ( 14.50000000000000000, 16.00000000000000000, 0.000000000000000000 ) ) ;
#375 = VERTEX_POINT ( 'NONE', #532 ) ;
#376 = EDGE_CURVE ( 'NONE', #491, #298, #243, .T. ) ;
#377 = DIRECTION ( 'NONE',  ( -1.000000000000000000, -0.000000000000000000, -0.000000000000000000 ) ) ;
#378 = DIRECTION ( 'NONE',  ( -1.000000000000000000, 0.000000000000000000, 0.000000000000000000 ) ) ;
#379 = VECTOR ( 'NONE', #341, 1000.000000000000000 ) ;
#380 = CIRCLE ( 'NONE', #162, 2.500000000000000444 ) ;
#381 = CYLINDRICAL_SURFACE ( 'NONE', #435, 2.500000000000000000 ) ;
#382 = CARTESIAN_POINT ( 'NONE',  ( 17.00000000000000000, 0.000000000000000000, 0.000000000000000000 ) ) ;
#383 = DIRECTION ( 'NONE',  ( -0.000000000000000000, 0.000000000000000000, 1.000000000000000000 ) ) ;
#384 = CARTESIAN_POINT ( 'NONE',  ( 0.000000000000000000, 4.500000000000000888, -2.500000000000000000 ) ) ;
#385 = FACE_BOUND ( 'NONE', #465, .T. ) ;
#386 = CARTESIAN_POINT ( 'NONE',  ( 2.500000000000000000, 4.500000000000000888, -16.00000000000000000 ) ) ;
#387 = CARTESIAN_POINT ( 'NONE',  ( 14.50000000000000000, 0.000000000000000000, -18.50000000000000000 ) ) ;
#388 = FACE_OUTER_BOUND ( 'NONE', #533, .T. ) ;
#389 = DIRECTION ( 'NONE',  ( -0.000000000000000000, -1.000000000000000000, -0.000000000000000000 ) ) ;
#390 = ORIENTED_EDGE ( 'NONE', *, *, #315, .T. ) ;
#391 = VECTOR ( 'NONE', #164, 1000.000000000000000 ) ;
#392 = AXIS2_PLACEMENT_3D ( 'NONE', #374, #224, #378 ) ;
#393 = AXIS2_PLACEMENT_3D ( 'NONE', #120, #598, #337 ) ;
#394 = CARTESIAN_POINT ( 'NONE',  ( 5.950000000000000178, 10.00000000000000000, 0.000000000000000000 ) ) ;
#395 = CARTESIAN_POINT ( 'NONE',  ( 17.00000000000000000, 4.500000000000000888, 0.000000000000000000 ) ) ;
#396 = ORIENTED_EDGE ( 'NONE', *, *, #595, .F. ) ;
#397 = EDGE_CURVE ( 'NONE', #34, #586, #118, .T. ) ;
#398 = DIRECTION ( 'NONE',  ( -0.000000000000000000, 1.000000000000000000, -0.000000000000000000 ) ) ;
#399 = FILL_AREA_STYLE_COLOUR ( '', #669 ) ;
#400 = DIRECTION ( 'NONE',  ( -1.000000000000000000, 0.000000000000000000, -0.000000000000000000 ) ) ;
#401 = ORIENTED_EDGE ( 'NONE', *, *, #588, .F. ) ;
#402 = CARTESIAN_POINT ( 'NONE',  ( 14.50000000000000000, 18.50000000000000000, 0.000000000000000000 ) ) ;
#403 = SHAPE_DEFINITION_REPRESENTATION ( #253, #21 ) ;
#404 = CARTESIAN_POINT ( 'NONE',  ( 14.50000000000000000, 18.50000000000000000, -2.500000000000000000 ) ) ;
#405 = EDGE_LOOP ( 'NONE', ( #319, #171 ) ) ;
#406 = CARTESIAN_POINT ( 'NONE',  ( 11.05000000000000071, 10.00000000000000000, 0.000000000000000000 ) ) ;
#407 = VECTOR ( 'NONE', #441, 1000.000000000000000 ) ;
#408 = ADVANCED_FACE ( 'NONE', ( #591 ), #645, .T. ) ;
#409 = DIRECTION ( 'NONE',  ( 1.000000000000000000, 0.000000000000000000, 0.000000000000000000 ) ) ;
#410 = ORIENTED_EDGE ( 'NONE', *, *, #109, .T. ) ;
#411 = DIRECTION ( 'NONE',  ( 0.000000000000000000, -0.000000000000000000, 1.000000000000000000 ) ) ;
#412 = DIRECTION ( 'NONE',  ( 0.000000000000000000, 0.000000000000000000, -1.000000000000000000 ) ) ;
#413 = VERTEX_POINT ( 'NONE', #387 ) ;
#414 = DIRECTION ( 'NONE',  ( -1.000000000000000000, -0.000000000000000000, -0.000000000000000000 ) ) ;
#415 = LINE ( 'NONE', #33, #461 ) ;
#416 = ORIENTED_EDGE ( 'NONE', *, *, #320, .T. ) ;
#417 = FACE_OUTER_BOUND ( 'NONE', #314, .T. ) ;
#418 = AXIS2_PLACEMENT_3D ( 'NONE', #578, #102, #313 ) ;
#419 = DIRECTION ( 'NONE',  ( -1.000000000000000000, -0.000000000000000000, -0.000000000000000000 ) ) ;
#420 = ORIENTED_EDGE ( 'NONE', *, *, #109, .F. ) ;
#421 = EDGE_CURVE ( 'NONE', #209, #367, #336, .T. ) ;
#422 = CARTESIAN_POINT ( 'NONE',  ( 17.00000000000000000, 4.500000000000000888, -2.500000000000000000 ) ) ;
#423 = ORIENTED_EDGE ( 'NONE', *, *, #425, .T. ) ;
#424 = ORIENTED_EDGE ( 'NONE', *, *, #179, .F. ) ;
#425 = EDGE_CURVE ( 'NONE', #146, #238, #679, .T. ) ;
#426 = ORIENTED_EDGE ( 'NONE', *, *, #369, .T. ) ;
#427 = AXIS2_PLACEMENT_3D ( 'NONE', #518, #142, #261 ) ;
#428 = DIRECTION ( 'NONE',  ( 0.000000000000000000, 0.000000000000000000, 1.000000000000000000 ) ) ;
#429 = EDGE_LOOP ( 'NONE', ( #396, #448, #29, #596, #468, #212 ) ) ;
#430 = DIRECTION ( 'NONE',  ( 0.000000000000000000, 1.000000000000000000, 0.000000000000000000 ) ) ;
#431 = ORIENTED_EDGE ( 'NONE', *, *, #75, .F. ) ;
#432 = DIRECTION ( 'NONE',  ( -1.000000000000000000, 1.387778780781445676E-15, 0.000000000000000000 ) ) ;
#433 = VERTEX_POINT ( 'NONE', #653 ) ;
#434 = CIRCLE ( 'NONE', #306, 2.550000000000000266 ) ;
#435 = AXIS2_PLACEMENT_3D ( 'NONE', #458, #411, #454 ) ;
#436 = EDGE_CURVE ( 'NONE', #354, #124, #495, .T. ) ;
#437 = LINE ( 'NONE', #384, #563 ) ;
#438 =( NAMED_UNIT ( * ) SI_UNIT ( $, .STERADIAN. ) SOLID_ANGLE_UNIT ( ) );
#439 = LINE ( 'NONE', #490, #230 ) ;
#440 = EDGE_LOOP ( 'NONE', ( #190, #416, #43, #632, #223, #79 ) ) ;
#441 = DIRECTION ( 'NONE',  ( -0.000000000000000000, -1.000000000000000000, -0.000000000000000000 ) ) ;
#442 = DIRECTION ( 'NONE',  ( -0.000000000000000000, -0.000000000000000000, 1.000000000000000000 ) ) ;
#443 = ORIENTED_EDGE ( 'NONE', *, *, #225, .F. ) ;
#444 = CARTESIAN_POINT ( 'NONE',  ( 8.500000000000000000, 2.500000000000000000, -10.00000000000000000 ) ) ;
#445 =( NAMED_UNIT ( * ) PLANE_ANGLE_UNIT ( ) SI_UNIT ( $, .RADIAN. ) );
#446 = EDGE_CURVE ( 'NONE', #586, #375, #106, .T. ) ;
#447 = LINE ( 'NONE', #135, #504 ) ;
#448 = ORIENTED_EDGE ( 'NONE', *, *, #530, .T. ) ;
#449 = AXIS2_PLACEMENT_3D ( 'NONE', #569, #514, #257 ) ;
#450 = DIRECTION ( 'NONE',  ( -0.000000000000000000, -0.000000000000000000, 1.000000000000000000 ) ) ;
#451 = APPLICATION_PROTOCOL_DEFINITION ( 'draft international standard', 'automotive_design', 1998, #366 ) ;
#452 = DIRECTION ( 'NONE',  ( -0.000000000000000000, -0.000000000000000000, -1.000000000000000000 ) ) ;
#453 = EDGE_LOOP ( 'NONE', ( #47, #610 ) ) ;
#454 = DIRECTION ( 'NONE',  ( 1.000000000000000000, 0.000000000000000000, 0.000000000000000000 ) ) ;
#455 = CYLINDRICAL_SURFACE ( 'NONE', #562, 2.499999999999998668 ) ;
#456 = ORIENTED_EDGE ( 'NONE', *, *, #42, .T. ) ;
#457 = EDGE_CURVE ( 'NONE', #300, #627, #66, .T. ) ;
#458 = CARTESIAN_POINT ( 'NONE',  ( 2.500000000000000000, 16.00000000000000000, -4.500000000000000888 ) ) ;
#459 = DIRECTION ( 'NONE',  ( -0.000000000000000000, -0.000000000000000000, -1.000000000000000000 ) ) ;
#460 = ORIENTED_EDGE ( 'NONE', *, *, #467, .F. ) ;
#461 = VECTOR ( 'NONE', #466, 1000.000000000000000 ) ;
#462 = DIRECTION ( 'NONE',  ( -0.000000000000000000, -1.000000000000000000, -0.000000000000000000 ) ) ;
#463 = ORIENTED_EDGE ( 'NONE', *, *, #101, .F. ) ;
#464 = CARTESIAN_POINT ( 'NONE',  ( 17.00000000000000000, 0.000000000000000000, 0.000000000000000000 ) ) ;
#465 = EDGE_LOOP ( 'NONE', ( #636, #572 ) ) ;
#466 = DIRECTION ( 'NONE',  ( -0.000000000000000000, 1.000000000000000000, -0.000000000000000000 ) ) ;
#467 = EDGE_CURVE ( 'NONE', #614, #298, #437, .T. ) ;
#468 = ORIENTED_EDGE ( 'NONE', *, *, #119, .F. ) ;
#469 = DIRECTION ( 'NONE',  ( 0.000000000000000000, 0.000000000000000000, 1.000000000000000000 ) ) ;
#470 = AXIS2_PLACEMENT_3D ( 'NONE', #227, #15, #181 ) ;
#471 = FACE_BOUND ( 'NONE', #405, .T. ) ;
#472 = VECTOR ( 'NONE', #628, 1000.000000000000000 ) ;
#473 = EDGE_LOOP ( 'NONE', ( #339, #617, #664, #686 ) ) ;
#474 = DIRECTION ( 'NONE',  ( -1.000000000000000000, 0.000000000000000000, 0.000000000000000000 ) ) ;
#475 = EDGE_LOOP ( 'NONE', ( #620, #26, #534, #501 ) ) ;
#476 = ADVANCED_FACE ( 'NONE', ( #597 ), #542, .T. ) ;
#477 = LINE ( 'NONE', #2, #655 ) ;
#478 = ORIENTED_EDGE ( 'NONE', *, *, #353, .T. ) ;
#479 = AXIS2_PLACEMENT_3D ( 'NONE', #649, #450, #432 ) ;
#480 = LINE ( 'NONE', #104, #114 ) ;
#481 = EDGE_CURVE ( 'NONE', #433, #491, #48, .T. ) ;
#482 = ORIENTED_EDGE ( 'NONE', *, *, #159, .T. ) ;
#483 = UNCERTAINTY_MEASURE_WITH_UNIT (LENGTH_MEASURE( 1.000000000000000082E-05 ), #546, 'distance_accuracy_value', 'NONE');
#484 = LINE ( 'NONE', #551, #335 ) ;
#485 = DIRECTION ( 'NONE',  ( -0.000000000000000000, 0.000000000000000000, 1.000000000000000000 ) ) ;
#486 = FACE_OUTER_BOUND ( 'NONE', #129, .T. ) ;
#487 = ADVANCED_FACE ( 'NONE', ( #177 ), #657, .F. ) ;
#488 = CARTESIAN_POINT ( 'NONE',  ( 0.000000000000000000, 0.000000000000000000, 0.000000000000000000 ) ) ;
#489 = FACE_OUTER_BOUND ( 'NONE', #143, .T. ) ;
#490 = CARTESIAN_POINT ( 'NONE',  ( 0.000000000000000000, 0.000000000000000000, -2.500000000000000000 ) ) ;
#491 = VERTEX_POINT ( 'NONE', #281 ) ;
#492 = VECTOR ( 'NONE', #22, 1000.000000000000000 ) ;
#493 = AXIS2_PLACEMENT_3D ( 'NONE', #144, #513, #255 ) ;
#494 = PRODUCT_DEFINITION_FORMATION_WITH_SPECIFIED_SOURCE ( 'ANY', '', #172, .NOT_KNOWN. ) ;
#495 = LINE ( 'NONE', #18, #379 ) ;
#496 = FILL_AREA_STYLE ('',( #16 ) ) ;
#497 = ORIENTED_EDGE ( 'NONE', *, *, #566, .F. ) ;
#498 = EDGE_CURVE ( 'NONE', #375, #54, #484, .T. ) ;
#499 = CARTESIAN_POINT ( 'NONE',  ( 14.50000000000000000, 16.00000000000000000, -2.500000000000000000 ) ) ;
#500 = LINE ( 'NONE', #395, #303 ) ;
#501 = ORIENTED_EDGE ( 'NONE', *, *, #195, .F. ) ;
#502 = DIRECTION ( 'NONE',  ( 0.000000000000000000, -1.000000000000000000, 0.000000000000000000 ) ) ;
#503 = DIRECTION ( 'NONE',  ( 0.000000000000000000, -0.000000000000000000, 1.000000000000000000 ) ) ;
#504 = VECTOR ( 'NONE', #452, 1000.000000000000000 ) ;
#505 = AXIS2_PLACEMENT_3D ( 'NONE', #60, #318, #279 ) ;
#506 = AXIS2_PLACEMENT_3D ( 'NONE', #263, #152, #347 ) ;
#507 = STYLED_ITEM ( 'NONE', ( #246 ), #684 ) ;
#508 = CARTESIAN_POINT ( 'NONE',  ( 0.000000000000000000, 4.500000000000000888, -2.500000000000000000 ) ) ;
#509 = EDGE_LOOP ( 'NONE', ( #87, #103, #363, #51 ) ) ;
#510 = CARTESIAN_POINT ( 'NONE',  ( 17.00000000000000000, 0.000000000000000000, -16.00000000000000000 ) ) ;
#511 = EDGE_LOOP ( 'NONE', ( #327, #289, #576, #199 ) ) ;
#512 = EDGE_CURVE ( 'NONE', #283, #99, #332, .T. ) ;
#513 = DIRECTION ( 'NONE',  ( 0.000000000000000000, 0.000000000000000000, -1.000000000000000000 ) ) ;
#514 = DIRECTION ( 'NONE',  ( 0.000000000000000000, 1.000000000000000000, 0.000000000000000000 ) ) ;
#515 = ORIENTED_EDGE ( 'NONE', *, *, #32, .T. ) ;
#516 = CARTESIAN_POINT ( 'NONE',  ( 2.500000000000000000, 16.00000000000000000, -2.500000000000000000 ) ) ;
#517 = VECTOR ( 'NONE', #41, 1000.000000000000000 ) ;
#518 = CARTESIAN_POINT ( 'NONE',  ( 17.00000000000000000, 0.000000000000000000, -2.500000000000000000 ) ) ;
#519 = VERTEX_POINT ( 'NONE', #394 ) ;
#520 = CARTESIAN_POINT ( 'NONE',  ( 17.00000000000000000, 2.500000000000000000, 0.000000000000000000 ) ) ;
#521 = EDGE_CURVE ( 'NONE', #622, #519, #36, .T. ) ;
#522 = CARTESIAN_POINT ( 'NONE',  ( 0.000000000000000000, 16.00000000000000000, -2.500000000000000000 ) ) ;
#523 = ORIENTED_EDGE ( 'NONE', *, *, #369, .F. ) ;
#524 = CARTESIAN_POINT ( 'NONE',  ( 11.05000000000000071, 10.00000000000000000, 0.000000000000000000 ) ) ;
#525 = FACE_OUTER_BOUND ( 'NONE', #343, .T. ) ;
#526 = ORIENTED_EDGE ( 'NONE', *, *, #115, .F. ) ;
#527 = VECTOR ( 'NONE', #442, 1000.000000000000000 ) ;
#528 = VECTOR ( 'NONE', #40, 1000.000000000000000 ) ;
#529 = VERTEX_POINT ( 'NONE', #132 ) ;
#530 = EDGE_CURVE ( 'NONE', #133, #34, #141, .T. ) ;
#531 =( GEOMETRIC_REPRESENTATION_CONTEXT ( 3 ) GLOBAL_UNCERTAINTY_ASSIGNED_CONTEXT ( ( #483 ) ) GLOBAL_UNIT_ASSIGNED_CONTEXT ( ( #546, #184, #438 ) ) REPRESENTATION_CONTEXT ( 'NONE', 'WORKASPACE' ) );
#532 = CARTESIAN_POINT ( 'NONE',  ( 17.00000000000000000, 2.500000000000000000, -4.500000000000000888 ) ) ;
#533 = EDGE_LOOP ( 'NONE', ( #600, #672, #526, #685, #667, #242 ) ) ;
#534 = ORIENTED_EDGE ( 'NONE', *, *, #217, .T. ) ;
#535 = CARTESIAN_POINT ( 'NONE',  ( 2.500000000000000444, 18.50000000000000000, -2.500000000000000000 ) ) ;
#536 = CIRCLE ( 'NONE', #392, 2.500000000000000444 ) ;
#537 = ORIENTED_EDGE ( 'NONE', *, *, #421, .F. ) ;
#538 = VECTOR ( 'NONE', #624, 1000.000000000000000 ) ;
#539 = CARTESIAN_POINT ( 'NONE',  ( 17.00000000000000000, 4.500000000000000888, -4.500000000000000888 ) ) ;
#540 = EDGE_CURVE ( 'NONE', #259, #627, #276, .T. ) ;
#541 = ORIENTED_EDGE ( 'NONE', *, *, #284, .T. ) ;
#542 = PLANE ( 'NONE',  #348 ) ;
#543 = SURFACE_SIDE_STYLE ('',( #12 ) ) ;
#544 = CARTESIAN_POINT ( 'NONE',  ( 0.000000000000000000, 2.500000000000000000, 0.000000000000000000 ) ) ;
#545 = CARTESIAN_POINT ( 'NONE',  ( 8.500000000000000000, 10.00000000000000000, 0.000000000000000000 ) ) ;
#546 =( LENGTH_UNIT ( ) NAMED_UNIT ( * ) SI_UNIT ( .MILLI., .METRE. ) );
#547 = CARTESIAN_POINT ( 'NONE',  ( 17.00000000000000000, 16.00000000000000000, -2.500000000000000000 ) ) ;
#548 = CIRCLE ( 'NONE', #258, 2.500000000000000444 ) ;
#549 = ADVANCED_FACE ( 'NONE', ( #603 ), #381, .T. ) ;
#550 = AXIS2_PLACEMENT_3D ( 'NONE', #100, #73, #485 ) ;
#551 = CARTESIAN_POINT ( 'NONE',  ( 17.00000000000000000, 2.500000000000000000, -4.500000000000000888 ) ) ;
#552 = SURFACE_STYLE_USAGE ( .BOTH. , #543 ) ;
#553 = DIRECTION ( 'NONE',  ( 0.000000000000000000, 0.000000000000000000, 1.000000000000000000 ) ) ;
#554 = ORIENTED_EDGE ( 'NONE', *, *, #320, .F. ) ;
#555 = PRODUCT_DEFINITION ( 'UNKNOWN', '', #494, #226 ) ;
#556 = CARTESIAN_POINT ( 'NONE',  ( 8.500000000000000000, 10.00000000000000000, -2.500000000000000000 ) ) ;
#557 = DIRECTION ( 'NONE',  ( 0.000000000000000000, 0.000000000000000000, -1.000000000000000000 ) ) ;
#558 = VERTEX_POINT ( 'NONE', #302 ) ;
#559 = DIRECTION ( 'NONE',  ( -0.000000000000000000, 1.000000000000000000, 0.000000000000000000 ) ) ;
#560 = ADVANCED_FACE ( 'NONE', ( #417 ), #665, .T. ) ;
#561 = CYLINDRICAL_SURFACE ( 'NONE', #139, 2.500000000000000444 ) ;
#562 = AXIS2_PLACEMENT_3D ( 'NONE', #386, #654, #557 ) ;
#563 = VECTOR ( 'NONE', #594, 1000.000000000000000 ) ;
#564 = PRESENTATION_LAYER_ASSIGNMENT (  '', '', ( #507 ) ) ;
#565 = CARTESIAN_POINT ( 'NONE',  ( 8.500000000000000000, 0.000000000000000000, -10.00000000000000000 ) ) ;
#566 = EDGE_CURVE ( 'NONE', #622, #146, #577, .T. ) ;
#567 = FACE_OUTER_BOUND ( 'NONE', #233, .T. ) ;
#568 = ORIENTED_EDGE ( 'NONE', *, *, #540, .T. ) ;
#569 = CARTESIAN_POINT ( 'NONE',  ( 8.500000000000000000, 2.500000000000000000, -10.00000000000000000 ) ) ;
#570 = ORIENTED_EDGE ( 'NONE', *, *, #52, .F. ) ;
#571 = DIRECTION ( 'NONE',  ( 0.000000000000000000, 0.000000000000000000, -1.000000000000000000 ) ) ;
#572 = ORIENTED_EDGE ( 'NONE', *, *, #619, .T. ) ;
#573 = EDGE_CURVE ( 'NONE', #149, #133, #137, .T. ) ;
#574 = VECTOR ( 'NONE', #647, 1000.000000000000000 ) ;
#575 = CARTESIAN_POINT ( 'NONE',  ( 17.00000000000000000, 0.000000000000000000, -4.500000000000000888 ) ) ;
#576 = ORIENTED_EDGE ( 'NONE', *, *, #595, .T. ) ;
#577 = LINE ( 'NONE', #406, #538 ) ;
#578 = CARTESIAN_POINT ( 'NONE',  ( 8.500000000000000000, 0.000000000000000000, -10.00000000000000000 ) ) ;
#579 = ORIENTED_EDGE ( 'NONE', *, *, #353, .F. ) ;
#580 = EDGE_CURVE ( 'NONE', #375, #587, #191, .T. ) ;
#581 = ORIENTED_EDGE ( 'NONE', *, *, #637, .F. ) ;
#582 = AXIS2_PLACEMENT_3D ( 'NONE', #352, #299, #571 ) ;
#583 = AXIS2_PLACEMENT_3D ( 'NONE', #516, #662, #612 ) ;
#584 = EDGE_LOOP ( 'NONE', ( #316, #478, #307, #204 ) ) ;
#585 = DIRECTION ( 'NONE',  ( 0.000000000000000000, 0.000000000000000000, 1.000000000000000000 ) ) ;
#586 = VERTEX_POINT ( 'NONE', #359 ) ;
#587 = VERTEX_POINT ( 'NONE', #364 ) ;
#588 = EDGE_CURVE ( 'NONE', #322, #373, #324, .T. ) ;
#589 = CARTESIAN_POINT ( 'NONE',  ( 0.000000000000000000, 4.500000000000000888, -16.00000000000000000 ) ) ;
#590 = VERTEX_POINT ( 'NONE', #37 ) ;
#591 = FACE_OUTER_BOUND ( 'NONE', #656, .T. ) ;
#592 = FACE_BOUND ( 'NONE', #453, .T. ) ;
#593 = CARTESIAN_POINT ( 'NONE',  ( 17.00000000000000000, 16.00000000000000000, -4.500000000000000888 ) ) ;
#594 = DIRECTION ( 'NONE',  ( 0.000000000000000000, 0.000000000000000000, 1.000000000000000000 ) ) ;
#595 = EDGE_CURVE ( 'NONE', #133, #373, #673, .T. ) ;
#596 = ORIENTED_EDGE ( 'NONE', *, *, #637, .T. ) ;
#597 = FACE_OUTER_BOUND ( 'NONE', #511, .T. ) ;
#598 = DIRECTION ( 'NONE',  ( -0.000000000000000000, 1.000000000000000000, 0.000000000000000000 ) ) ;
#599 = PLANE ( 'NONE',  #285 ) ;
#600 = ORIENTED_EDGE ( 'NONE', *, *, #225, .T. ) ;
#601 = AXIS2_PLACEMENT_3D ( 'NONE', #638, #5, #370 ) ;
#602 = AXIS2_PLACEMENT_3D ( 'NONE', #382, #188, #503 ) ;
#603 = FACE_OUTER_BOUND ( 'NONE', #140, .T. ) ;
#604 = DIRECTION ( 'NONE',  ( 0.000000000000000000, 0.000000000000000000, -1.000000000000000000 ) ) ;
#605 = VERTEX_POINT ( 'NONE', #97 ) ;
#606 = EDGE_CURVE ( 'NONE', #375, #367, #309, .T. ) ;
#607 = CARTESIAN_POINT ( 'NONE',  ( 8.500000000000000000, 10.00000000000000000, 0.000000000000000000 ) ) ;
#608 = PRESENTATION_STYLE_ASSIGNMENT (( #293 ) ) ;
#609 = FACE_OUTER_BOUND ( 'NONE', #351, .T. ) ;
#610 = ORIENTED_EDGE ( 'NONE', *, *, #217, .F. ) ;
#611 = EDGE_CURVE ( 'NONE', #99, #558, #69, .T. ) ;
#612 = DIRECTION ( 'NONE',  ( -1.000000000000000000, 0.000000000000000000, 0.000000000000000000 ) ) ;
#613 = CARTESIAN_POINT ( 'NONE',  ( 11.05000000000000071, 10.00000000000000000, -2.500000000000000000 ) ) ;
#614 = VERTEX_POINT ( 'NONE', #508 ) ;
#615 = CIRCLE ( 'NONE', #1, 2.550000000000000266 ) ;
#616 = LINE ( 'NONE', #464, #623 ) ;
#617 = ORIENTED_EDGE ( 'NONE', *, *, #169, .T. ) ;
#618 = DIRECTION ( 'NONE',  ( -1.000000000000000000, 0.000000000000000000, 0.000000000000000000 ) ) ;
#619 = EDGE_CURVE ( 'NONE', #300, #605, #625, .T. ) ;
#620 = ORIENTED_EDGE ( 'NONE', *, *, #619, .F. ) ;
#621 = LINE ( 'NONE', #361, #82 ) ;
#622 = VERTEX_POINT ( 'NONE', #524 ) ;
#623 = VECTOR ( 'NONE', #462, 1000.000000000000000 ) ;
#624 = DIRECTION ( 'NONE',  ( -0.000000000000000000, -0.000000000000000000, -1.000000000000000000 ) ) ;
#625 = CIRCLE ( 'NONE', #214, 2.550000000000000266 ) ;
#626 = FACE_OUTER_BOUND ( 'NONE', #509, .T. ) ;
#627 = VERTEX_POINT ( 'NONE', #312 ) ;
#628 = DIRECTION ( 'NONE',  ( -1.000000000000000000, -0.000000000000000000, -0.000000000000000000 ) ) ;
#629 = ORIENTED_EDGE ( 'NONE', *, *, #195, .T. ) ;
#630 = EDGE_CURVE ( 'NONE', #413, #209, #380, .T. ) ;
#631 = CARTESIAN_POINT ( 'NONE',  ( 2.500000000000000000, 0.000000000000000000, -16.00000000000000000 ) ) ;
#632 = ORIENTED_EDGE ( 'NONE', *, *, #630, .T. ) ;
#633 = VECTOR ( 'NONE', #28, 1000.000000000000000 ) ;
#634 = CARTESIAN_POINT ( 'NONE',  ( 8.500000000000000000, 10.00000000000000000, -2.500000000000000000 ) ) ;
#635 = DIRECTION ( 'NONE',  ( 0.000000000000000000, 0.000000000000000000, -1.000000000000000000 ) ) ;
#636 = ORIENTED_EDGE ( 'NONE', *, *, #251, .T. ) ;
#637 = EDGE_CURVE ( 'NONE', #586, #614, #215, .T. ) ;
#638 = CARTESIAN_POINT ( 'NONE',  ( 8.500000000000000000, 0.000000000000000000, -10.00000000000000000 ) ) ;
#639 = ORIENTED_EDGE ( 'NONE', *, *, #566, .T. ) ;
#640 = DIRECTION ( 'NONE',  ( -0.000000000000000000, 1.000000000000000000, -0.000000000000000000 ) ) ;
#641 = AXIS2_PLACEMENT_3D ( 'NONE', #556, #125, #231 ) ;
#642 =( NAMED_UNIT ( * ) SI_UNIT ( $, .STERADIAN. ) SOLID_ANGLE_UNIT ( ) );
#643 = ORIENTED_EDGE ( 'NONE', *, *, #101, .T. ) ;
#644 = ADVANCED_FACE ( 'NONE', ( #156 ), #368, .T. ) ;
#645 = CYLINDRICAL_SURFACE ( 'NONE', #11, 2.499999999999998668 ) ;
#646 = CARTESIAN_POINT ( 'NONE',  ( 17.00000000000000000, 0.000000000000000000, 0.000000000000000000 ) ) ;
#647 = DIRECTION ( 'NONE',  ( 0.000000000000000000, 0.000000000000000000, -1.000000000000000000 ) ) ;
#648 = ORIENTED_EDGE ( 'NONE', *, *, #32, .F. ) ;
#649 = CARTESIAN_POINT ( 'NONE',  ( 2.500000000000000000, 16.00000000000000000, 0.000000000000000000 ) ) ;
#650 = FACE_OUTER_BOUND ( 'NONE', #440, .T. ) ;
#651 = CARTESIAN_POINT ( 'NONE',  ( 0.000000000000000000, 4.500000000000000888, -4.500000000000000888 ) ) ;
#652 = ORIENTED_EDGE ( 'NONE', *, *, #446, .F. ) ;
#653 = CARTESIAN_POINT ( 'NONE',  ( 2.500000000000000444, 18.50000000000000000, 0.000000000000000000 ) ) ;
#654 = DIRECTION ( 'NONE',  ( 0.000000000000000000, -1.000000000000000000, 0.000000000000000000 ) ) ;
#655 = VECTOR ( 'NONE', #430, 1000.000000000000000 ) ;
#656 = EDGE_LOOP ( 'NONE', ( #431, #537, #112, #291 ) ) ;
#657 = CYLINDRICAL_SURFACE ( 'NONE', #349, 2.550000000000000266 ) ;
#658 = DIRECTION ( 'NONE',  ( 0.000000000000000000, 0.000000000000000000, -1.000000000000000000 ) ) ;
#659 = DIRECTION ( 'NONE',  ( -1.000000000000000000, -0.000000000000000000, -0.000000000000000000 ) ) ;
#660 = ORIENTED_EDGE ( 'NONE', *, *, #296, .T. ) ;
#661 = ADVANCED_FACE ( 'NONE', ( #385, #650 ), #240, .F. ) ;
#662 = DIRECTION ( 'NONE',  ( -0.000000000000000000, -0.000000000000000000, -1.000000000000000000 ) ) ;
#663 = CARTESIAN_POINT ( 'NONE',  ( 2.500000000000000444, 2.500000000000000000, -18.50000000000000000 ) ) ;
#664 = ORIENTED_EDGE ( 'NONE', *, *, #119, .T. ) ;
#665 = PLANE ( 'NONE',  #493 ) ;
#666 = CARTESIAN_POINT ( 'NONE',  ( 17.00000000000000000, 18.50000000000000000, 0.000000000000000000 ) ) ;
#667 = ORIENTED_EDGE ( 'NONE', *, *, #606, .T. ) ;
#668 = CIRCLE ( 'NONE', #150, 2.550000000000000266 ) ;
#669 = COLOUR_RGB ( '',0.5686274509803921351, 0.5882352941176470784, 0.6039215686274509443 ) ;
#670 = EDGE_CURVE ( 'NONE', #587, #209, #63, .T. ) ;
#671 = DIRECTION ( 'NONE',  ( -1.000000000000000000, -0.000000000000000000, -0.000000000000000000 ) ) ;
#672 = ORIENTED_EDGE ( 'NONE', *, *, #611, .T. ) ;
#673 = LINE ( 'NONE', #205, #245 ) ;
#674 = PLANE ( 'NONE',  #427 ) ;
#675 = ORIENTED_EDGE ( 'NONE', *, *, #446, .T. ) ;
#676 = PLANE ( 'NONE',  #360 ) ;
#677 = ORIENTED_EDGE ( 'NONE', *, *, #580, .F. ) ;
#678 = ADVANCED_FACE ( 'NONE', ( #127, #489 ), #19, .F. ) ;
#679 = CIRCLE ( 'NONE', #641, 2.550000000000000266 ) ;
#680 = CARTESIAN_POINT ( 'NONE',  ( 14.50000000000000000, 0.000000000000000000, -16.00000000000000000 ) ) ;
#681 = VECTOR ( 'NONE', #640, 1000.000000000000000 ) ;
#682 = EDGE_LOOP ( 'NONE', ( #89, #254 ) ) ;
#683 = ADVANCED_FACE ( 'NONE', ( #592, #388 ), #123, .T. ) ;
#684 = MANIFOLD_SOLID_BREP ( 'Скругление1', #197 ) ;
#685 = ORIENTED_EDGE ( 'NONE', *, *, #498, .F. ) ;
#686 = ORIENTED_EDGE ( 'NONE', *, *, #467, .T. ) ;
ENDSEC;
END-ISO-10303-21;
